<svg xmlns="http://www.w3.org/2000/svg" width="23" height="32" viewBox="0 0 23 32">
  <path fill="#0084AF" fill-rule="evenodd" d="M15.8048808,41.4420587 C15.2854884,40.9441846 15.5562419,41.0845519 14.3034842,40.7631395 C13.7350812,40.617043 13.2354126,40.3363085 12.7835592,40 L10.0718409,46.3732463 C9.80945506,46.9902893 10.2995606,47.6606146 10.9940761,47.6354058 L14.1433033,47.5202473 L16.3093309,49.7134141 C16.7874827,50.196965 17.6266391,50.046285 17.8890249,49.429242 L21,42.1175403 C20.3521043,42.4635886 19.6330836,42.6664049 18.8895575,42.6664049 C17.7240626,42.6664049 16.629095,42.2315529 15.8048808,41.4420587 Z M32.9281631,46.3732463 L30.2165921,40 C29.7647632,40.3368814 29.2651217,40.617043 28.6967496,40.7631395 C27.4374858,41.0862707 27.7136034,40.9453305 27.1954346,41.4420587 C26.3712652,42.2315529 25.2757595,42.6664049 24.1103278,42.6664049 C23.3668422,42.6664049 22.6478605,42.4630156 22,42.1175403 L25.1108061,49.429242 C25.3731776,50.046285 26.212886,50.196965 26.6904142,49.7134141 L28.8569218,47.5202473 L32.0059779,47.6354058 C32.7004556,47.6606146 33.1905346,46.9897164 32.9281631,46.3732463 L32.9281631,46.3732463 Z M25.735656,39.2839528 C26.6472541,38.3562823 26.7516583,38.436223 28.0498504,38.0824554 C28.8785217,37.8563543 29.5264245,37.1971415 29.7483581,36.3535877 C30.1946116,34.6593212 30.078872,34.8639457 31.2965237,33.6242676 C31.9032614,33.0068149 32.1401099,32.1065867 31.9181763,31.2630329 C31.4725194,29.5699595 31.4719228,29.8062023 31.9181763,28.1113393 C32.1401099,27.2677855 31.9032614,26.3675573 31.2965237,25.7501045 C30.078872,24.5104265 30.1946116,24.7144543 29.7483581,23.0207844 C29.5264245,22.1772306 28.8785217,21.5180178 28.0498504,21.2919168 C26.3865418,20.8379249 26.5869979,20.9566429 25.3681531,19.7163683 C24.7614154,19.0989155 23.8766641,18.8573036 23.0479928,19.0834046 C21.3852808,19.5367999 21.6173565,19.5373965 19.9516616,19.0834046 C19.1229903,18.8573036 18.238239,19.0983189 17.6315013,19.7163683 C16.4138496,20.9560463 16.6143058,20.8379249 14.9504006,21.2919168 C14.1217293,21.5180178 13.4738265,22.1772306 13.2518929,23.0207844 C12.806236,24.7144543 12.9213789,24.5104265 11.7037273,25.7501045 C11.0969896,26.3675573 10.8595445,27.2677855 11.0820747,28.1113393 C11.5277316,29.8032195 11.5283282,29.5669767 11.0820747,31.2624363 C10.8601411,32.1059901 11.0969896,33.0062183 11.7037273,33.6242676 C12.9213789,34.8639457 12.8056394,34.6593212 13.2518929,36.3535877 C13.4738265,37.1971415 14.1217293,37.8563543 14.9504006,38.0824554 C16.2855816,38.4463647 16.385213,38.3890938 17.2639984,39.2839528 C18.0532944,40.0875362 19.2828779,40.2313103 20.2314649,39.6311581 C21.0058063,39.1395855 21.9944446,39.1395855 22.768786,39.6311581 C23.7167765,40.2313103 24.94636,40.0875362 25.735656,39.2839528 Z M16,30 C16,26.6863154 18.4625821,24 21.5,24 C24.5374179,24 27,26.6863154 27,30 C27,33.3136846 24.5374179,36 21.5,36 C18.4625821,36 16,33.3136846 16,30 L16,30 Z" transform="translate(-10 -18.66)"/>
</svg>
