<svg xmlns="http://www.w3.org/2000/svg" width="70" height="55" viewBox="0 0 70 55">
  <g fill="none" fill-rule="evenodd">
    <path fill="#00A9E0" d="M27.4999999,4.99999992 C23.515625,4.99999992 19.7916666,5.67708325 16.3281249,7.03124993 C12.8645832,8.3854166 10.110677,10.2213541 8.06640614,12.5390624 C6.0221353,14.8567708 4.99999987,17.34375 4.99999987,19.9999999 C4.99999987,22.1354167 5.69010404,24.1927083 7.07031238,26.171875 C8.45052072,28.1510417 10.3906249,29.8697917 12.8906249,31.328125 L16.6796874,33.515625 L15.3124999,36.796875 C16.1979166,36.2760417 17.0052083,35.7682292 17.7343749,35.2734375 L19.4531249,34.0625 L21.5234374,34.453125 C23.5546875,34.8177084 25.546875,34.9999999 27.4999999,34.9999999 C31.484375,34.9999999 35.2083333,34.3229167 38.671875,32.96875 C42.1354167,31.6145834 44.889323,29.7786459 46.9335938,27.4609375 C48.9778646,25.1432292 49.9999999,22.65625 49.9999999,19.9999999 C49.9999999,17.34375 48.9778646,14.8567708 46.9335938,12.5390624 C44.889323,10.2213541 42.1354167,8.3854166 38.671875,7.03124993 C35.2083333,5.67708325 31.484375,4.99999992 27.4999999,4.99999992 Z M27.4999999,-1.04166247e-07 C32.4739583,-1.04166247e-07 37.0768229,0.891926983 41.3085938,2.67578116 C45.5403646,4.45963533 48.8802084,6.88802076 51.3281251,9.96093744 C53.7760417,13.0338541 54.9999999,16.3802083 54.9999999,19.9999999 C54.9999999,23.6197917 53.7760417,26.9661458 51.3281251,30.0390625 C48.8802084,33.1119792 45.5403646,35.5403646 41.3085938,37.3242188 C37.0768229,39.108073 32.4739583,39.9999999 27.4999999,39.9999999 C25.2604166,39.9999999 22.9687499,39.7916667 20.6249999,39.3750001 C17.3958333,41.6666667 13.7760416,43.3333334 9.76562489,44.3750001 C8.82812489,44.6093751 7.70833322,44.8177084 6.40624988,44.9999999 L6.28906238,44.9999999 C6.00260405,44.9999999 5.73567696,44.8958334 5.48828113,44.6875001 C5.24088529,44.4791667 5.09114571,44.2057292 5.03906238,43.8671876 C5.01302071,43.7890626 4.99999985,43.7044272 4.99999985,43.6132813 C4.99999985,43.5221355 5.00651029,43.4375001 5.01953113,43.3593751 C5.03255196,43.2812501 5.05859363,43.2031251 5.09765613,43.1250001 L5.19531238,42.9296876 L5.33203113,42.7148438 L5.48828113,42.5195313 L5.66406238,42.3242188 L5.82031238,42.1484376 C5.95052071,41.9921876 6.24999988,41.6666667 6.71874988,41.1718751 C7.18749988,40.6770834 7.52604155,40.2929688 7.73437489,40.0195313 C7.94270822,39.7460938 8.23567697,39.3684896 8.61328114,38.8867188 C8.99088531,38.404948 9.31640614,37.9036459 9.58984364,37.3828126 C9.86328115,36.8619792 10.1302082,36.2890625 10.3906249,35.6640625 C7.16145822,33.7890625 4.62239571,31.484375 2.77343737,28.75 C0.924479025,26.015625 -1.45833337e-07,23.0989583 -1.45833337e-07,19.9999999 C-1.45833337e-07,16.3802083 1.22395819,13.0338541 3.67187487,9.96093744 C6.11979155,6.88802076 9.45963531,4.45963533 13.6914062,2.67578116 C17.923177,0.891926983 22.5260416,-1.04166247e-07 27.4999999,-1.04166247e-07 Z"/>
    <path fill="#616365" d="M59.6093751,45.6640626 C59.8697918,46.2890626 60.1367189,46.8619793 60.4101564,47.3828126 C60.6835939,47.9036459 61.0091147,48.404948 61.3867189,48.8867188 C61.764323,49.3684897 62.0572918,49.7460939 62.2656251,50.0195314 C62.4739584,50.2929689 62.8125001,50.6770834 63.2812501,51.1718751 C63.7500001,51.6666668 64.0494793,51.9921876 64.1796876,52.1484376 C64.2057293,52.1744793 64.2578126,52.233073 64.3359376,52.3242189 C64.4140626,52.4153647 64.4726564,52.4804689 64.5117189,52.5195314 C64.5507814,52.5585939 64.6028647,52.623698 64.6679689,52.7148439 C64.733073,52.8059897 64.778646,52.8776043 64.8046876,52.9296876 L64.9023439,53.1250001 L64.9804689,53.3593751 L65.0000001,53.6132814 L64.9609376,53.8671876 C64.8828126,54.231771 64.7135418,54.5182293 64.4531251,54.7265626 C64.1927085,54.934896 63.9062501,55.0260418 63.5937501,55.0000001 C62.2916668,54.8177085 61.1718751,54.6093751 60.2343751,54.3750001 C56.2239584,53.3333335 52.6041667,51.6666668 49.3750001,49.3750001 C47.0312501,49.7916668 44.7395834,50.0000001 42.5,50.0000001 C35.4427083,50.0000001 29.296875,48.2812501 24.0625,44.8437501 C25.5729166,44.9479167 26.71875,45.0000001 27.5,45.0000001 C31.6927083,45.0000001 35.7161458,44.4140626 39.5703125,43.2421876 C43.4244792,42.0703126 46.8619792,40.3906251 49.8828126,38.2031251 C53.1380209,35.8072917 55.6380209,33.046875 57.3828126,29.921875 C59.1276043,26.796875 60.0000001,23.4895833 60.0000001,20 C60.0000001,17.9947916 59.7005209,16.015625 59.1015626,14.0625 C62.4609376,15.9114583 65.1171876,18.2291666 67.0703126,21.015625 C69.0234376,23.8020833 70.0000001,26.796875 70.0000001,30 C70.0000001,33.125 69.075521,36.0481771 67.2265626,38.7695313 C65.3776043,41.4908855 62.8385418,43.7890626 59.6093751,45.6640626 Z"/>
  </g>
</svg>
