<svg data-name="Layer 1" xmlns="http://www.w3.org/2000/svg" viewBox="0 0 596.86 356" width="596.86px" height="356px"><title>Untitled-1</title><path fill="#fff" fill-rule="evenodd" opacity=".48" d="M596.86 356L337.44 94.91 253.08 356h343.78z"/><path fill="#fff" fill-rule="evenodd" opacity=".62" d="M337.44 94.91l-121.06 91.1 58.07 103.85 62.99-194.95z"/><path fill="#fff" fill-rule="evenodd" opacity=".65" d="M274.45 289.86L75.07 139.81l141.31 46.2 58.07 103.85z"/><path fill="#fff" fill-rule="evenodd" opacity=".47" d="M216.38 186.01l23.46-65.68 97.6-25.42-121.06 91.1z"/><path fill="#fff" fill-rule="evenodd" opacity=".44" d="M253.08 356l21.37-66.14L168.36 356h84.72z"/><path fill="#fff" fill-rule="evenodd" opacity=".52" d="M167.99 209.74l106.46 80.12-89.47 55.78-16.99-135.9z"/><path fill="#fff" fill-rule="evenodd" opacity=".46" d="M184.97 345.64l-16.98-135.9-92.92-69.93 109.9 205.83z"/><path fill="#fff" fill-rule="evenodd" opacity=".65" d="M64.72 356h103.64l16.62-10.36L75.07 139.81 64.72 356z"/><path fill="#fff" fill-rule="evenodd" opacity=".57" d="M0 356h64.72l10.35-216.19L0 201.98V356z"/><path fill="#fff" fill-rule="evenodd" opacity=".37" d="M563.6 237.57L456.62 131.63l35.66-26.83 71.32 132.77z"/><path fill="#fff" fill-rule="evenodd" opacity=".61" d="M398.39 107.76l28.92-17.39-40.16-22.13 11.24 39.52z"/><path fill="#fff" fill-rule="evenodd" opacity=".42" d="M254.85 95.61l16.9-26.83h-33.79l16.89 26.83z"/><path fill="#fff" fill-rule="evenodd" opacity=".34" d="M200.43 133.04L130.02 70.9l-19.69 55.08 90.1 7.06z"/><path fill="#fff" fill-rule="evenodd" opacity=".6" d="M216.38 13.42l-31.4 12.71L179.78 0l36.6 13.42z"/><path fill="#fff" fill-rule="evenodd" opacity=".53" d="M97.92 64.54L65.29 71.6l16.32-32.48 16.31 25.42z"/></svg>
