<svg xmlns="http://www.w3.org/2000/svg" viewBox="0 0 1003 477" width="1003px" height="477px"><title>factured-texture_reversed</title><g data-name="Layer 2"><g data-name="Layer 1" fill="#fff"><path style="isolation:isolate" opacity=".43" d="M85.9 184l441.7 142.7L406.14 0H271.07L85.9 184z"/><path style="isolation:isolate" opacity=".57" d="M85.9 184l82.5 109.6 94-52.6-176.5-57z"/><path style="isolation:isolate" opacity=".43" d="M262.4 241L126.6 421.5l41.8-127.9 94-52.6z"/><path style="isolation:isolate" opacity=".32" d="M168.4 293.6l-59.5-21.2-23-88.4 82.5 109.6z"/><path style="isolation:isolate" opacity=".23" d="M262.4 241l173.3 56-53.2 136.7L262.4 241z"/><path style="isolation:isolate" opacity=".32" d="M189.8 337.4l72.6-96.4 50.5 81-123.1 15.4z"/><path style="isolation:isolate" opacity=".35" d="M312.9 322l-123.1 15.4-63.3 84.1L312.9 322z"/><path style="isolation:isolate" opacity=".43" d="M126.5 421.5l256 12.2L312.9 322l-186.4 99.5z"/><path style="isolation:isolate" opacity=".47" d="M172.48 477H382.5v-43.3l-256-12.2 45.98 55.5z"/><path style="isolation:isolate" opacity=".4" d="M382.5 433.7l145.1-107-91.9-29.7-53.2 136.7z"/><path style="isolation:isolate" opacity=".54" d="M382.5 477h9.98L527.6 326.7l-145.1 107V477z"/><path style="isolation:isolate" opacity=".36" d="M527.6 326.7l56-278.6L513.18 0H406.14L527.6 326.7z"/><path style="isolation:isolate" opacity=".5" d="M597.58 0h-84.37l70.39 48.1L597.58 0z"/><path style="isolation:isolate" opacity=".36" d="M583.6 48.1L697 27.7 679.28 0h-81.7L583.6 48.1z"/><path style="isolation:isolate" opacity=".43" d="M583.6 48.1l25.7 108.7-49.8 11.2 24.1-119.9z"/><path style="isolation:isolate" opacity=".2" d="M609.3 156.8v102L559.5 168l49.8-11.2z"/><path style="isolation:isolate" opacity=".25" d="M609.3 258.8l-81.7 67.9L559.5 168l49.8 90.8z"/><path style="isolation:isolate" opacity=".23" d="M527.6 326.7L392.43 477h188.06L527.6 326.7z"/><path style="isolation:isolate" opacity=".2" d="M527.6 326.7h243.6l-161.9-67.9-81.7 67.9z"/><path style="isolation:isolate" opacity=".43" d="M609.3 156.8l161.9 169.9-161.9-67.9v-102z"/><path style="isolation:isolate" opacity=".23" d="M609.3 156.8L697 27.7 583.6 48.1l25.7 108.7z"/><path style="isolation:isolate" opacity=".22" d="M749.98 0h-70.7L697 27.7 749.98 0z"/><path style="isolation:isolate" opacity=".33" d="M697 27.7l74.2 299-161.9-169.9L697 27.7z"/><path style="isolation:isolate" opacity=".43" d="M580.49 477h16.76L771.2 326.7H527.6L580.49 477zM750 0l-53 27.7 74.2 299L796.62 0H750z"/><path style="isolation:isolate" opacity=".23" d="M771.2 326.7h129.1L789.5 92.3l-18.3 234.4z"/><path style="isolation:isolate" opacity=".47" d="M597.25 477h8.88L900.3 326.7H771.2L597.25 477z"/><path style="isolation:isolate" opacity=".43" d="M1003 163.3l-213.5-71 110.8 234.4 102.7-69.57V163.3z"/><path style="isolation:isolate" opacity=".35" d="M1003 257.13L900.3 326.7l102.7 25.34v-94.91z"/><path style="isolation:isolate" opacity=".36" d="M789.5 92.3l187.6 62.4L823.77 0h-27.13l-7.14 92.3z"/><path style="isolation:isolate" opacity=".43" d="M1003 0h-51.49L887.9 64.6l89.2 90.1 25.9-92.31V0z"/><path style="isolation:isolate" opacity=".25" d="M907.57 0H823.8l64.1 64.6L907.57 0z"/><path style="isolation:isolate" opacity=".14" d="M907.57 0L887.9 64.6 951.51 0h-43.94z"/><path style="isolation:isolate" opacity=".5" d="M1003 163.31V62.39l-25.9 92.31 25.9 8.61z"/><path style="isolation:isolate" opacity=".43" d="M900.3 326.7l5.58 150.3h75.04L900.3 326.7z"/><path style="isolation:isolate" opacity=".5" d="M1003 459.08L990.5 348.9l-90.2-22.2L980.92 477H1003v-17.92z"/><path style="isolation:isolate" opacity=".25" d="M1003 351.99l-12.5-3.09 12.5 110.18V351.99z"/><path style="isolation:isolate" opacity=".33" d="M900.3 326.7L606.13 477h299.75l-5.58-150.3z"/><path style="isolation:isolate" opacity=".37" d="M176.52 0L94.9 43.9l24.2 32.2L194.49 0h-17.97z"/><path style="isolation:isolate" opacity=".61" d="M97.5 128.8l-15.7-26.1-20 36.3 35.7-10.2z"/><path style="isolation:isolate" opacity=".39" d="M86.5 258.8l-24.2-15.3v30.6l24.2-15.3z"/><path style="isolation:isolate" opacity=".38" d="M120.4 308l-56.2 63.8 49.8 17.8 6.4-81.6z"/><path style="isolation:isolate" opacity=".48" d="M12.1 293.6L23.7 322 0 326.7l12.1-33.1zm46.3 107.2l6.4 29.5-29.4-14.7 23-14.8z"/></g></g></svg>
