<svg id="Layer_1" xmlns="http://www.w3.org/2000/svg" viewBox="0 0 1003 477" width="1003px" height="477px"><style>.st0{opacity:.43;fill:#fff;enable-background:new}.st1{opacity:.57}.st1,.st2,.st3,.st4,.st5,.st6,.st7{fill:#fff;enable-background:new}.st2{opacity:.32}.st3{opacity:.23}.st4{opacity:.35}.st5{opacity:.47}.st6{opacity:.4}.st7{opacity:.54}.st10,.st11,.st12,.st13,.st8,.st9{fill:#fff;enable-background:new}.st8{opacity:.36}.st9{opacity:.5}.st10{opacity:.2}.st11{opacity:.25}.st12{opacity:.22}.st13{opacity:.33}.st14{opacity:.14}.st14,.st15,.st16,.st17,.st18,.st19{fill:#fff;enable-background:new}.st15{opacity:.37}.st16{opacity:.61}.st17{opacity:.39}.st18{opacity:.38}.st19{opacity:.48}</style><title>fractured texture copy</title><path class="st0" d="M917.1 293L475.4 150.3 596.9 477h135z"/><path id="Fill-3" class="st1" d="M917.1 293l-82.5-109.6-94 52.6z"/><path id="Fill-5" class="st0" d="M740.6 236L876.4 55.5l-41.8 127.9z"/><path id="Fill-7" class="st2" d="M834.6 183.4l59.5 21.2 23 88.4z"/><path id="Fill-9" class="st3" d="M740.6 236l-173.3-56 53.2-136.7z"/><path id="Fill-11" class="st2" d="M813.2 139.6L740.6 236l-50.5-81z"/><path id="Fill-13" class="st4" d="M690.1 155l123.1-15.4 63.3-84.1z"/><path id="Fill-15" class="st0" d="M876.5 55.5l-256-12.2L690.1 155z"/><path class="st5" d="M830.5 0h-210v43.3l256 12.2z"/><path id="Fill-19" class="st6" d="M620.5 43.3l-145.1 107 91.9 29.7z"/><path class="st7" d="M620.5 0h-10L475.4 150.3l145.1-107z"/><path class="st8" d="M475.4 150.3l-56 278.6 70.4 48.1h107.1z"/><path class="st9" d="M405.4 477h84.4l-70.4-48.1z"/><path class="st8" d="M419.4 428.9L306 449.3l17.7 27.7h81.7z"/><path id="Fill-29" class="st0" d="M419.4 428.9l-25.7-108.7 49.8-11.2z"/><path id="Fill-31" class="st10" d="M393.7 320.2v-102l49.8 90.8z"/><path id="Fill-33" class="st11" d="M393.7 218.2l81.7-67.9L443.5 309z"/><path class="st3" d="M475.4 150.3L610.6 0H422.5z"/><path id="Fill-37" class="st10" d="M475.4 150.3H231.8l161.9 67.9z"/><path id="Fill-39" class="st0" d="M393.7 320.2L231.8 150.3l161.9 67.9z"/><path id="Fill-41" class="st3" d="M393.7 320.2L306 449.3l113.4-20.4z"/><path class="st12" d="M253 477h70.7L306 449.3z"/><path id="Fill-45" class="st13" d="M306 449.3l-74.2-299 161.9 169.9z"/><path class="st0" d="M422.5 0h-16.7l-174 150.3h243.6zM253 477l53-27.7-74.2-299L206.4 477z"/><path id="Fill-51" class="st3" d="M231.8 150.3H102.7l110.8 234.4z"/><path class="st5" d="M405.8 0h-8.9L102.7 150.3h129.1z"/><path class="st0" d="M0 313.7l213.5 71-110.8-234.4L0 219.9z"/><path class="st4" d="M0 219.9l102.7-69.6L0 125z"/><path class="st8" d="M213.5 384.7L25.9 322.3 179.2 477h27.2z"/><path class="st0" d="M0 477h51.5l63.6-64.6-89.2-90.1L0 414.6z"/><path class="st11" d="M95.4 477h83.8l-64.1-64.6z"/><path class="st14" d="M95.4 477l19.7-64.6L51.5 477z"/><path class="st9" d="M0 313.7v100.9l25.9-92.3z"/><path class="st0" d="M102.7 150.3L97.1 0h-75z"/><path class="st9" d="M0 17.9l12.5 110.2 90.2 22.2L22.1 0H0z"/><path class="st11" d="M0 125l12.5 3.1L0 17.9z"/><path class="st13" d="M102.7 150.3L396.9 0H97.1z"/><path class="st15" d="M826.5 477l81.6-43.9-24.2-32.2-75.4 76.1z"/><path id="Fill-84" class="st16" d="M905.5 348.2l15.7 26.1 20-36.3z"/><path id="Fill-86" class="st17" d="M916.5 218.2l24.2 15.3v-30.6z"/><path id="Fill-88" class="st18" d="M882.6 169l56.2-63.8L889 87.4z"/><path id="Fill-90" class="st19" d="M990.9 183.4L979.3 155l23.7-4.7z"/><path id="Fill-93" class="st19" d="M944.6 76.2l-6.4-29.5 29.4 14.7z"/></svg>
