<svg data-name="Layer 1" xmlns="http://www.w3.org/2000/svg" viewBox="0 0 583.94 119.96" width="291" height="60">
    <path d="M205.35 25.97h-.16l-17 41.38h-21l.62-41.38h-.17l-8.79 41.38h-19.4l12.3-57.89h31.83l-1 34.48h.16L196.4 9.46h31.84l-12.31 57.89h-19.4zM280.24 38.96h-5.22l2.53-11.86h5.21l1.38-6.5 20.84-6.73-2.86 13.23h8.74l-2.52 11.86h-8.74l-2.62 12.35c-.65 3.05.09 4.09 2.41 4.09a18.36 18.36 0 0 0 4.84-.48l-2.53 11.87a70.21 70.21 0 0 1-13.28 1.76c-7.54 0-14-2.32-12.11-11.3zM317.76 9.46h19.41l-4.91 23.09h.16c3.73-4.33 7.51-6.66 14.08-6.66 8.1 0 13.11 4 10.84 14.68l-5.69 26.78h-19.41l5.3-24.94c.63-3-.21-4.65-2.54-4.65-2.16 0-4.12 1.28-4.8 4.49l-5.34 25.1h-19.4zM439.19 62.7a18.26 18.26 0 0 1-13.75 5.85c-9.79 0-15.16-7.54-12.13-21.81 3.24-15.23 12.21-20.85 20.95-20.85 4.49 0 8.47 1.29 10.91 4.9l4.53-21.33h19.42l-12.31 57.89h-18.29zm3.5-21.73c0-2.33-1.22-3.69-3.39-3.69-4 0-5.32 3.53-6.68 9.94-1.16 5.46-1.64 10 2.53 10a4.45 4.45 0 0 0 4.07-2.17c.82-1.2 1.57-3.61 2.46-7.78a31.17 31.17 0 0 0 1.01-6.3zM471.52 27.1h19.4l-8.55 40.25h-19.41zm3.75-17.64h19.4l-2.62 12.34h-19.41zM140.03 103.62l5.86-27.56h7.62l-4.72 22.2h12.49l-1.16 5.36zM170.86 91.62c.66-2.19 1.65-4 4.2-4.12a2.17 2.17 0 0 1 2.26 1.2 4.51 4.51 0 0 1 .26 2.89zm12.77 3.88c1.52-7.15 0-11.63-7.8-11.63-5.76 0-11 3.44-12.32 9.54-1.59 7.51.76 10.78 8.42 10.78a13.13 13.13 0 0 0 6.39-1.49 9.26 9.26 0 0 0 4.76-5.34h-6.72a4.06 4.06 0 0 1-4.14 2.75c-2.71 0-2.91-2.14-2.34-4.62zM199.89 98.26l1.27-5.95h5a2.37 2.37 0 0 1 2.14 3.09 3.86 3.86 0 0 1-3.94 2.86zm4.19 5.36c.26 0 10.37.53 12.08-7.5.83-3.93-1.64-6.27-5.19-6.76v-.08c3.21-.57 6.51-2.64 7.22-6 1-4.84-2.82-7.17-8-7.21h-13.21l-5.86 27.55zm-.61-22.19h4.17c1.8 0 2.91 1.1 2.58 2.64-.44 2.08-2 2.87-4 2.87h-3.91zM226.98 94.03c.57-2.72 1.91-6 4.95-6s3 3.25 2.42 6-1.91 6-5 6-2.95-3.28-2.37-6zm5.84-10.16c-6 0-11.78 3.09-13.28 10.16s3 10.16 9 10.16 11.78-3.09 13.28-10.16-3.02-10.16-9-10.16zM254.53 86.54a9.14 9.14 0 0 1 6.58-2.67c4.12 0 6.61 2.67 5.71 6.9l-2.7 12.85h-7.25l2.4-11.28c.32-1.88.29-3.9-2-3.9-3.6 0-4 3.94-4 4.17l-2.34 11h-7.25l3-14.26a48 48 0 0 0 .82-4.92h7.36zM268.92 103.62l5.86-27.56h7.25l-2.22 10.48a9.14 9.14 0 0 1 6.58-2.67c4.12 0 6.6 2.67 5.7 6.9l-2.73 12.85h-7.24l2.4-11.28c.32-1.88.29-3.9-2-3.9-3.59 0-4 3.94-4 4.17l-2.35 11zM302.53 91.62c.66-2.19 1.65-4 4.2-4.12a2.17 2.17 0 0 1 2.26 1.23 4.51 4.51 0 0 1 .26 2.89zm12.77 3.88c1.52-7.15 0-11.63-7.8-11.63-5.76 0-11 3.44-12.32 9.54-1.59 7.51.76 10.78 8.42 10.78a13.11 13.11 0 0 0 6.39-1.48 9.26 9.26 0 0 0 4.76-5.34h-6.72a4.06 4.06 0 0 1-4.14 2.75c-2.71 0-2.9-2.14-2.34-4.62zM330.97 101.53a9.13 9.13 0 0 1-6.58 2.66c-4.12 0-6.61-2.66-5.71-6.9l2.73-12.85h7.25l-2.39 11.26c-.33 1.88-.3 3.9 2 3.9 3.6 0 4-3.94 4-4.17l2.34-11h7.25l-3 14.27a47.3 47.3 0 0 0-.82 4.91h-7.36zM353.17 88.05h.08c1.51-3.18 4.11-4.25 7.3-4.17l-1.31 6.15h-1.52c-3.79 0-5.56 2.29-6.23 5.95l-1.63 7.68h-7.25l3-14.25a47.73 47.73 0 0 0 .82-4.93h7.37zM369.38 103.62l5.86-27.56h3.82l-2.52 11.83h13.1l2.48-11.83h3.82l-5.82 27.56h-3.82l2.65-12.44h-13.1l-2.64 12.44zM401.51 92.21c.67-3.13 3-5.69 6-5.69 3.51 0 4.44 2.48 3.68 5.69zm13 2.52l.38-1.8c1.13-5.3-.81-8.93-6.51-9-6.07 0-9.9 4.69-11.09 10.3s.32 10 6.46 10c4.59 0 8.41-2.18 9.91-6.53h-3.84c-1 2.79-2.66 3.89-5.49 3.89-3.7 0-4.34-3.47-3.35-6.83zM430.58 94.31c-.68 3.55-2.27 7.25-6.55 7.25-2.13 0-3.52-1.18-3-3.55.59-2.78 3.7-3.59 5.94-3.7zm-2.75-2.52c-4.54 0-9.65 1.56-10.79 7-.8 3.74 2.2 5.46 5.52 5.46a7.79 7.79 0 0 0 6.68-3.44h.08c-.15.88-.25 1.72-.36 2.6-.06.46.63.26 1 .26h2.45c.22-1.6.53-3.2.7-4l1.95-9.17c1.14-5.34-2.5-6.52-6.44-6.52-3.78 0-7.38 1.48-8.46 5.69h3.82a4.22 4.22 0 0 1 4.24-3.06c3.85 0 3.63 1.95 2.92 5.27zM438.52 103.62l5.86-27.56h3.63l-5.89 27.56zM453.12 84.46l.86-4.09 3.87-1.14-1.11 5.23 4.46-.12-.58 2.71h-4.42l-2.63 12.37c-.29 1.37.64 2 1.94 2a8.86 8.86 0 0 0 2-.23l-.59 2.79c-.85 0-1.69.23-2.53.23a12.68 12.68 0 0 1-2.4-.19 2.65 2.65 0 0 1-1.87-1.26c-.46-.92-.63-1-.09-3.55l2.59-12.18h-3.29l.58-2.71zM461.39 103.62l5.86-27.56h3.63l-2.33 11h.08a8.58 8.58 0 0 1 6.89-3.13c5 0 5.86 3.32 5.13 6.75l-2.76 13h-3.63l2.41-11.34c.71-3.35.3-5.53-3.08-5.61a6.62 6.62 0 0 0-4.92 2.68 10.73 10.73 0 0 0-1.56 4.42l-2.09 9.85zM497.91 90.61c.32-2.41-.47-4.09-3.06-4.09-3.48 0-5.45 3-6.41 7.52s-.26 7.52 3.21 7.52c2.41 0 4.23-1.56 5-4.31h3.63a9.45 9.45 0 0 1-9.23 6.95c-6.14 0-7.66-4.36-6.46-10s5-10.3 11.08-10.3c4.05 0 6.56 2.55 5.87 6.72zM516.6 94.31c-.68 3.55-2.27 7.25-6.55 7.25-2.14 0-3.53-1.18-3-3.55.59-2.78 3.7-3.59 5.94-3.7zm-2.75-2.52c-4.54 0-9.65 1.56-10.79 7-.8 3.74 2.19 5.46 5.52 5.46a7.79 7.79 0 0 0 6.68-3.44h.08c-.15.88-.25 1.72-.36 2.6-.06.46.63.26 1 .26h2.45c.22-1.6.52-3.2.7-4l1.95-9.17c1.14-5.34-2.51-6.52-6.44-6.52s-7.38 1.48-8.46 5.69H510a4.21 4.21 0 0 1 4.23-3.06c3.86 0 3.64 1.95 2.93 5.27zM528.21 103.62h-3.63l4.08-19.16h3.62l-.78 3.7h.07a6.86 6.86 0 0 1 6.46-4h1.25l-.73 3.43a4.13 4.13 0 0 0-1.53-.19c-4.61.16-5.93 2.6-6.79 6.65zM542.74 92.21c.66-3.13 3-5.69 6-5.69 3.51 0 4.43 2.48 3.68 5.69zm13 2.52l.38-1.8c1.13-5.3-.81-8.93-6.52-9-6.07 0-9.89 4.69-11.08 10.3s.32 10 6.46 10c4.58 0 8.41-2.18 9.9-6.53h-3.81c-1 2.79-2.67 3.89-5.49 3.89-3.7 0-4.34-3.47-3.36-6.83zM390.12 40.88a47.83 47.83 0 0 1-1.37 9.19c-1.4 6.19-3.49 7.56-5.92 7.56-2.13 0-3.26-.91-3.26-4.44a40.6 40.6 0 0 1 1.38-8.61c1.21-5.06 3.08-7.45 5.86-7.45 2.01 0 3.31 1.02 3.31 3.75zM359.96 51.7c0 11 7.26 16.83 21.73 16.83 8.47 0 15.05-2.1 20.05-6.43 4.59-4 7.93-10.79 7.93-19.42 0-10.93-8.23-16.52-21.82-16.52-9.18 0-15.93 2.66-20.48 6.93-5.11 4.83-7.41 12.07-7.41 18.61zM245.78 42.32a11.48 11.48 0 0 1 1-3.46 4.55 4.55 0 0 1 4.65-2.74c2.21 0 3.56 1 3.64 3.17a13.37 13.37 0 0 1-.53 3zm-1.66 8.59h27.44a29.89 29.89 0 0 0 1.08-8.41c0-10.19-6.21-16.53-20.47-16.53-8.49 0-15.5 2.65-19.93 7.05s-7.12 12.38-7.12 18.8c0 5.31 1.9 10.16 5.23 12.65 3.74 2.79 8.17 4.09 16.56 4.09 4.66 0 11.08-1.15 14.5-2.76 5.31-2.52 8.49-6.83 9.2-11.45H252.7c-.83 2.83-2.14 4.18-4.85 4.18s-4.27-1.69-4.27-4.43a9.83 9.83 0 0 1 .54-3.19z" />
    <path d="M558.94 39.7h8.74l2.67-12.59h-8.74l2.81-13.23-20.83 6.73-1.38 6.5H537l-2.28 10.7v-.71c0-8.36-8.06-10.89-19.06-10.89-7.84 0-13.12 1.39-17 4a14.64 14.64 0 0 0-6.22 11c0 6.12 3.52 9.1 12.43 10.68l3.06.55c5.57 1 7 1.65 7 3.61 0 2.43-1.84 3.53-4.39 3.53-2.74 0-4-1.18-4-3.41a10.16 10.16 0 0 1 .28-2.26h-17a11.49 11.49 0 0 0-.63 3.56c0 6.77 6.2 11.16 20 11.16 6.62 0 13.2-1.44 17.22-4a14 14 0 0 0 6.59-12c0-6.5-4.45-9.21-13.39-10.68l-.91-.15c-7.16-1.18-8.22-1.52-8.22-3.61 0-1.26 1.22-2.94 4.09-2.94 2.66 0 4 .87 3.58 4.45h21.39l-3.73 17.56c-1.91 9 4.57 11.3 12.11 11.3a70.21 70.21 0 0 0 13.28-1.76l2.53-11.87a18.36 18.36 0 0 1-4.84.48c-2.32 0-3.06-1-2.41-4.09z" fill-rule="evenodd" />
    <path d="M119.91 57.76a60.24 60.24 0 0 0-8.51-28.66L75.94 55.23zM111.05 28.53A59.63 59.63 0 0 0 89.53 7.79l-18 40.2zM113.23 87.56a59.69 59.69 0 0 0 6.71-29.13L76.21 63.7z" fill="#b1005d" fill-rule="evenodd" />
    <path d="M88.94 7.47A59.62 59.62 0 0 0 60 0l4.12 43.85z" fill="#b1005d" />
    <path d="M101.12 103.7a59.87 59.87 0 0 0 11.25-14.44c.2-.36.39-.72.58-1.08l-28-11.69a88.71 88.71 0 0 1 16.17 27.21zM8.24 29.7l-.61 1.07a59.71 59.71 0 0 0-6.4 17.15 88.41 88.41 0 0 1 31.67-.45zM57.34 64.7a103.49 103.49 0 0 0-56.76-13 60 60 0 0 0 97.62 54.56A103.52 103.52 0 0 0 57.34 64.7zM59.33 0a60.22 60.22 0 0 0-28.87 7.77l25.19 36.12zM29.88 8.1a59.51 59.51 0 0 0-21.29 21l39.7 19z" fill="#b1005d" fill-rule="evenodd" />
    <path d="M566.34 62.7c-.24 1.22.38 1.68 1.54 1.68 1 0 2.24-.29 2.5-1.5.18-.84-.44-1.19-1.13-1.33-1.36-.32-3.67-.64-3.26-2.58s2.27-2.58 3.89-2.58 2.78.66 2.43 2.34h-1.26c.16-1-.59-1.31-1.45-1.31s-2.08.31-2.3 1.34.47 1.05 1.18 1.29c1.48.51 3.65.51 3.19 2.7-.42 2-2.33 2.66-4.08 2.66s-3-.77-2.51-2.71zM582.56 57.4l-4.44 7.8h-1.13l-1.11-7.8-1.66 7.8h-1.2l1.84-8.66h2.15l1 7.14 4-7.14h2l-1.89 8.66h-1.2z" fill="#231f20" /></svg>
