<?xml version="1.0" encoding="UTF-8" standalone="no"?>
<svg width="37px" height="40px" viewBox="0 0 37 40" version="1.1" xmlns="http://www.w3.org/2000/svg" xmlns:xlink="http://www.w3.org/1999/xlink">
    <!-- Generator: Sketch 42 (36781) - http://www.bohemiancoding.com/sketch -->
    <title>Combined Shape</title>
    <desc>Created with Sketch.</desc>
    <defs></defs>
    <g id="Symbols" stroke="none" stroke-width="1" fill="none" fill-rule="evenodd">
        <g id="Classes-Block" transform="translate(0.000000, -3.000000)" fill="#D1D1D1">
            <g id="Group-2">
                <path d="M27.4113474,20.7714812 L32.0327532,20.7714812 L32.0327532,16.1841398 L27.4113474,16.1841398 L27.4113474,20.7714812 Z M27.4113474,25.7197748 L32.0327532,25.7197748 L32.0327532,21.8543377 L27.4113474,21.8543377 L27.4113474,25.7197748 Z M21.699044,20.7714812 L26.3204498,20.7714812 L26.3204498,16.1841398 L21.699044,16.1841398 L21.699044,20.7714812 Z M21.699044,25.7197748 L26.3204498,25.7197748 L26.3204498,21.8543377 L21.699044,21.8543377 L21.699044,25.7197748 Z M15.9867405,20.7714812 L20.6081464,20.7714812 L20.6081464,16.1841398 L15.9867405,16.1841398 L15.9867405,20.7714812 Z M20.6081464,25.7197748 L19.1863432,25.7197748 L19.1863432,26.4416791 L15.9867405,26.4416791 L15.9867405,21.8543377 L20.6081464,21.8543377 L20.6081464,25.7197748 Z M15.9867405,32.1118771 L19.1863432,32.1118771 L19.1863432,27.5245357 L15.9867405,27.5245357 L15.9867405,32.1118771 Z M15.9867405,37.7820751 L19.1863432,37.7820751 L19.1863432,33.1947337 L15.9867405,33.1947337 L15.9867405,37.7820751 Z M10.2744371,20.7714812 L14.895843,20.7714812 L14.895843,16.1841398 L10.2744371,16.1841398 L10.2744371,20.7714812 Z M10.2744371,26.4416791 L14.895843,26.4416791 L14.895843,21.8543377 L10.2744371,21.8543377 L10.2744371,26.4416791 Z M10.2744371,32.1118771 L14.895843,32.1118771 L14.895843,27.5245357 L10.2744371,27.5245357 L10.2744371,32.1118771 Z M10.2744371,37.7820751 L14.895843,37.7820751 L14.895843,33.1947337 L10.2744371,33.1947337 L10.2744371,37.7820751 Z M4.56177009,20.7714812 L9.18353954,20.7714812 L9.18353954,16.1841398 L4.56177009,16.1841398 L4.56177009,20.7714812 Z M4.56177009,26.4416791 L9.18353954,26.4416791 L9.18353954,21.8543377 L4.56177009,21.8543377 L4.56177009,26.4416791 Z M4.56177009,32.1118771 L9.18353954,32.1118771 L9.18353954,27.5245357 L4.56177009,27.5245357 L4.56177009,32.1118771 Z M4.56177009,37.7820751 L9.18353954,37.7820751 L9.18353954,33.1947337 L4.56177009,33.1947337 L4.56177009,37.7820751 Z M29.4705984,6.67485427 L36.5948869,6.67485427 L36.5948869,27.0935588 L36.5865234,27.1014998 C36.5588873,27.3884567 36.4359795,27.6642242 36.2217999,27.8768251 L21.3586839,42.630024 C21.1154137,42.871862 20.7899626,43 20.4586934,43 L4.76063633e-13,43 L4.76063633e-13,6.67485427 L7.12392489,6.67485427 L7.12392489,10.882113 C7.12392489,12.2775542 8.26354924,13.4087784 9.6693526,13.4087784 C11.075156,13.4087784 12.2147803,12.2775542 12.2147803,10.882113 L12.2147803,6.67485427 L24.379743,6.67485427 L24.379743,10.882113 C24.379743,12.2775542 25.5193673,13.4087784 26.9251707,13.4087784 C28.330974,13.4087784 29.4705984,12.2775542 29.4705984,10.882113 L29.4705984,6.67485427 Z M9.66927988,12.1454457 C8.9663782,12.1454457 8.39656602,11.5798336 8.39656602,10.882113 L8.39656602,4.26333267 C8.39656602,3.56525113 8.9663782,3 9.66927988,3 C10.3721816,3 10.9419937,3.56525113 10.9419937,4.26333267 L10.9419937,10.882113 C10.9419937,11.5798336 10.3721816,12.1454457 9.66927988,12.1454457 Z M26.9251343,12.1454457 C26.2222326,12.1454457 25.6524205,11.5798336 25.6524205,10.882113 L25.6524205,4.26333267 C25.6524205,3.56525113 26.2222326,3 26.9251343,3 C27.628036,3 28.1978482,3.56525113 28.1978482,4.26333267 L28.1978482,10.882113 C28.1978482,11.5798336 27.628036,12.1454457 26.9251343,12.1454457 Z M31.2568341,37.012128 L31.2568341,34.3288094 L34.0004415,31.6050642 L34.0004415,40.424931 L25.1154443,40.424931 L28.5535899,37.012128 L31.2568341,37.012128 Z" id="Combined-Shape"></path>
            </g>
        </g>
    </g>
</svg>