<?xml version="1.0" encoding="UTF-8" standalone="no"?>
<svg width="18px" height="18px" viewBox="0 0 18 18" version="1.1" xmlns="http://www.w3.org/2000/svg" xmlns:xlink="http://www.w3.org/1999/xlink">
    <!-- Generator: Sketch 42 (36781) - http://www.bohemiancoding.com/sketch -->
    <title>Fill 1</title>
    <desc>Created with Sketch.</desc>
    <defs></defs>
    <g id="Symbols" stroke="none" stroke-width="1" fill="none" fill-rule="evenodd">
        <g id="search-bar" transform="translate(-219.000000, -15.000000)" fill="#00A9E0">
            <path d="M230.039189,26.0391887 C230.987166,25.0909417 231.461559,23.9493838 231.461559,22.6153225 C231.461559,21.2812612 230.987166,20.1399725 230.039189,19.1914563 C229.090672,18.2434785 227.949384,17.7690858 226.615322,17.7690858 C225.281261,17.7690858 224.139972,18.2434785 223.191725,19.1914563 C222.243209,20.1399725 221.769086,21.2812612 221.769086,22.6153225 C221.769086,23.9493838 222.243209,25.0909417 223.191725,26.0391887 C224.139972,26.9871664 225.281261,27.4615592 226.615322,27.4615592 C227.949384,27.4615592 229.090672,26.9871664 230.039189,26.0391887 M237.000269,31.6155917 C237.000269,31.9903674 236.862959,32.3150652 236.589147,32.5891468 C236.315065,32.8632284 235.990637,33 235.615592,33 C235.226008,33 234.90158,32.8632284 234.641767,32.5891468 L230.931435,28.8895836 C229.64072,29.7837143 228.201927,30.230645 226.615322,30.230645 C225.584151,30.230645 224.597942,30.0308723 223.656695,29.6305193 C222.715717,29.2304356 221.904511,28.6895417 221.222807,28.0078377 C220.541373,27.326403 220.000479,26.5151968 219.600395,25.5736807 C219.200042,24.6327031 219,23.646494 219,22.6153225 C219,21.584151 219.200042,20.5979418 219.600395,19.656695 C220.000479,18.7157174 220.541373,17.904242 221.222807,17.2228072 C221.904511,16.5413725 222.715717,16.0004786 223.656695,15.6003949 C224.597942,15.2000419 225.584151,15 226.615322,15 C227.646494,15 228.632703,15.2000419 229.57395,15.6003949 C230.515197,16.0004786 231.326403,16.5413725 232.007838,17.2228072 C232.689542,17.904242 233.230436,18.7157174 233.630519,19.656695 C234.030872,20.5979418 234.230914,21.584151 234.230914,22.6153225 C234.230914,24.2019265 233.783714,25.6407204 232.889584,26.9314347 L236.600185,30.6420366 C236.866728,30.9085796 237.000269,31.2330083 237.000269,31.6155917" id="Fill-1"></path>
        </g>
    </g>
</svg>