<svg width="248" height="72" viewBox="0 0 248 72" xmlns="http://www.w3.org/2000/svg">
    <g fill="none" fill-rule="evenodd">
        <path d="M8.54 32.536c0 5.593 0 6.202 3.746 6.202 5.95 0 6.61 0 7.603-.276 1.43-.5 2.312-1.994 2.643-3.434.33-1.274.716-1.274 1.267-1.274h.936c.66 0 .717.277.66.83l-.66 6.757c-.11 1.053-.77 1.053-1.156 1.053-.607 0-3.03-.33-12.34-.33-7.163 0-9.918.33-10.524.33-.66 0-.716-.388-.716-.72v-1.22c0-.663.276-.773 1.653-1.05 1.653-.277 1.983-.83 2.093-1.883.056-1.108.11-8.97.11-10.91v-7.697c-.054-7.033-.054-8.195-.11-9.912 0-1.384-.11-2.824-2.258-3.045C.22 5.845 0 5.567 0 5.125v-1.22c0-.553.11-.72.772-.72 1.267 0 3.746.223 4.848.223 3.194 0 6.115-.222 6.776-.222.66 0 .77.332.77.72v1.218c0 .665-.274.775-2.257 1.052-1.93.278-2.206.942-2.26 1.828-.11 1.384-.11 9.026-.11 10.91v13.622" fill="#064B8D" />
        <path d="M29.418 22.79c0 .387 0 .554 1.433.554.276 0 4.132-.11 7.88-.61 2.037-.277 2.258-.61 2.258-1.273 0-1.274-1.433-4.097-5.014-4.097-3.966 0-6.556 3.21-6.556 5.426zm1.928 2.88c-.937 0-2.754 0-2.975.387-.44.775-.44 3.045-.44 3.212 0 6.478 3.526 9.634 8.76 9.634 2.7 0 4.462-.775 6.225-1.77.22-.167 1.323-.943 1.543-.943.33 0 .33.444.33.554 0 .055-.22 3.046-.77 3.655-.607.664-4.353 2.602-8.43 2.602-5.84 0-12.175-3.987-12.175-13.18 0-6.478 3.03-15.34 12.892-15.34 4.02 0 5.784 1.552 6.72 2.77 1.654 2.104 2.04 4.596 2.04 6.092 0 2.38-.882 2.325-2.976 2.325H31.345zM71.635 24.562c-2.48-1.385-4.628-1.385-8.32-1.385-.936 0-1.377 0-1.708.332-.385.332-.385.72-.385 3.765 0 1.938 0 8.805.33 10.08.386 1.716 3.746 1.716 4.463 1.716 9.09 0 9.476-7.032 9.476-8.306 0-.775 0-4.042-3.855-6.202zm-10.413-6.258c0 1.33.385 1.662 1.652 1.662 3.637 0 4.85-.444 5.896-.887 3.03-1.33 4.297-3.82 4.297-6.535 0-2.104-.827-4.21-3.306-5.316-.715-.39-1.927-.72-5.84-.72-2.698 0-2.698.22-2.698 3.376v8.418zm-4.683.61c0-1.94 0-10.135-.222-11.243-.165-1.106-1.046-1.604-2.093-1.715-1.267-.11-1.543-.332-1.543-.83v-1.22c0-.553.166-.72.772-.72 1.1 0 5.07.223 6.28.223 1.433 0 7.824-.222 9.146-.222 2.864 0 6.005.61 7.823 3.433 1.102 1.66 1.487 3.49 1.487 5.15 0 4.873-3.69 7.92-6.886 8.804-.442.167-.882.277-.882.444 0 .276.165.276.937.387 1.982.222 3.91.886 5.563 1.994 1.488.996 3.746 3.044 3.746 7.585 0 6.812-6.06 11.408-12.23 11.408-2.37 0-5.95-.22-8.98-.22-2.04 0-5.125.22-6.062.22-.66 0-.716-.388-.716-.72v-1.22c0-.663.276-.773 1.708-1.05 1.928-.277 1.984-1.163 2.038-2.326.056-.775.11-6.258.11-10.41v-7.754zM121.59 14.313c.11 0 .715-.166.936-.166.992 0 .992 1.606.992 1.717v2.603c.054 1.384.054 1.55.496 1.55.33 0 1.322-1.107 1.762-1.606 2.04-2.27 2.48-2.49 3.03-2.823 1.267-.775 3.306-1.274 5.29-1.274 2.368 0 5.564.94 7.16 3.046 1.268 1.77 1.268 3.377 1.16 8.472v4.707c0 1.495 0 6.7.22 7.64.22.776.494 1.22 2.808 1.607.33.055.992.166.992.83v.776c0 .332-.165.83-.992.83-.386 0-1.432-.22-5.454-.22-4.24 0-4.738.22-5.18.22-.714 0-.77-.388-.77-.83v-.775c0-.61.165-.665 1.598-1.053 1.157-.277 1.928-.498 2.148-1.55.276-1.052.276-6.092.276-7.587v-2.935c0-3.488-.11-5.26-.77-6.534-.718-1.386-2.316-2.66-4.96-2.66-3.085 0-5.454 1.772-6.666 3.378-1.432 1.883-1.432 4.043-1.432 6.59v5.206c0 .83 0 3.987.11 4.596.22 1.052 1.487 1.385 2.534 1.55.66.056 1.378.222 1.378.998v.775c0 .277-.11.83-.827.83-.66 0-2.04-.22-5.51-.22-3.416 0-4.627.22-5.18.22-.22 0-.88 0-.88-.83v-.775c0-.5.22-.555 2.314-1.22 1.488-.442 1.708-.718 1.708-6.59V27.05c0-1.938-.055-7.42-1.268-8.528-.44-.388-1.927-.61-2.534-.61-.33 0-.88-.055-.88-.83v-.94c0-.5.274-.61.99-.72l5.4-1.11" fill="#064B8D" />
        <path d="M171.045 30.71c0 1.273 0 6.2.11 6.92.164 1.717.496 1.828 2.644 2.272.88.165 1.266.276 1.266.886v.774c0 .332-.22.83-.99.83-.938 0-1.764-.22-5.51-.22-3.582 0-4.352.22-5.125.22-.77 0-.824-.387-.824-.83v-.774c0-.61.165-.665 1.598-1.053 1.597-.388 2.148-.664 2.314-2.215.11-.942.11-5.593.11-6.922v-4.32c0-3.6-.387-4.762-1.048-5.704-.99-1.44-2.7-2.104-4.297-2.104-2.258 0-4.187 1.163-5.894 3.157-1.874 2.215-1.874 3.322-1.874 6.59v5.427c0 4.54.054 4.65.275 5.094.44.776 2.204.997 2.37 1.052.66.056 1.378.222 1.378.998v.774c0 .277-.166.83-.882.83-.827 0-2.15-.22-5.62-.22-3.525 0-4.352.22-5.233.22-.66 0-.717-.387-.717-.83v-.774c0-.61.33-.665 2.314-1.108 1.267-.333 1.654-.886 1.654-2.77l.054-18.44c-.054-10.134-.054-11.74-.165-12.57-.11-.942-.662-1.606-2.864-1.994-.994-.166-.994-.388-.994-.997v-.72c0-.444.056-.665 1.047-.776 2.04-.22 6.06-.94 6.722-.94.496 0 .826.164.826 1.272 0 6.645-.385 14.84-.385 17.665 0 .61.165.776.386.776.166 0 .22-.055.827-.664.826-.83 2.645-3.378 4.407-4.263 1.433-.72 2.59-.777 3.636-.777 3.69 0 5.95 1.385 7.107 2.77 1.433 1.66 1.378 3.598 1.378 8.14v5.316M180.75 22.79c0 .387 0 .554 1.43.554.277 0 4.134-.11 7.88-.61 2.037-.277 2.258-.61 2.258-1.273 0-1.274-1.433-4.097-5.013-4.097-3.968 0-6.556 3.21-6.556 5.426zm1.927 2.88c-.937 0-2.755 0-2.976.387-.44.775-.44 3.045-.44 3.212 0 6.478 3.527 9.634 8.76 9.634 2.7 0 4.464-.775 6.225-1.77.22-.167 1.323-.943 1.543-.943.332 0 .332.444.332.554 0 .055-.22 3.046-.772 3.655-.607.664-4.352 2.602-8.43 2.602-5.84 0-12.174-3.987-12.174-13.18 0-6.478 3.03-15.34 12.89-15.34 4.023 0 5.785 1.552 6.722 2.77 1.653 2.104 2.038 4.596 2.038 6.092 0 2.38-.88 2.325-2.975 2.325h-10.743z" fill="#064B8D" />
        <g fill="#064B8D">
            <path d="M204.073 14.598c.88-.11 1.376-.167 1.376.775l-.056 2.713c-.11 2.437-.11 3.323-.11 6.092v6.645c0 4.098.11 5.538.827 6.81.938 1.608 3.14 1.995 4.187 1.995 1.984 0 5.29-1.385 6.722-3.71 1.156-1.94 1.156-4.763 1.156-8.14v-4.1c0-5.26-.166-5.315-3.085-5.758-.66-.11-.936-.166-.936-.61V16.15c0-.61.33-.665 1.542-.83l5.29-.72c.22 0 .825-.11 1.046-.11.66 0 .717.497.717.995 0 1.22-.222 6.48-.222 7.588v7.366c0 6.533.165 7.033.44 7.697.386.94 1.56.996 3.487 1.273.882.166.882.388.882 1.607 0 .332 0 .72-.772.885l-6.35 1.274c-.165.055-.55.166-.717.166-.66 0-.715-.664-.826-1.44l-.33-2.77c-.056-.663-.11-1.05-.44-1.05-.222 0-.332.11-1.214 1.107-2.368 2.547-3.91 3.987-7.988 3.987-1.928 0-5.014-.72-6.61-2.658-1.213-1.55-1.213-3.045-1.213-9.193V25.73c0-3.49 0-4.208-.055-5.205 0-.942-.166-2.492-2.644-2.547-1.267 0-1.323-.333-1.323-.942v-.886c0-.665.276-.72 1.267-.83l5.95-.72M236.33 18.316c0 1.385 0 1.55.277 1.55.11 0 2.92-3.488 3.47-4.097.662-.776 1.874-1.662 4.243-1.662 2.975 0 3.36.554 3.25 1.384l-.275 2.824c-.056.83-.165 1.274-.662 1.274-.165 0-1.046-.277-1.212-.332-.99-.22-1.87-.22-2.258-.22-6.115 0-6.115 5.314-6.115 10.52v2.99c0 5.87.056 6.37 2.866 6.812 2.203.332 2.203.553 2.203 1.052v.997c0 .552-.33.607-.662.607-1.046 0-2.258-.22-6.005-.22-4.684 0-6.02.22-6.572.22-.165 0-.882 0-.882-.775v-.83c0-.555.842-.61 2.66-1.107 1.268-.333 1.653-.83 1.818-1.44.11-.665.166-5.04.166-5.87v-6.37c0-1.605-.11-6.312-1.212-7.31-.495-.33-1.93-.552-2.534-.608-.277 0-.882-.055-.882-.83v-.942c0-.498.276-.553.993-.664l5.344-1.107c.22-.055.934-.166 1.375-.166.66 0 .605.61.605 1.274v3.046" />
        </g>
        <path d="M99.567 67.33c-.658.342-2.036.684-3.775.684-4.03 0-7.042-2.56-7.042-7.293 0-4.518 3.033-7.545 7.467-7.545 1.76 0 2.905.383 3.393.64l-.466 1.513c-.68-.34-1.677-.596-2.864-.596-3.35 0-5.578 2.153-5.578 5.926 0 3.54 2.014 5.778 5.47 5.778 1.147 0 2.292-.235 3.034-.597l.36 1.49M101.348 52.642h1.865v6.438h.044c.296-.532.763-1.023 1.335-1.32.552-.343 1.21-.534 1.91-.534 1.378 0 3.584.853 3.584 4.413v6.138h-1.867V61.85c0-1.682-.616-3.068-2.376-3.068-1.21 0-2.142.853-2.503 1.876-.105.256-.127.534-.127.896v6.224h-1.865V52.642M112.693 67.778h1.865V57.46h-1.865v10.318zm.89-12.216c-.7 0-1.167-.553-1.167-1.215 0-.66.488-1.193 1.21-1.193.72 0 1.187.532 1.187 1.193 0 .662-.467 1.215-1.21 1.215h-.02zM117.23 67.778h1.866V52.642h-1.866M128.767 61.66c0-.256-.022-.554-.085-.81-.276-1.174-1.294-2.154-2.694-2.154-1.93 0-3.075 1.705-3.075 3.966 0 2.11 1.04 3.837 3.033 3.837 1.252 0 2.397-.853 2.736-2.24.063-.255.085-.51.085-.81v-1.79zm1.866-9.018v12.47c0 .918.02 1.963.084 2.666h-1.675l-.084-1.79h-.043c-.572 1.15-1.802 2.026-3.478 2.026-2.482 0-4.412-2.112-4.412-5.246-.02-3.453 2.12-5.542 4.603-5.542 1.59 0 2.65.746 3.095 1.556h.044v-6.14h1.866zM133.325 60.68c0-1.215-.02-2.26-.085-3.22h1.633l.085 2.025h.064c.466-1.385 1.612-2.26 2.863-2.26.19 0 .34.022.508.064v1.748c-.21-.022-.402-.043-.658-.043-1.313 0-2.247 1.002-2.502 2.387-.042.278-.064.576-.064.896v5.5h-1.866l.02-7.1M146.2 61.596c.022-1.172-.487-3.048-2.566-3.048-1.91 0-2.715 1.747-2.864 3.048h5.43zm-5.45 1.343c.042 2.537 1.633 3.58 3.5 3.58 1.335 0 2.162-.233 2.842-.512l.34 1.323c-.66.3-1.805.662-3.438.662-3.14 0-5.047-2.11-5.047-5.203 0-3.134 1.845-5.587 4.836-5.587 3.35 0 4.22 2.965 4.22 4.863 0 .382-.02.68-.063.895l-7.19-.02zM149.89 60.254c0-1.09-.022-1.94-.086-2.794h1.654l.106 1.684h.042c.51-.958 1.697-1.918 3.393-1.918 1.422 0 3.626.853 3.626 4.39v6.162h-1.866V61.83c0-1.662-.614-3.07-2.375-3.07-1.21 0-2.163.875-2.503 1.92-.084.234-.127.575-.127.874v6.224h-1.866v-7.524M162.868 53.025c-.49 1.792-1.402 4.093-1.973 5.075l-1.187.128c.445-1.258 1.018-3.454 1.25-4.99l1.91-.213M162.723 65.88c.57.342 1.548.726 2.48.726 1.337 0 1.974-.66 1.974-1.535 0-.895-.532-1.385-1.888-1.897-1.868-.682-2.737-1.683-2.737-2.92 0-1.663 1.356-3.027 3.542-3.027 1.04 0 1.95.277 2.502.64l-.445 1.342c-.403-.234-1.145-.597-2.1-.597-1.102 0-1.696.64-1.696 1.41 0 .872.594 1.257 1.93 1.768 1.76.66 2.693 1.556 2.693 3.113 0 1.834-1.422 3.114-3.82 3.114-1.123 0-2.163-.3-2.884-.726l.447-1.407M176.93 53.41v6.01h6.914v-6.01h1.867v14.368h-1.866V61.04h-6.914v6.738h-1.866v-14.37h1.866M192.685 66.606c1.782 0 3.117-1.684 3.117-4.03 0-1.747-.87-3.944-3.075-3.944-2.184 0-3.138 2.047-3.138 4.01 0 2.26 1.27 3.964 3.074 3.964h.02zm-.063 1.408c-2.757 0-4.92-2.048-4.92-5.31 0-3.453 2.268-5.478 5.09-5.478 2.948 0 4.94 2.153 4.94 5.286 0 3.837-2.65 5.502-5.09 5.502h-.02zM199.408 65.88c.57.342 1.547.726 2.48.726 1.335 0 1.973-.66 1.973-1.535 0-.895-.53-1.385-1.887-1.897-1.866-.682-2.736-1.683-2.736-2.92 0-1.663 1.357-3.027 3.543-3.027 1.038 0 1.95.277 2.502.64l-.445 1.342c-.403-.234-1.146-.597-2.1-.597-1.103 0-1.697.64-1.697 1.41 0 .872.594 1.257 1.93 1.768 1.76.66 2.694 1.556 2.694 3.113 0 1.834-1.422 3.114-3.818 3.114-1.125 0-2.164-.3-2.885-.726l.448-1.407M209.5 63.577c0 .258.022.534.086.77.318 1.3 1.463 2.195 2.778 2.195 1.972 0 3.118-1.62 3.118-3.987 0-2.068-1.06-3.837-3.032-3.837-1.274 0-2.483.895-2.843 2.303-.043.257-.106.534-.106.768v1.79zm-1.866-2.748c0-1.324-.022-2.39-.084-3.37h1.674l.108 1.77h.04c.744-1.28 1.974-2.004 3.628-2.004 2.503 0 4.37 2.11 4.37 5.244 0 3.71-2.27 5.544-4.667 5.544-1.378 0-2.544-.598-3.16-1.62h-.042V72h-1.866V60.83zM219.275 67.778h1.867V57.46h-1.867v10.318zm.89-12.216c-.698 0-1.165-.553-1.165-1.215 0-.66.487-1.193 1.208-1.193.72 0 1.19.532 1.19 1.193 0 .662-.47 1.215-1.21 1.215h-.022zM226.06 54.987v2.473h2.673v1.43h-2.672v5.562c0 1.28.362 2.005 1.4 2.005.51 0 .807-.043 1.082-.13l.086 1.43c-.36.128-.934.257-1.655.257-.87 0-1.57-.3-2.015-.79-.51-.575-.72-1.493-.72-2.708V58.89h-1.59v-1.43h1.59v-1.898l1.823-.575M235.817 62.512c-2.037-.042-4.35.32-4.35 2.325 0 1.236.806 1.79 1.74 1.79 1.357 0 2.227-.852 2.524-1.726.065-.192.087-.405.087-.597v-1.79zm1.823 2.793c0 .896.042 1.77.148 2.473h-1.676l-.17-1.3h-.063c-.552.81-1.676 1.536-3.138 1.536-2.08 0-3.14-1.472-3.14-2.965 0-2.495 2.206-3.858 6.172-3.838V61c0-.854-.235-2.41-2.334-2.39-.975 0-1.972.28-2.693.77l-.424-1.26c.848-.532 2.1-.894 3.393-.894 3.16 0 3.924 2.153 3.924 4.22v3.86zM240.204 67.778h1.867V52.642h-1.866" fill="#DC3B41" />
        <path d="M6.6 58.654l.404-3.075c.076-.54.202-1.378.303-1.927H7.28c-.26.575-.58 1.25-.88 1.833L4.71 58.62h-.53l-.42-3.067c-.084-.658-.143-1.317-.177-1.9h-.025c-.117.524-.293 1.386-.428 1.926l-.773 3.074h-.655l1.47-5.694h.89l.446 3.27c.06.48.118.996.134 1.427h.026c.176-.43.42-.937.664-1.41L7.08 52.96h.915l-.722 5.694H6.6M11.33 55.536c0-.33-.253-.514-.623-.514-.663 0-1.16.65-1.328 1.292 1.092.016 1.95-.135 1.95-.77v-.008zm.15 2.89c-.302.168-.798.32-1.344.32-1.076 0-1.547-.743-1.547-1.647 0-1.233.907-2.628 2.218-2.628.773 0 1.193.465 1.193 1.056 0 1.074-1.2 1.352-2.704 1.327-.034.177-.01.557.083.776.16.373.487.55.907.55.48 0 .84-.143 1.093-.278l.1.523zM14.318 53.585l-.184.98h.974l-.108.55h-.975l-.37 1.993c-.05.228-.084.44-.084.65 0 .245.12.398.388.398.125 0 .235-.01.327-.034l-.033.548c-.126.05-.336.077-.538.077-.614 0-.857-.372-.857-.794 0-.238.034-.473.092-.77l.394-2.07h-.58l.1-.547h.58l.144-.753.73-.228M15.318 58.654l1.134-5.998h.697l-.505 2.627h.017c.345-.498.84-.81 1.454-.81.462 0 1.008.278 1.008 1.097 0 .212-.025.482-.067.684l-.454 2.4h-.697l.453-2.366c.024-.143.05-.337.05-.565 0-.372-.176-.668-.63-.668-.538 0-1.22.634-1.387 1.547l-.378 2.052h-.697M21.694 58.19c.823 0 1.446-1.065 1.446-2.02 0-.473-.22-1.14-.95-1.14-.874 0-1.454 1.072-1.454 2.01 0 .668.37 1.15.95 1.15h.008zm-.084.557c-1.017 0-1.588-.76-1.588-1.682 0-1.35.932-2.593 2.252-2.593 1.1 0 1.597.836 1.597 1.698 0 1.267-.89 2.577-2.25 2.577h-.01zM27.7 55.207c-.134-.1-.37-.177-.664-.177-.975 0-1.73 1.047-1.73 2.137 0 .49.167 1.005.764 1.005.538 0 1.185-.616 1.36-1.537l.27-1.428zm1.177-2.55l-.9 4.705c-.075.42-.143.894-.168 1.292h-.64l.11-.81h-.017c-.37.58-.882.903-1.47.903-.782 0-1.21-.65-1.21-1.487 0-1.453 1.075-2.788 2.512-2.788.26 0 .547.06.723.144l.36-1.96h.7zM30.43 53.813c-.245 0-.413-.194-.413-.456.01-.28.22-.498.48-.498s.436.193.436.455c-.008.296-.218.498-.496.498h-.008zm-1.303 4.84l.773-4.087h.697l-.773 4.088h-.697zM31.26 57.953c.185.118.538.253.874.253.47 0 .773-.304.773-.667 0-.322-.143-.525-.57-.762-.472-.26-.732-.617-.732-1.038 0-.718.613-1.268 1.48-1.268.36 0 .688.1.84.203l-.194.532c-.142-.084-.395-.185-.697-.185-.43 0-.73.27-.73.616 0 .296.192.482.562.684.454.262.756.617.756 1.08 0 .863-.687 1.345-1.553 1.345-.437-.01-.824-.136-1.01-.28l.203-.514M36.317 53.585l-.184.98h.974l-.11.55h-.973l-.37 1.993c-.05.228-.084.44-.084.65 0 .245.118.398.386.398.126 0 .236-.01.328-.034l-.033.548c-.125.05-.336.077-.537.077-.614 0-.857-.372-.857-.794 0-.238.033-.473.092-.77l.395-2.07h-.58l.1-.547h.58l.144-.753.73-.228M40.81 52.96l-.452 2.4h2.605l.454-2.4h.697l-1.076 5.694h-.697l.496-2.678H40.24l-.505 2.678h-.696l1.074-5.694h.697M47.238 55.536c0-.33-.252-.514-.622-.514-.664 0-1.16.65-1.327 1.292 1.09.016 1.948-.135 1.948-.77v-.008zm.15 2.89c-.3.168-.797.32-1.343.32-1.076 0-1.547-.743-1.547-1.647 0-1.233.908-2.628 2.22-2.628.772 0 1.192.465 1.192 1.056 0 1.074-1.202 1.352-2.706 1.327-.034.177-.01.557.085.776.158.373.486.55.906.55.48 0 .84-.143 1.092-.278l.1.523zM51.58 55.09c-.1-.035-.243-.06-.478-.06-1.05 0-1.916 1.097-1.916 2.24 0 .454.16.902.69.902.587 0 1.276-.76 1.47-1.85l.235-1.233zm-.445 3.564c0-.245.042-.634.093-1.056h-.017c-.444.852-1.008 1.15-1.58 1.15-.722 0-1.167-.576-1.167-1.352 0-1.43 1.042-2.924 2.807-2.924.386 0 .815.068 1.092.153l-.412 2.137c-.134.71-.185 1.435-.168 1.892h-.647zM52.99 58.654l1.135-5.998h.697l-1.134 5.998h-.697M56.872 53.585l-.185.98h.975l-.11.55h-.974l-.37 1.993c-.05.228-.084.44-.084.65 0 .245.118.398.386.398.127 0 .236-.01.33-.034l-.035.548c-.126.05-.337.077-.538.077-.614 0-.858-.372-.858-.794 0-.238.033-.473.092-.77l.395-2.07h-.58l.1-.547h.58l.144-.753.732-.228M57.87 58.654l1.135-5.998h.697l-.504 2.627h.017c.345-.498.84-.81 1.454-.81.46 0 1.007.278 1.007 1.097 0 .212-.025.482-.067.684l-.454 2.4h-.697l.453-2.366c.025-.143.05-.337.05-.565 0-.372-.176-.668-.63-.668-.538 0-1.22.634-1.387 1.547l-.378 2.052h-.698M65.315 58.493c-.21.11-.63.254-1.177.254-1.05 0-1.563-.71-1.563-1.58 0-1.402 1.025-2.695 2.487-2.695.378 0 .723.11.85.186l-.203.55c-.16-.076-.387-.153-.69-.153-1.06 0-1.723 1.047-1.723 2.02 0 .666.345 1.097 1.01 1.097.42 0 .73-.126.94-.228l.068.55M69.272 55.09c-.102-.035-.244-.06-.48-.06-1.05 0-1.916 1.097-1.916 2.24 0 .454.16.902.69.902.588 0 1.277-.76 1.47-1.85l.236-1.233zm-.446 3.564c0-.245.042-.634.092-1.056H68.9c-.443.852-1.007 1.15-1.578 1.15-.723 0-1.168-.576-1.168-1.352 0-1.43 1.042-2.924 2.807-2.924.387 0 .816.068 1.093.153l-.41 2.137c-.136.71-.187 1.435-.17 1.892h-.647zM70.673 58.654l.496-2.636c.1-.532.16-1.072.2-1.452h.614c-.025.287-.06.566-.11.886h.026c.27-.557.697-.98 1.243-.98.068 0 .143.01.202.017l-.134.692c-.05-.01-.117-.017-.192-.017-.597 0-1.135.736-1.312 1.68l-.335 1.81h-.697M76.253 55.536c0-.33-.252-.514-.622-.514-.663 0-1.16.65-1.327 1.292 1.092.016 1.95-.135 1.95-.77v-.008zm.15 2.89c-.3.168-.797.32-1.343.32-1.076 0-1.547-.743-1.547-1.647 0-1.233.908-2.628 2.218-2.628.775 0 1.195.465 1.195 1.056 0 1.074-1.2 1.352-2.706 1.327-.034.177-.01.557.083.776.16.373.488.55.908.55.48 0 .84-.143 1.093-.278l.1.523zM55.21 62.212h2.873l-.117.6h-2.17l-.368 1.917h2l-.118.59h-2l-.48 2.585h-.696l1.075-5.693M61.024 64.34c-.1-.033-.244-.06-.48-.06-1.05 0-1.915 1.1-1.915 2.24 0 .456.16.903.69.903.587 0 1.276-.76 1.47-1.85l.234-1.233zm-.445 3.565c0-.245.04-.633.09-1.056h-.015c-.446.852-1.01 1.148-1.58 1.148-.723 0-1.17-.575-1.17-1.35 0-1.43 1.043-2.925 2.808-2.925.387 0 .815.068 1.093.153l-.41 2.136c-.137.71-.187 1.436-.17 1.893h-.647zM62.426 67.905l.546-2.897c.084-.457.143-.853.185-1.19h.613l-.11.767h.026c.378-.574.89-.862 1.43-.862.62 0 .915.398.95.913.36-.59.88-.904 1.486-.913.47 0 .992.305.992 1.074 0 .186-.026.464-.068.692l-.454 2.415h-.68l.437-2.356c.032-.154.058-.365.058-.534 0-.43-.16-.71-.614-.71-.504 0-1.11.592-1.277 1.504l-.386 2.095h-.673l.455-2.4c.033-.185.05-.337.05-.497 0-.347-.092-.7-.605-.7-.512 0-1.143.675-1.302 1.545l-.38 2.052h-.68M70.683 63.065c-.244 0-.412-.195-.412-.456.01-.28.22-.5.48-.5s.437.194.437.457c-.008.296-.218.498-.496.498h-.007zm-1.302 4.84l.774-4.088h.698l-.773 4.088h-.7zM71.48 67.905l1.135-5.997h.698l-1.134 5.997h-.7M74.463 63.817l.403 2.195c.092.474.143.778.185 1.082h.018c.11-.262.227-.55.436-1.005l1.043-2.273h.74l-1.53 3.108c-.437.887-.85 1.605-1.404 2.154-.454.456-.95.65-1.176.7l-.176-.6c.177-.067.472-.177.75-.397.276-.21.57-.54.79-.945.032-.06.032-.11.015-.187l-.815-3.833h.723" fill="#064B8D" />
        <path d="M101.708 19.625c1.055-.99 2.52-1.4 3.833-1.927 1.328-.532 2.674-.782 4.108-.778 1.398 0 2.834.007 4.195.578 1.412.594 2.64 1.47 3.63 2.52 1.015 1.077 1.792 2.376 2.308 3.765.507 1.363 1.075 2.858 1.053 4.363-.024 1.435-.424 2.983-.97 4.407-.525 1.365-1.253 2.813-2.28 3.98-.95 1.07-2.473 1.68-3.74 2.594-1.174.845-2.33 1.842-3.69 2.562-1.3.688-2.658 1.373-4.054 1.952-1.388.575-2.87.932-4.275 1.406-1.455.488-2.978.64-4.372 1.03-1.528.424-2.83 1.452-4.184 1.768-1.67.384-3.182.15-4.408.388-.69-1.042-1.88-1.983-2.77-3.446-.723-1.19-1.21-2.665-1.975-4.056-.696-1.268-1.556-2.525-2.222-3.907-.646-1.336-1.336-2.698-1.894-4.09-.56-1.405-.82-2.925-1.24-4.34-.437-1.475-.922-2.92-1.14-4.357-.23-1.544-.438-3.09-.334-4.52.112-1.55.534-3.074 1.14-4.404.633-1.388 1.578-2.74 2.587-3.76 1.056-1.068 2.25-1.99 3.576-2.582 1.352-.602 2.93-.975 4.407-1.003 1.44-.027 2.79.836 4.202 1.43 1.358.572 2.373 1.398 3.35 2.393 1.007 1.025 2.147 1.93 2.693 3.25.542 1.307 1.046 2.745 1.077 4.19.03 1.397.37 1.545 1.388.592" fill="#DC3B41" />
        <path d="M98.474 25.924c-.24-.087-.43-.274-.522-.512l-.553-1.455c-.173-.452.052-.956.5-1.13.45-.172.952.054 1.124.506l.19.498.433-.25c.415-.24.948-.097 1.188.32.238.42.096.954-.32 1.195l-1.314.762c-.134.077-.284.117-.435.117-.097 0-.197-.017-.29-.05M102.416 23.047c-.256-.408-.136-.95.27-1.207.053-.022 1.597-1.044 3.32-1.304.477-.068.917.265.984.743.07.475-.264.918-.74.986-.584.08-1.267.343-1.782.59-.517.248-.85.46-.85.46-.145.094-.306.137-.465.137-.288 0-.57-.144-.737-.406M112.602 22.408c-.43-.508-1.89-.712-2.543-.683-.21 0-.316.008-.317.008-.478.036-.896-.325-.932-.806-.035-.48.325-.9.805-.937.016 0 .182-.014.444-.014.805.03 2.537.028 3.77 1.195.34.343.34.896 0 1.238-.168.17-.39.255-.612.255-.223 0-.446-.085-.616-.255M116.85 28.656c-.48-.02-.853-.427-.833-.91.002-.057.004-.11.004-.16.01-1.15-.613-2.228-.926-2.662-.102-.144-.15-.2-.15-.2-.315-.364-.275-.917.088-1.232.364-.317.912-.277 1.227.09.045.074 1.476 1.672 1.5 4.005 0 .08-.003.155-.005.23-.02.47-.404.84-.868.84h-.036M113.08 34.943c-.28-.392-.194-.938.196-1.222.966-.694 1.68-1.823 1.947-2.323.092-.166.128-.246.128-.246.202-.437.72-.627 1.155-.424.437.2.625.722.424 1.16-.04.06-.884 1.96-2.634 3.253-.155.11-.334.164-.51.164-.27 0-.536-.125-.706-.36M107.638 38.905c-.23-.423-.076-.954.345-1.186l2.77-1.524c.42-.232.952-.077 1.18.346.23.424.077.955-.344 1.19l-2.772 1.522c-.132.072-.275.107-.416.107-.308 0-.606-.163-.764-.455M101.46 41.787c-.195-.44.004-.958.444-1.153l3.117-1.387c.44-.194.953.005 1.148.446.194.442-.004.957-.444 1.153l-3.117 1.387c-.114.05-.234.075-.35.075-.335 0-.653-.194-.797-.52M95.544 43.58c-.152-.46.094-.953.55-1.106l2.7-.902c.458-.153.95.095 1.1.553.153.46-.094.955-.55 1.106l-2.7.903c-.092.03-.186.045-.277.045-.364 0-.703-.233-.823-.6M90.055 45.358l-.96-1.31c-.283-.387-.2-.935.186-1.22.386-.287.932-.204 1.218.185l.623.853 1.455-.318v.002c.47-.103.932.197 1.034.668.1.473-.197.938-.666 1.04l-2.004.436c-.063.014-.125.02-.188.02-.272 0-.53-.13-.697-.356M87.13 41.037l-1.315-2.287c-.24-.42-.098-.952.317-1.194.417-.242.948-.1 1.19.318l1.315 2.288c.24.417.098.953-.317 1.192-.137.082-.288.12-.436.12-.3 0-.592-.157-.754-.437M84.2 35.846c-.002-.003-.332-.622-.69-1.334-.36-.728-.733-1.476-.89-1.978-.14-.463.12-.95.582-1.09.46-.138.944.123 1.084.586.05.19.434 1.02.777 1.693.348.694.67 1.3.67 1.3.226.426.067.955-.357 1.183-.13.07-.27.104-.41.104-.31 0-.61-.17-.767-.464M81.388 29.664c-.012-.034-.66-1.29-.975-2.612-.11-.468.178-.94.647-1.05.466-.112.935.18 1.046.65.12.512.33 1.08.51 1.51.18.427.322.707.322.707.218.428.05.956-.38 1.174-.126.066-.26.096-.394.096-.317 0-.62-.174-.776-.476M79.564 23.323c-.007-.032-.324-1.404-.37-2.962-.014-.48.363-.884.844-.898.48-.014.88.367.895.85.02.672.1 1.336.178 1.827.08.49.148.79.148.79l.002.002c.106.47-.186.94-.653 1.047-.066.014-.13.022-.196.022-.395 0-.753-.273-.846-.68M96.463 20.326s-.123-.388-.306-.86c-.176-.465-.44-1.027-.59-1.22-.288-.387-.207-.935.18-1.223.384-.288.928-.208 1.215.178.668.94 1.13 2.553 1.16 2.6.145.458-.11.95-.567 1.096-.088.027-.175.04-.26.04-.37 0-.714-.237-.832-.61M93.528 15.6s-.437-.346-.933-.722c-.48-.37-1.09-.8-1.186-.84-.43-.217-.602-.742-.385-1.174.215-.43.738-.605 1.167-.386.4.208.92.606 1.45 1.004.514.39.962.744.964.748.378.298.44.848.144 1.228-.17.218-.426.332-.682.332-.19 0-.38-.062-.54-.19M80.547 17.412c-.43-.214-.61-.738-.398-1.17.047-.052.697-1.537 1.967-2.382.406-.26.943-.138 1.2.27.257.408.136.947-.27 1.207-.308.187-.68.617-.933.997-.257.38-.402.677-.402.677v.002c-.152.31-.46.49-.783.49-.13 0-.26-.03-.383-.09M84.602 12.913c-.314-.366-.27-.92.093-1.233.08-.06.997-.865 2.506-.878.55 0 1.174.118 1.81.425.433.208.618.73.41 1.166-.208.435-.727.62-1.16.41-.403-.19-.75-.25-1.06-.253-.62-.003-1.12.28-1.308.41-.06.042-.062.046-.062.046-.165.142-.367.21-.568.21-.244 0-.488-.102-.66-.303" fill="#FFFFFE" />
    </g>
</svg>