<svg xmlns="http://www.w3.org/2000/svg" width="70" height="62" viewBox="0 0 70 62">
  <g fill="none" fill-rule="evenodd" transform="translate(0 -4)">
    <path fill="#B2B4B3" d="M69.0429689,4.75097644 C69.6809897,5.20670561 69.9999999,5.81054675 69.9999999,6.56249988 L69.9999999,54.6875001 C69.9999999,55.1432293 69.8746746,55.5533855 69.6240236,55.9179688 C69.3733725,56.2825522 69.0429689,56.5445964 68.6328126,56.7041017 L46.7578125,65.4541017 C46.2109375,65.7047527 45.6640625,65.7047527 45.1171875,65.4541017 L24.0625,57.0458985 L3.00781237,65.4541017 C2.77994778,65.568034 2.50651028,65.6250001 2.18749986,65.6250001 C1.75455715,65.6250001 1.3444009,65.4996746 0.957031108,65.2490236 C0.319010272,64.7932944 -1.45833335e-07,64.1894532 -1.45833335e-07,63.4375001 L-1.45833335e-07,15.3124999 C-1.45833335e-07,14.8567707 0.125325376,14.4466145 0.375976418,14.0820312 C0.626627461,13.7174478 0.957031108,13.4554036 1.36718736,13.2958983 L23.2421875,4.54589831 C23.7890625,4.29524727 24.3359375,4.29524727 24.8828125,4.54589831 L45.9375,12.9541015 L66.9921876,4.54589831 C67.7213543,4.24967435 68.4049481,4.31803373 69.0429689,4.75097644 Z M25.15625,9.36523427 L25.15625,52.7734376 L44.84375,60.6347657 L44.84375,17.2265624 L25.15625,9.36523427 Z M4.37499987,16.7822265 L4.37499987,60.1904298 L22.9687499,52.7734376 L22.9687499,9.36523427 L4.37499987,16.7822265 Z M65.6250001,53.2177735 L65.6250001,9.80957021 L47.0312501,17.2265624 L47.0312501,60.6347657 L65.6250001,53.2177735 Z"/>
    <circle cx="35" cy="35" r="17" fill="#B1005D"/>
    <path fill="#FFF" fill-rule="nonzero" d="M32.0997831,39.1962041 L32.0997831,38.1410273 C32.0997831,37.2284375 32.3073009,36.4346864 32.7223427,35.7597501 C33.1373846,35.0848139 33.8965961,34.3671108 35,33.6066193 C36.062912,32.8936585 36.7639173,32.3137924 37.1030369,31.8670036 C37.4421564,31.4202148 37.6117137,30.9211497 37.6117137,30.3697934 C37.6117137,29.751894 37.368766,29.2813469 36.8828633,28.958138 C36.3969607,28.6349291 35.7187318,28.4733271 34.8481562,28.4733271 C33.3297104,28.4733271 31.5987082,28.9391212 29.6550976,29.8707233 L28,26.7479706 C30.2574227,25.5597026 32.6514696,24.9655775 35.1822126,24.9655775 C37.2675448,24.9655775 38.9251565,25.4361245 40.1550976,26.3772328 C41.3850387,27.3183411 42,28.5731333 42,30.1416471 C42,31.1873229 41.7469295,32.0903931 41.2407809,32.8508846 C40.7346323,33.6113761 39.7729644,34.4669163 38.3557484,35.4175307 C37.3839431,36.0924669 36.7689818,36.605791 36.510846,36.9575183 C36.2527102,37.3092456 36.1236443,37.7702867 36.1236443,38.3406554 L36.1236443,39.1962041 L32.0997831,39.1962041 Z M32,44.7868074 C32,43.9497075 32.2142836,43.3169094 32.6428571,42.8883939 C33.0714307,42.4598785 33.695234,42.245624 34.5142857,42.245624 C35.3047659,42.245624 35.9166645,42.4648612 36.35,42.9033421 C36.7833355,43.341823 37,43.9696384 37,44.7868074 C37,45.5740799 36.7809546,46.1944213 36.3428571,46.6478504 C35.9047597,47.1012795 35.295242,47.3279907 34.5142857,47.3279907 C33.7142817,47.3279907 33.0952403,47.1062622 32.6571429,46.6627986 C32.2190454,46.219335 32,45.5940108 32,44.7868074 Z"/>
  </g>
</svg>
