<?xml version="1.0" encoding="UTF-8" standalone="no"?>
<svg width="13px" height="19px" viewBox="0 0 13 19" version="1.1" xmlns="http://www.w3.org/2000/svg" xmlns:xlink="http://www.w3.org/1999/xlink">
    <!-- Generator: Sketch 42 (36781) - http://www.bohemiancoding.com/sketch -->
    <title>Fill 1</title>
    <desc>Created with Sketch.</desc>
    <defs></defs>
    <g id="Organisms" stroke="none" stroke-width="1" fill="none" fill-rule="evenodd">
        <g id="Style-Guide---Organisms-6" transform="translate(-237.000000, -1099.000000)" fill="#B1005D">
            <g id="Hospitals-section" transform="translate(43.000000, 524.000000)">
                <g id="Group-Copy-4" transform="translate(177.000000, 563.000000)">
                    <path d="M29.1374005,21.9379462 L19.8686002,30.8095172 C19.7495407,30.9238069 19.5704368,31 19.4112333,31 C19.2520298,31 19.073269,30.9238069 18.9538663,30.8095172 L17.9595307,29.8577602 C17.8401281,29.7434705 17.7605263,29.5910843 17.7605263,29.4196498 C17.7605263,29.2672636 17.8401281,29.0961575 17.9595307,28.9818678 L25.7759421,21.5001642 L17.9595307,14.0181322 C17.8401281,13.9038425 17.7605263,13.7327364 17.7605263,13.5803502 C17.7605263,13.427964 17.8401281,13.2565295 17.9595307,13.1422398 L18.9538663,12.1904828 C19.073269,12.0761931 19.2520298,12 19.4112333,12 C19.5704368,12 19.7495407,12.0761931 19.8686002,12.1904828 L29.1374005,21.0620538 C29.2568031,21.1763435 29.3364048,21.347778 29.3364048,21.5001642 C29.3364048,21.652222 29.2568031,21.8236565 29.1374005,21.9379462" id="Fill-1"></path>
                </g>
            </g>
        </g>
    </g>
</svg>