<?xml version="1.0" encoding="UTF-8" standalone="no"?>
<svg width="32px" height="32px" viewBox="0 0 32 32" version="1.1" xmlns="http://www.w3.org/2000/svg" xmlns:xlink="http://www.w3.org/1999/xlink">
    <!-- Generator: Sketch 42 (36781) - http://www.bohemiancoding.com/sketch -->
    <title>Fill 1</title>
    <desc>Created with Sketch.</desc>
    <defs></defs>
    <g id="Symbols" stroke="none" stroke-width="1" fill="none" fill-rule="evenodd">
        <g id="Sticky-Header" transform="translate(-15.000000, -13.000000)" fill="#FFFFFF">
            <g id="Sticky-header">
                <path d="M22.9707521,15.1613085 C20.7016738,16.474845 18.728168,18.3624535 17.2905871,20.7563764 L27.8829091,25.8339259 L22.9707521,15.1613085 Z M30.8266287,13.0010691 C28.1280635,13.0330806 25.4737807,13.7482697 23.1262744,15.0724767 L29.8460113,24.7095237 L30.8266287,13.0010691 Z M30.2965724,30.2589753 C25.5031246,27.5798837 20.2567147,26.4765557 15.1535561,26.7787972 C14.2655051,33.1242668 17.2663117,39.6511347 23.1953658,42.9648533 C29.1244198,46.2785718 36.2557706,45.4145295 41.1951373,41.3333364 C38.7788064,36.8285251 35.0900203,32.9378001 30.2965724,30.2589753 L30.2965724,30.2589753 Z M17.1988209,20.9108316 C17.1436012,21.0049986 17.088915,21.0999659 17.0355625,21.1957335 C16.2150024,22.663992 15.6508006,24.2056101 15.3280185,25.7696362 C18.0866051,25.2289095 20.9486955,25.1763573 23.7761068,25.6519941 L17.1988209,20.9108316 Z M41.9634121,40.6560274 C43.126228,39.5612359 44.1439254,38.2730418 44.9644855,36.80505 C45.0178379,36.7090157 45.0701233,36.6129813 45.1216084,36.5164134 L37.6370646,33.398765 C39.5236061,35.5576705 40.9785265,38.0228189 41.9634121,40.6560274 L41.9634121,40.6560274 Z M38.7259875,14.9924481 C36.2752442,13.6404978 33.6222953,12.9986683 31.005626,13.0000021 L32.1086872,24.6977861 L38.7259875,14.9924481 Z M45.2051049,36.35769 C46.4906314,33.8789367 47.0644366,31.2086483 46.9942782,28.5879776 L35.3301061,29.9962146 L45.2051049,36.35769 Z M44.6248974,20.6117913 C43.2550741,18.3824606 41.3183814,16.459106 38.8825768,15.0802128 L34.0837937,25.8013809 L44.6248974,20.6117913 Z M35.2591474,27.7348725 L44.7177306,20.7649128 C46.1048934,23.0801409 46.8862396,25.7154835 46.9886762,28.4087135 L35.2591474,27.7348725 Z" id="Fill-1"></path>
            </g>
        </g>
    </g>
</svg>