<?xml version="1.0" encoding="UTF-8" standalone="no"?>
<svg width="291px" height="60px" viewBox="0 0 291 60" version="1.1" xmlns="http://www.w3.org/2000/svg" xmlns:xlink="http://www.w3.org/1999/xlink">
    <!-- Generator: Sketch 43.2 (39069) - http://www.bohemiancoding.com/sketch -->
    <title>methodist logo</title>
    <desc>Created with Sketch.</desc>
    <defs></defs>
    <g id="Page-1" stroke="none" stroke-width="1" fill="none" fill-rule="evenodd">
        <g id="Desktop-HD" transform="translate(-165.000000, -19.000000)" fill="#FFFFFF">
            <g id="header">
                <g id="methodist-logo" transform="translate(165.000000, 19.000000)">
                    <path d="M59.6497272,28.8568052 C59.4592092,23.8130341 58.0017221,18.8776721 55.4155528,14.5418075 L37.7774708,27.5948632 L59.6497272,28.8568052 Z" id="Fill-1"></path>
                    <path d="M55.2422462,14.2550479 C52.6879128,10.0800484 49.0765282,6.4780685 44.534441,3.89573364 L35.5860667,23.9738992 L55.2422462,14.2550479 Z" id="Fill-3"></path>
                    <path d="M56.3238708,43.7430239 C58.7210144,39.100916 59.790999,34.1006085 59.6606708,29.1922239 L37.9097887,31.8300123 L56.3238708,43.7430239 Z" id="Fill-5"></path>
                    <path d="M44.2420979,3.73142141 C39.6721544,1.19954425 34.7251544,-0.00244794753 29.8463031,4.9958113e-05 L31.9027031,21.9066825 L44.2420979,3.73142141 Z" id="Fill-7"></path>
                    <path d="M50.2790795,51.7929245 C52.4474026,49.7431431 54.3451205,47.3301663 55.8752333,44.5809713 C55.9752179,44.4016217 56.0722179,44.2212729 56.1682231,44.0404245 L42.2116641,38.2018199 C45.7295308,42.24493 48.4430436,46.8615592 50.2790795,51.7929245" id="Fill-9"></path>
                    <path d="M4.1003641,14.8151283 C3.99689744,14.9914805 3.89542051,15.1693314 3.79593333,15.348681 C2.26532308,18.0978759 1.21374359,20.9854549 0.611846154,23.914499 C5.75583077,22.9018481 11.0928205,22.8034306 16.3646462,23.6941837 L4.1003641,14.8151283 Z" id="Fill-11"></path>
                    <path d="M28.5237703,32.3217 C19.5853446,27.3044068 9.80227282,25.2381392 0.286324103,25.8046642 C-1.36964,37.6877009 4.22601641,49.9109524 15.2820267,56.1167492 C26.3380369,62.322546 39.6359908,60.7044027 48.8465138,53.061311 C44.3407395,44.6248845 37.4621959,37.3384937 28.5237703,32.3217" id="Fill-13"></path>
                    <path d="M29.5120759,0.00209824074 C24.4800144,0.0620479762 19.5310246,1.4009254 15.1530913,3.88084612 L27.683999,21.9292136 L29.5120759,0.00209824074 Z" id="Fill-16"></path>
                    <path d="M14.8632354,4.04755635 C10.6320456,6.50749382 6.95201487,10.0430295 4.27133282,14.5257709 L24.02302,24.0347981 L14.8632354,4.04755635 Z" id="Fill-18"></path>
                    <polygon id="Fill-20" points="102.149407 12.9778188 102.069319 12.9778188 93.62634 33.647988 83.1757092 33.647988 83.4821297 12.9778188 83.40254 12.9778188 79.0275913 33.647988 69.3748477 33.647988 75.4962938 4.72573773 91.3316682 4.72573773 90.8367195 21.9507955 90.9168067 21.9507955 97.7137708 4.72573773 113.548648 4.72573773 107.427202 33.647988 97.7744579 33.647988"></polygon>
                    <path d="M139.399297,19.4672278 L136.806661,19.4672278 L138.061194,13.5386985 L140.65383,13.5386985 L141.340789,10.2939191 L151.705364,6.92874063 L150.306574,13.5386985 L154.654661,13.5386985 L153.399133,19.4672278 L149.052041,19.4672278 L147.746271,25.6365552 C147.423933,27.1582793 147.792035,27.6793424 148.949071,27.6793424 C149.627076,27.6793424 150.424964,27.6793424 151.353179,27.4390439 L150.098646,33.3675731 C147.802979,33.8486698 145.404841,34.2488342 143.49021,34.2488342 C139.740538,34.2488342 136.516656,33.0873081 137.466261,28.60057 L139.399297,19.4672278 Z" id="Fill-22"></path>
                    <path d="M158.067469,4.72568777 L167.720213,4.72568777 L165.2783,16.2625148 L165.35789,16.2625148 C167.211833,14.0993285 169.093136,12.9378024 172.363777,12.9378024 C176.39251,12.9378024 178.880187,14.9406231 177.7525,20.2686558 L174.921095,33.6479381 L165.268849,33.6479381 L167.904762,21.1898835 C168.218644,19.7076262 167.79831,18.8663316 166.641772,18.8663316 C165.564823,18.8663316 164.591341,19.5072942 164.252587,21.1094509 L161.599264,33.6479381 L151.946023,33.6479381 L158.067469,4.72568777 Z" id="Fill-24"></path>
                    <path d="M220.208107,20.468838 C220.214573,19.3068123 219.600737,18.6258832 218.523789,18.6258832 C216.529568,18.6258832 215.876932,20.3884054 215.198927,23.5932184 C214.622399,26.3174343 214.387112,28.5605535 216.460922,28.5605535 C217.538368,28.5605535 218.078584,28.0799565 218.484491,27.4789604 C218.891394,26.8784639 219.265466,25.6764717 219.706194,23.5932184 C220.079271,21.8306962 220.189702,21.3101326 220.208107,20.468838 L220.208107,20.468838 Z M218.469071,31.3247359 C216.310199,33.6078217 213.82103,34.2487843 211.627337,34.2487843 C206.761419,34.2487843 204.088199,30.4834413 205.596922,23.3529199 C207.208117,15.7418014 211.670614,12.9376525 216.018204,12.9376525 C218.251691,12.9376525 220.230491,13.5786151 221.443737,15.3811038 L223.699609,4.7255379 L233.352353,4.7255379 L227.230409,33.6482878 L218.136784,33.6482878 L218.469071,31.3247359 Z" id="Fill-26"></path>
                    <path d="M236.416061,4.72568777 L246.068307,4.72568777 L244.763035,10.8950151 L235.110291,10.8950151 L236.416061,4.72568777 Z M234.550676,13.5387985 L244.203419,13.5387985 L239.947358,33.6479381 L230.294614,33.6479381 L234.550676,13.5387985 Z" id="Fill-28"></path>
                    <polygon id="Fill-30" points="70.0893149 51.7704433 73.0042892 37.9989899 74.9034995 37.9989899 73.6519508 43.9120322 80.1663713 43.9120322 81.4174226 37.9989899 83.3171303 37.9989899 80.4021559 51.7704433 78.5029456 51.7704433 79.819161 45.552157 73.3047405 45.552157 71.9885251 51.7704433"></polygon>
                    <path d="M92.5288472,47.3262196 L92.7183703,46.429971 C93.2799754,43.7781944 92.3149497,41.9662136 89.4780728,41.9092614 C86.4581395,41.9092614 84.5564421,44.2552944 83.963001,47.0589437 C83.3655805,49.8825762 84.1206882,52.0562537 87.1784267,52.0562537 C89.4576779,52.0562537 91.3588779,50.9691652 92.1040369,48.7949881 L90.2048267,48.7949881 C89.7009241,50.1873207 88.8811497,50.740357 87.4758933,50.740357 C85.6338882,50.740357 85.317519,49.0048122 85.8055036,47.3262196 L92.5288472,47.3262196 Z M86.0721292,46.0672751 C86.4034215,44.5030866 87.5659292,43.2251581 89.0666933,43.2251581 C90.8141856,43.2251581 91.273319,44.4651184 90.8962626,46.0672751 L86.0721292,46.0672751 Z" id="Fill-32"></path>
                    <path d="M99.1640451,45.8574511 C96.9041938,45.8574511 94.3642862,46.6392955 93.7952195,49.3285407 C93.3997579,51.1979733 94.889081,52.0562537 96.5415631,52.0562537 C97.8518092,52.0562537 99.0247631,51.5416851 99.8679169,50.3401925 L99.9057221,50.3401925 C99.8316041,50.7788248 99.7808656,51.1979733 99.7261477,51.6371051 C99.696799,51.8659133 100.039532,51.7704933 100.21065,51.7704933 L101.425886,51.7704933 C101.538804,50.9691652 101.689527,50.1683366 101.778071,49.7486885 L102.747076,45.1710266 C103.312163,42.5002659 101.500004,41.9092614 99.5440862,41.9092614 C97.6637785,41.9092614 95.8730092,42.6531377 95.3337887,44.7513784 L97.232999,44.7513784 C97.4623169,43.7592103 98.4298297,43.2251581 99.3416297,43.2251581 C101.259245,43.2251581 101.148814,44.1978425 100.797625,45.8574511 L99.1640451,45.8574511 Z M100.530999,47.1163955 C100.19324,48.8899085 99.4028144,50.740357 97.2757785,50.740357 C96.2122605,50.740357 95.5208246,50.1493525 95.7710349,48.966844 C96.0655169,47.5740118 97.61304,47.1733477 98.726799,47.1163955 L100.530999,47.1163955 Z" id="Fill-34"></path>
                    <polygon id="Fill-36" points="104.483824 51.7704433 107.398301 37.9989899 109.202998 37.9989899 106.288024 51.7704433"></polygon>
                    <path d="M111.752257,42.1952216 L112.184032,40.1544327 L114.109606,39.5819127 L113.556457,42.1952216 L115.772037,42.1377698 L115.485016,43.4921342 L113.285852,43.4731502 L111.978093,49.6534683 C111.832842,50.3398928 112.295955,50.6641209 112.941627,50.6641209 C113.22616,50.6641209 113.614657,50.6256532 113.915606,50.5497168 L113.620627,51.9420495 C113.198801,51.9610335 112.77996,52.0564535 112.362114,52.0564535 C111.925365,52.0564535 111.587109,52.037969 111.166775,51.9610335 C110.893683,51.9035817 110.451463,51.7512095 110.23657,51.3320609 C110.010237,50.873945 109.923683,50.8354773 110.193791,49.5580483 L111.481652,43.4731502 L109.844591,43.4921342 L110.131114,42.1377698 L111.752257,42.1952216 Z" id="Fill-38"></path>
                    <path d="M115.859984,51.7704433 L118.774461,37.9989899 L120.579158,37.9989899 L119.420132,43.4733999 L119.458435,43.4733999 C120.368245,42.4052955 121.498419,41.9092114 122.884773,41.9092114 C125.372948,41.9092114 125.800245,43.5688199 125.437117,45.2853807 L124.064691,51.7704433 L122.260491,51.7704433 L123.459312,46.1056929 C123.814481,44.4271003 123.608045,43.3400118 121.925717,43.301544 C121.207917,43.28256 119.989199,43.8355963 119.477835,44.6369244 C118.850071,45.6285929 118.818732,46.315517 118.705814,46.8495692 L117.664184,51.7704433 L115.859984,51.7704433 Z" id="Fill-40"></path>
                    <path d="M134.025397,45.2661468 C134.185074,44.0646542 133.792597,43.2253579 132.501254,43.2253579 C130.772664,43.2253579 129.789233,44.7320946 129.31269,46.9827076 C128.836644,49.2333206 129.182362,50.7405568 130.910454,50.7405568 C132.106787,50.7405568 133.013613,49.9587124 133.399126,48.5853638 L135.203326,48.5853638 C134.594962,50.7405568 132.721121,52.0564535 130.612987,52.0564535 C127.555249,52.0564535 126.800141,49.8822765 127.397562,47.0591435 C127.991003,44.2554942 129.8927,41.9089616 132.912633,41.9089616 C134.925756,41.9089616 136.174818,43.1868902 135.829597,45.2661468 L134.025397,45.2661468 Z" id="Fill-42"></path>
                    <path d="M141.953033,45.8574511 C139.692685,45.8574511 137.153274,46.6392955 136.584208,49.3285407 C136.188746,51.1979733 137.678069,52.0562537 139.330551,52.0562537 C140.640797,52.0562537 141.813751,51.5416851 142.656408,50.3401925 L142.69471,50.3401925 C142.620592,50.7788248 142.569854,51.1979733 142.515136,51.6371051 C142.485787,51.8659133 142.828521,51.7704933 142.999638,51.7704933 L144.214874,51.7704933 C144.327792,50.9691652 144.478515,50.1683366 144.567059,49.7486885 L145.536064,45.1710266 C146.100654,42.5002659 144.288992,41.9092614 142.333074,41.9092614 C140.452767,41.9092614 138.661997,42.6531377 138.122777,44.7513784 L140.021987,44.7513784 C140.250808,43.7592103 141.218321,43.2251581 142.130121,43.2251581 C144.048233,43.2251581 143.937803,44.1978425 143.586613,45.8574511 L141.953033,45.8574511 Z M143.319987,47.1163955 C142.982228,48.8899085 142.191803,50.740357 140.064767,50.740357 C139.001249,50.740357 138.309813,50.1493525 138.560023,48.966844 C138.854505,47.5740118 140.402028,47.1733477 141.515787,47.1163955 L143.319987,47.1163955 Z" id="Fill-44"></path>
                    <path d="M149.095666,51.7704433 L147.291963,51.7704433 L149.318517,42.1954714 L151.122717,42.1954714 L150.730737,44.0454203 L150.768543,44.0454203 C151.313235,42.7290241 152.67024,42.0620833 153.980486,42.0620833 C154.208809,42.0620833 154.394353,42.0810673 154.603276,42.0810673 L154.240148,43.7976281 C154.013814,43.7022081 153.728286,43.7022081 153.481061,43.7022081 C151.186389,43.778644 150.529276,44.9991207 150.100984,47.0209255 L149.095666,51.7704433 Z" id="Fill-46"></path>
                    <path d="M162.780475,47.3262196 L162.969998,46.429971 C163.531604,43.7781944 162.566081,41.9662136 159.729701,41.9092614 C156.709768,41.9092614 154.80807,44.2552944 154.214132,47.0589437 C153.616711,49.8825762 154.372316,52.0562537 157.429557,52.0562537 C159.708809,52.0562537 161.610506,50.9691652 162.355665,48.7949881 L160.455957,48.7949881 C159.952055,50.1873207 159.132778,50.740357 157.727522,50.740357 C155.885516,50.740357 155.56865,49.0048122 156.057132,47.3262196 L162.780475,47.3262196 Z M156.323757,46.0672751 C156.654552,44.5030866 157.817557,43.2251581 159.317824,43.2251581 C161.065316,43.2251581 161.52445,44.4651184 161.147891,46.0672751 L156.323757,46.0672751 Z" id="Fill-48"></path>
                    <path d="M179.057921,25.849077 C179.057921,31.3509639 182.668808,34.2580265 189.864716,34.2580265 C194.07949,34.2580265 197.350629,33.207907 199.838306,31.0457199 C202.124024,29.0598849 203.784465,25.6532412 203.784465,21.3458527 C203.784465,15.882933 199.690567,13.0922729 192.931906,13.0922729 C188.364947,13.0922729 185.008249,14.4206591 182.741931,16.5528713 C180.199536,18.9468641 179.057921,22.5598348 179.057921,25.849077 M194.046162,20.4231263 C194.046162,21.6241194 193.733275,23.36466 193.362188,25.0147765 C192.66727,28.1066841 191.628126,28.7916098 190.419357,28.7916098 C189.358824,28.7916098 188.795229,28.3364914 188.795229,26.5754679 C188.795229,25.6727248 189.004649,24.2669035 189.48169,22.2735748 C190.088065,19.7441956 191.015285,18.5526946 192.396167,18.5526946 C193.414418,18.5526946 194.046162,19.0622673 194.046162,20.4231263" id="Fill-50"></path>
                    <path d="M121.427485,25.4346245 L135.077624,25.4346245 C135.53029,23.88942 135.615352,22.3796859 135.615352,21.2316484 C135.615352,16.1444138 132.527767,12.9760703 125.432839,12.9760703 C121.210106,12.9760703 117.72109,14.2989611 115.519936,16.4971181 C113.33868,18.6747922 111.983167,22.6849299 111.983167,25.890742 C111.983167,28.5425187 112.925311,30.9654871 114.584259,32.208445 C116.445665,33.6037751 118.649803,34.2517318 122.823788,34.2517318 C125.141839,34.2517318 128.33488,33.680211 130.032629,32.8723883 C132.677993,31.6134439 134.257849,29.4602492 134.611029,27.1541827 L125.702449,27.1541827 C125.28908,28.5664986 124.635947,29.243431 123.291875,29.243431 C121.938352,29.243431 121.166331,28.3961414 121.166331,27.0262899 C121.166331,26.5961506 121.245424,25.8952383 121.427485,25.4346245 L121.427485,25.4346245 Z M122.26069,21.1452209 C122.314413,20.6156649 122.549203,19.8667928 122.779018,19.4126735 C123.29287,18.3980243 123.975352,18.0473183 125.092095,18.0473183 C126.189439,18.0473183 126.860977,18.5244183 126.899777,19.6324892 C126.911218,19.951222 126.803275,20.4877721 126.638624,21.1452209 L122.26069,21.1452209 Z" id="Fill-52"></path>
                    <path d="M278.03503,19.8297239 L282.382619,19.8297239 L283.714255,13.5384987 L279.366666,13.5384987 L280.764958,6.92904038 L270.400384,10.2937193 L269.713425,13.5384987 L267.121286,13.5384987 L265.989122,18.8880134 L265.989122,18.5303134 C265.989122,14.352816 261.980286,13.0898749 256.510481,13.0898749 C252.606604,13.0898749 249.983625,13.7842926 248.037158,15.082704 C245.978768,16.4550533 244.940122,19.0258978 244.940122,20.5701031 C244.940122,23.62704 246.695573,25.1147926 251.125737,25.9056296 L252.648389,26.1774017 C255.419107,26.671987 256.125963,27.0062068 256.125963,27.9853858 C256.125963,29.1958709 255.210184,29.7489072 253.941225,29.7489072 C252.576758,29.7489072 251.934568,29.1559044 251.934568,28.0413389 C251.934568,27.5392598 252.004209,27.2949647 252.077332,26.9142839 L243.655743,26.9142839 C243.479153,27.3519169 243.339871,28.1457513 243.339871,28.6942914 C243.339871,32.0749569 246.423973,34.2696168 253.282619,34.2696168 C256.578132,34.2696168 259.849768,33.5492208 261.847968,32.2782864 C263.882481,30.9843713 265.128061,28.8091951 265.128061,26.2888083 C265.128061,23.0435293 262.913476,21.6886652 258.469384,20.9527822 L258.017712,20.8778451 C254.451594,20.2873402 253.925307,20.1219788 253.925307,19.0728585 C253.925307,18.4463837 254.530686,17.607587 255.958327,17.607587 C257.284491,17.607587 257.959014,18.0412234 257.739645,19.8292243 L265.790148,19.8292243 L265.78965,19.8297239 L268.382784,19.8297239 L266.525855,28.6008697 C265.57625,33.0876079 268.800132,34.249134 272.550302,34.249134 C274.464435,34.249134 276.862573,33.8484699 279.158737,33.3678729 L280.413271,27.438844 C279.484558,27.6791426 278.686671,27.6791426 278.008666,27.6791426 C276.852127,27.6791426 276.484025,27.158579 276.805866,25.6363553 L278.03503,19.8297239 Z" id="Fill-54"></path>
                    <path d="M282.22533,31.6457168 C282.107935,32.2572041 282.411869,32.4850131 282.990884,32.4850131 C283.479864,32.4850131 284.10713,32.3411337 284.235469,31.7356414 C284.32451,31.3159933 284.015105,31.142139 283.671874,31.0701993 C282.994864,30.91433 281.846782,30.7524658 282.052223,29.78128 C282.251694,28.8400692 283.178915,28.4923607 283.984761,28.4923607 C284.719474,28.4923607 285.371115,28.8220843 285.194028,29.6613806 L284.567258,29.6613806 C284.645853,29.1757877 284.275264,29.0079285 283.845976,29.0079285 C283.421664,29.0079285 282.810315,29.1637978 282.700879,29.6793655 C282.596915,30.1709533 282.937161,30.2009282 283.287356,30.3208277 C284.026546,30.5786115 285.106976,30.5786115 284.876166,31.6696967 C284.668238,32.6528724 283.717141,33.0005808 282.845633,33.0005808 C281.944279,33.0005808 281.368746,32.6169025 281.598064,31.6457168 L282.22533,31.6457168 Z" id="Fill-56"></path>
                    <polygon id="Fill-58" points="290.291154 29.0139234 290.279713 29.0139234 288.076072 32.9106562 287.514467 32.9106562 286.960821 29.0139234 286.948385 29.0139234 286.124133 32.9106562 285.526713 32.9106562 286.44299 28.5822853 287.511482 28.5822853 287.998472 32.1492946 288.009913 32.1492946 289.982744 28.5822853 290.979605 28.5822853 290.063826 32.9106562 289.466405 32.9106562"></polygon>
                </g>
            </g>
        </g>
    </g>
</svg>