<?xml version="1.0" encoding="UTF-8" standalone="no"?>
<svg width="1280" height="400" viewBox="0 0 1280 400" version="1.1" xmlns="http://www.w3.org/2000/svg" xmlns:xlink="http://www.w3.org/1999/xlink">
  <path d="M99,466L25,462L268,479Z" fill="#75bdd9" stroke="#75bdd9" stroke-width="1.51"></path>
  <path d="M47,-87L230,-88L461,-91Z" fill="#84c5df" stroke="#84c5df" stroke-width="1.51"></path>
  <path d="M461,-91L644,-79L775,-91Z" fill="#a1d0e4" stroke="#a1d0e4" stroke-width="1.51"></path>
  <path d="M509,473L397,488L819,488Z" fill="#9dcee2" stroke="#9dcee2" stroke-width="1.51"></path>
  <path d="M461,-91L775,-91L820,-93Z" fill="#9acde2" stroke="#9acde2" stroke-width="1.51"></path>
  <path d="M998,478L819,488L1133,477Z" fill="#73bad5" stroke="#73bad5" stroke-width="1.51"></path>
  <path d="M1169,474L1133,477L1232,475Z" fill="#60b2d1" stroke="#60b2d1" stroke-width="1.51"></path>
  <path d="M820,-93L1011,-87L1237,-92Z" fill="#6db7d4" stroke="#6db7d4" stroke-width="1.51"></path>
  <path d="M1011,-87L1118,-77L1237,-92Z" fill="#66b4d3" stroke="#66b4d3" stroke-width="1.51"></path>
  <path d="M1313,237L1338,243L1368,165Z" fill="#9dcee1" stroke="#9dcee1" stroke-width="1.51"></path>
  <path d="M1338,243L1361,287L1368,165Z" fill="#96cbe0" stroke="#96cbe0" stroke-width="1.51"></path>
  <path d="M1232,475L1133,477L1372,474Z" fill="#59b0d0" stroke="#59b0d0" stroke-width="1.51"></path>
  <path d="M1133,477L819,488L1372,474Z" fill="#66b4d2" stroke="#66b4d2" stroke-width="1.51"></path>
  <path d="M1315,465L1232,475L1372,474Z" fill="#54adcf" stroke="#54adcf" stroke-width="1.51"></path>
  <path d="M1237,-92L1316,-50L1378,-65Z" fill="#59b1d1" stroke="#59b1d1" stroke-width="1.51"></path>
  <path d="M1349,335L1302,400L1379,397Z" fill="#68b5d2" stroke="#68b5d2" stroke-width="1.51"></path>
  <path d="M1315,465L1372,474L1379,397Z" fill="#55aed0" stroke="#55aed0" stroke-width="1.51"></path>
  <path d="M1302,400L1315,465L1379,397Z" fill="#5eb1d1" stroke="#5eb1d1" stroke-width="1.51"></path>
  <path d="M1361,287L1349,335L1379,397Z" fill="#71b8d4" stroke="#71b8d4" stroke-width="1.51"></path>
  <path d="M1368,165L1361,287L1379,397Z" fill="#84c2da" stroke="#84c2da" stroke-width="1.51"></path>
  <path d="M1347,107L1368,165L1379,-23Z" fill="#8ac7e0" stroke="#8ac7e0" stroke-width="1.51"></path>
  <path d="M1344,39L1347,107L1379,-23Z" fill="#81c4de" stroke="#81c4de" stroke-width="1.51"></path>
  <path d="M1306,-24L1344,39L1379,-23Z" fill="#72bcd9" stroke="#72bcd9" stroke-width="1.51"></path>
  <path d="M1378,-65L1316,-50L1379,-23Z" fill="#5eb3d4" stroke="#5eb3d4" stroke-width="1.51"></path>
  <path d="M1316,-50L1306,-24L1379,-23Z" fill="#66b6d6" stroke="#66b6d6" stroke-width="1.51"></path>
  <path d="M1368,165L1379,397L1379,-23Z" fill="#9bcde2" stroke="#9bcde2" stroke-width="1.51"></path>
  <path d="M1291,153L1313,237L1368,165Z" fill="#a0d0e3" stroke="#a0d0e3" stroke-width="1.51"></path>
  <path d="M1347,107L1309,115L1368,165Z" fill="#95cce1" stroke="#95cce1" stroke-width="1.51"></path>
  <path d="M1344,39L1316,40L1347,107Z" fill="#89c7e0" stroke="#89c7e0" stroke-width="1.51"></path>
  <path d="M1309,115L1291,153L1368,165Z" fill="#99cde2" stroke="#99cde2" stroke-width="1.51"></path>
  <path d="M1306,-24L1316,40L1344,39Z" fill="#7cc1dc" stroke="#7cc1dc" stroke-width="1.51"></path>
  <path d="M1290,344L1302,400L1349,335Z" fill="#70b8d3" stroke="#70b8d3" stroke-width="1.51"></path>
  <path d="M1300,305L1349,335L1361,287Z" fill="#7ebed8" stroke="#7ebed8" stroke-width="1.51"></path>
  <path d="M1338,243L1300,305L1361,287Z" fill="#89c3db" stroke="#89c3db" stroke-width="1.51"></path>
  <path d="M1313,237L1300,305L1338,243Z" fill="#90c7dd" stroke="#90c7dd" stroke-width="1.51"></path>
  <path d="M1316,40L1309,115L1347,107Z" fill="#8fc9e1" stroke="#8fc9e1" stroke-width="1.51"></path>
  <path d="M1300,305L1290,344L1349,335Z" fill="#79bcd6" stroke="#79bcd6" stroke-width="1.51"></path>
  <path d="M1250,154L1225,221L1291,153Z" fill="#a4d2e4" stroke="#a4d2e4" stroke-width="1.51"></path>
  <path d="M1246,-30L1252,44L1306,-24Z" fill="#79beda" stroke="#79beda" stroke-width="1.51"></path>
  <path d="M1291,153L1225,221L1313,237Z" fill="#a6d2e3" stroke="#a6d2e3" stroke-width="1.51"></path>
  <path d="M1238,298L1300,305L1313,237Z" fill="#8dc5dc" stroke="#8dc5dc" stroke-width="1.51"></path>
  <path d="M1302,400L1232,475L1315,465Z" fill="#5db1d1" stroke="#5db1d1" stroke-width="1.51"></path>
  <path d="M1242,87L1309,115L1316,40Z" fill="#90cae1" stroke="#90cae1" stroke-width="1.51"></path>
  <path d="M1252,44L1242,87L1316,40Z" fill="#8ec9e1" stroke="#8ec9e1" stroke-width="1.51"></path>
  <path d="M1306,-24L1252,44L1316,40Z" fill="#7fc2dd" stroke="#7fc2dd" stroke-width="1.51"></path>
  <path d="M1246,-30L1306,-24L1316,-50Z" fill="#6ab7d6" stroke="#6ab7d6" stroke-width="1.51"></path>
  <path d="M1237,-92L1246,-30L1316,-50Z" fill="#63b4d4" stroke="#63b4d4" stroke-width="1.51"></path>
  <path d="M1225,221L1238,298L1313,237Z" fill="#98cbdf" stroke="#98cbdf" stroke-width="1.51"></path>
  <path d="M1226,394L1232,475L1302,400Z" fill="#66b4d2" stroke="#66b4d2" stroke-width="1.51"></path>
  <path d="M1250,154L1291,153L1309,115Z" fill="#9ccee2" stroke="#9ccee2" stroke-width="1.51"></path>
  <path d="M1242,87L1250,154L1309,115Z" fill="#99cde2" stroke="#99cde2" stroke-width="1.51"></path>
  <path d="M1290,344L1226,394L1302,400Z" fill="#6eb7d3" stroke="#6eb7d3" stroke-width="1.51"></path>
  <path d="M1238,298L1290,344L1300,305Z" fill="#81bfd8" stroke="#81bfd8" stroke-width="1.51"></path>
  <path d="M1238,339L1226,394L1290,344Z" fill="#75bad4" stroke="#75bad4" stroke-width="1.51"></path>
  <path d="M1238,298L1238,339L1290,344Z" fill="#7fbed7" stroke="#7fbed7" stroke-width="1.51"></path>
  <path d="M658,461L509,473L819,488Z" fill="#a0cfe3" stroke="#a0cfe3" stroke-width="1.51"></path>
  <path d="M1226,394L1188,413L1232,475Z" fill="#69b5d2" stroke="#69b5d2" stroke-width="1.51"></path>
  <path d="M1225,221L1161,282L1238,298Z" fill="#97cade" stroke="#97cade" stroke-width="1.51"></path>
  <path d="M1199,-49L1170,-26L1246,-30Z" fill="#72bbd7" stroke="#72bbd7" stroke-width="1.51"></path>
  <path d="M1170,-26L1185,41L1246,-30Z" fill="#7ec1db" stroke="#7ec1db" stroke-width="1.51"></path>
  <path d="M1237,-92L1199,-49L1246,-30Z" fill="#67b6d4" stroke="#67b6d4" stroke-width="1.51"></path>
  <path d="M1242,87L1164,110L1250,154Z" fill="#9dcfe3" stroke="#9dcfe3" stroke-width="1.51"></path>
  <path d="M1164,110L1185,167L1250,154Z" fill="#a3d1e4" stroke="#a3d1e4" stroke-width="1.51"></path>
  <path d="M1185,167L1225,221L1250,154Z" fill="#a8d3e4" stroke="#a8d3e4" stroke-width="1.51"></path>
  <path d="M1246,-30L1185,41L1252,44Z" fill="#84c4dd" stroke="#84c4dd" stroke-width="1.51"></path>
  <path d="M1185,41L1242,87L1252,44Z" fill="#91cbe1" stroke="#91cbe1" stroke-width="1.51"></path>
  <path d="M47,-87L108,-84L230,-88Z" fill="#72bcda" stroke="#72bcda" stroke-width="1.51"></path>
  <path d="M1169,329L1226,394L1238,339Z" fill="#7abcd5" stroke="#7abcd5" stroke-width="1.51"></path>
  <path d="M1169,329L1238,339L1238,298Z" fill="#84c1d8" stroke="#84c1d8" stroke-width="1.51"></path>
  <path d="M1185,41L1164,110L1242,87Z" fill="#98cde2" stroke="#98cde2" stroke-width="1.51"></path>
  <path d="M1160,224L1161,282L1225,221Z" fill="#a1cfe1" stroke="#a1cfe1" stroke-width="1.51"></path>
  <path d="M1188,413L1169,474L1232,475Z" fill="#64b3d1" stroke="#64b3d1" stroke-width="1.51"></path>
  <path d="M1118,-77L1199,-49L1237,-92Z" fill="#65b4d4" stroke="#65b4d4" stroke-width="1.51"></path>
  <path d="M1161,282L1169,329L1238,298Z" fill="#8dc5db" stroke="#8dc5db" stroke-width="1.51"></path>
  <path d="M1169,329L1188,413L1226,394Z" fill="#76bbd5" stroke="#76bbd5" stroke-width="1.51"></path>
  <path d="M1185,167L1160,224L1225,221Z" fill="#add5e5" stroke="#add5e5" stroke-width="1.51"></path>
  <path d="M887,471L819,488L998,478Z" fill="#80bfd9" stroke="#80bfd9" stroke-width="1.51"></path>
  <path d="M1081,463L998,478L1133,477Z" fill="#6cb6d3" stroke="#6cb6d3" stroke-width="1.51"></path>
  <path d="M1141,59L1164,110L1185,41Z" fill="#99cee3" stroke="#99cee3" stroke-width="1.51"></path>
  <path d="M1170,-26L1141,-16L1185,41Z" fill="#83c3dc" stroke="#83c3dc" stroke-width="1.51"></path>
  <path d="M1169,329L1138,416L1188,413Z" fill="#78bbd5" stroke="#78bbd5" stroke-width="1.51"></path>
  <path d="M1138,416L1169,474L1188,413Z" fill="#6cb6d3" stroke="#6cb6d3" stroke-width="1.51"></path>
  <path d="M1118,-77L1170,-26L1199,-49Z" fill="#70b9d6" stroke="#70b9d6" stroke-width="1.51"></path>
  <path d="M1127,328L1138,416L1169,329Z" fill="#7fbed6" stroke="#7fbed6" stroke-width="1.51"></path>
  <path d="M1109,164L1160,224L1185,167Z" fill="#aed6e5" stroke="#aed6e5" stroke-width="1.51"></path>
  <path d="M1164,110L1127,119L1185,167Z" fill="#a4d2e4" stroke="#a4d2e4" stroke-width="1.51"></path>
  <path d="M1141,-16L1141,59L1185,41Z" fill="#8ec8e0" stroke="#8ec8e0" stroke-width="1.51"></path>
  <path d="M1160,224L1139,275L1161,282Z" fill="#9ecddf" stroke="#9ecddf" stroke-width="1.51"></path>
  <path d="M1127,119L1109,164L1185,167Z" fill="#a9d4e5" stroke="#a9d4e5" stroke-width="1.51"></path>
  <path d="M950,469L887,471L998,478Z" fill="#7bbdd7" stroke="#7bbdd7" stroke-width="1.51"></path>
  <path d="M1109,164L1115,221L1160,224Z" fill="#b1d7e6" stroke="#b1d7e6" stroke-width="1.51"></path>
  <path d="M1139,275L1127,328L1161,282Z" fill="#93c8dc" stroke="#93c8dc" stroke-width="1.51"></path>
  <path d="M1141,59L1127,119L1164,110Z" fill="#9fd0e3" stroke="#9fd0e3" stroke-width="1.51"></path>
  <path d="M1138,416L1133,477L1169,474Z" fill="#69b5d2" stroke="#69b5d2" stroke-width="1.51"></path>
  <path d="M1161,282L1127,328L1169,329Z" fill="#8dc5da" stroke="#8dc5da" stroke-width="1.51"></path>
  <path d="M1118,-77L1141,-16L1170,-26Z" fill="#77bcd7" stroke="#77bcd7" stroke-width="1.51"></path>
  <path d="M1115,221L1139,275L1160,224Z" fill="#a5d1e1" stroke="#a5d1e1" stroke-width="1.51"></path>
  <path d="M1080,28L1141,59L1141,-16Z" fill="#90c9e0" stroke="#90c9e0" stroke-width="1.51"></path>
  <path d="M1040,364L1072,428L1127,328Z" fill="#82bfd6" stroke="#82bfd6" stroke-width="1.51"></path>
  <path d="M1127,328L1072,428L1138,416Z" fill="#7bbcd5" stroke="#7bbcd5" stroke-width="1.51"></path>
  <path d="M1081,463L1133,477L1138,416Z" fill="#6cb6d3" stroke="#6cb6d3" stroke-width="1.51"></path>
  <path d="M1072,428L1081,463L1138,416Z" fill="#72b9d4" stroke="#72b9d4" stroke-width="1.51"></path>
  <path d="M1053,275L1127,328L1139,275Z" fill="#97cadc" stroke="#97cadc" stroke-width="1.51"></path>
  <path d="M1060,108L1127,119L1141,59Z" fill="#a2d2e4" stroke="#a2d2e4" stroke-width="1.51"></path>
  <path d="M1080,28L1060,108L1141,59Z" fill="#9ed0e4" stroke="#9ed0e4" stroke-width="1.51"></path>
  <path d="M1058,6L1080,28L1141,-16Z" fill="#8cc7de" stroke="#8cc7de" stroke-width="1.51"></path>
  <path d="M1072,-54L1058,6L1141,-16Z" fill="#82c2db" stroke="#82c2db" stroke-width="1.51"></path>
  <path d="M1118,-77L1072,-54L1141,-16Z" fill="#76bcd7" stroke="#76bcd7" stroke-width="1.51"></path>
  <path d="M1115,221L1053,275L1139,275Z" fill="#a3cfe0" stroke="#a3cfe0" stroke-width="1.51"></path>
  <path d="M1011,-87L1072,-54L1118,-77Z" fill="#70b9d5" stroke="#70b9d5" stroke-width="1.51"></path>
  <path d="M1053,275L1040,364L1127,328Z" fill="#90c6da" stroke="#90c6da" stroke-width="1.51"></path>
  <path d="M1060,108L1109,164L1127,119Z" fill="#a9d5e5" stroke="#a9d5e5" stroke-width="1.51"></path>
  <path d="M1109,164L1057,181L1115,221Z" fill="#b3d8e6" stroke="#b3d8e6" stroke-width="1.51"></path>
  <path d="M1042,214L1053,275L1115,221Z" fill="#acd4e3" stroke="#acd4e3" stroke-width="1.51"></path>
  <path d="M1057,181L1042,214L1115,221Z" fill="#b5d9e6" stroke="#b5d9e6" stroke-width="1.51"></path>
  <path d="M1060,108L1057,181L1109,164Z" fill="#aed6e6" stroke="#aed6e6" stroke-width="1.51"></path>
  <path d="M1020,171L1057,181L1060,108Z" fill="#b1d8e6" stroke="#b1d8e6" stroke-width="1.51"></path>
  <path d="M1040,364L1021,405L1072,428Z" fill="#7fbed6" stroke="#7fbed6" stroke-width="1.51"></path>
  <path d="M1058,6L1020,6L1080,28Z" fill="#92cadf" stroke="#92cadf" stroke-width="1.51"></path>
  <path d="M1020,6L989,57L1080,28Z" fill="#9acee2" stroke="#9acee2" stroke-width="1.51"></path>
  <path d="M989,57L1007,95L1080,28Z" fill="#a2d2e4" stroke="#a2d2e4" stroke-width="1.51"></path>
  <path d="M1007,95L1060,108L1080,28Z" fill="#a3d3e4" stroke="#a3d3e4" stroke-width="1.51"></path>
  <path d="M1072,428L998,478L1081,463Z" fill="#71b8d4" stroke="#71b8d4" stroke-width="1.51"></path>
  <path d="M1042,214L1015,227L1053,275Z" fill="#add5e3" stroke="#add5e3" stroke-width="1.51"></path>
  <path d="M1019,270L1040,364L1053,275Z" fill="#99cadc" stroke="#99cadc" stroke-width="1.51"></path>
  <path d="M1021,405L998,478L1072,428Z" fill="#77bbd5" stroke="#77bbd5" stroke-width="1.51"></path>
  <path d="M1020,6L1058,6L1072,-54Z" fill="#88c4dc" stroke="#88c4dc" stroke-width="1.51"></path>
  <path d="M1011,-87L1020,6L1072,-54Z" fill="#7ec0d9" stroke="#7ec0d9" stroke-width="1.51"></path>
  <path d="M820,-93L938,-55L1011,-87Z" fill="#80c0d9" stroke="#80c0d9" stroke-width="1.51"></path>
  <path d="M1019,270L999,370L1040,364Z" fill="#91c6d9" stroke="#91c6d9" stroke-width="1.51"></path>
  <path d="M1015,227L1019,270L1053,275Z" fill="#a9d2e2" stroke="#a9d2e2" stroke-width="1.51"></path>
  <path d="M1007,95L1020,171L1060,108Z" fill="#aed7e6" stroke="#aed7e6" stroke-width="1.51"></path>
  <path d="M958,329L999,370L1019,270Z" fill="#98cadc" stroke="#98cadc" stroke-width="1.51"></path>
  <path d="M1020,171L1042,214L1057,181Z" fill="#b7dae7" stroke="#b7dae7" stroke-width="1.51"></path>
  <path d="M1011,-87L960,-10L1020,6Z" fill="#88c4dc" stroke="#88c4dc" stroke-width="1.51"></path>
  <path d="M999,370L1021,405L1040,364Z" fill="#85c1d7" stroke="#85c1d7" stroke-width="1.51"></path>
  <path d="M1020,171L1015,227L1042,214Z" fill="#b9dbe7" stroke="#b9dbe7" stroke-width="1.51"></path>
  <path d="M321,480L268,479L397,488Z" fill="#8bc7e0" stroke="#8bc7e0" stroke-width="1.51"></path>
  <path d="M820,-93L872,-59L938,-55Z" fill="#8ac5dc" stroke="#8ac5dc" stroke-width="1.51"></path>
  <path d="M938,-55L960,-10L1011,-87Z" fill="#84c2db" stroke="#84c2db" stroke-width="1.51"></path>
  <path d="M942,290L958,329L1019,270Z" fill="#a3cfdf" stroke="#a3cfdf" stroke-width="1.51"></path>
  <path d="M1015,227L941,232L1019,270Z" fill="#b1d7e4" stroke="#b1d7e4" stroke-width="1.51"></path>
  <path d="M1007,95L941,105L1020,171Z" fill="#b2d9e7" stroke="#b2d9e7" stroke-width="1.51"></path>
  <path d="M941,105L923,159L1020,171Z" fill="#b8dce9" stroke="#b8dce9" stroke-width="1.51"></path>
  <path d="M941,232L1015,227L1020,171Z" fill="#bbdce8" stroke="#bbdce8" stroke-width="1.51"></path>
  <path d="M923,159L941,232L1020,171Z" fill="#c0dfea" stroke="#c0dfea" stroke-width="1.51"></path>
  <path d="M960,-10L989,57L1020,6Z" fill="#9acde1" stroke="#9acde1" stroke-width="1.51"></path>
  <path d="M950,469L998,478L1021,405Z" fill="#7abcd6" stroke="#7abcd6" stroke-width="1.51"></path>
  <path d="M999,370L929,409L1021,405Z" fill="#87c2d8" stroke="#87c2d8" stroke-width="1.51"></path>
  <path d="M929,409L950,469L1021,405Z" fill="#82bfd7" stroke="#82bfd7" stroke-width="1.51"></path>
  <path d="M941,232L942,290L1019,270Z" fill="#add5e3" stroke="#add5e3" stroke-width="1.51"></path>
  <path d="M989,57L941,105L1007,95Z" fill="#acd7e7" stroke="#acd7e7" stroke-width="1.51"></path>
  <path d="M958,329L929,409L999,370Z" fill="#8fc5da" stroke="#8fc5da" stroke-width="1.51"></path>
  <path d="M960,-10L921,59L989,57Z" fill="#a4d3e5" stroke="#a4d3e5" stroke-width="1.51"></path>
  <path d="M921,59L941,105L989,57Z" fill="#aed8e7" stroke="#aed8e7" stroke-width="1.51"></path>
  <path d="M891,332L929,409L958,329Z" fill="#96c9dc" stroke="#96c9dc" stroke-width="1.51"></path>
  <path d="M888,34L921,59L960,-10Z" fill="#a6d4e6" stroke="#a6d4e6" stroke-width="1.51"></path>
  <path d="M938,-55L878,-5L960,-10Z" fill="#94cae0" stroke="#94cae0" stroke-width="1.51"></path>
  <path d="M878,-5L888,34L960,-10Z" fill="#a0d1e4" stroke="#a0d1e4" stroke-width="1.51"></path>
  <path d="M942,290L891,332L958,329Z" fill="#a2cfdf" stroke="#a2cfdf" stroke-width="1.51"></path>
  <path d="M923,159L879,175L941,232Z" fill="#c5e2ec" stroke="#c5e2ec" stroke-width="1.51"></path>
  <path d="M941,232L868,243L942,290Z" fill="#b6dae6" stroke="#b6dae6" stroke-width="1.51"></path>
  <path d="M929,409L887,471L950,469Z" fill="#83c0d9" stroke="#83c0d9" stroke-width="1.51"></path>
  <path d="M891,332L883,415L929,409Z" fill="#94c8db" stroke="#94c8db" stroke-width="1.51"></path>
  <path d="M883,415L887,471L929,409Z" fill="#8ac4da" stroke="#8ac4da" stroke-width="1.51"></path>
  <path d="M872,-59L878,-5L938,-55Z" fill="#92c9df" stroke="#92c9df" stroke-width="1.51"></path>
  <path d="M879,175L868,243L941,232Z" fill="#c4e1eb" stroke="#c4e1eb" stroke-width="1.51"></path>
  <path d="M867,112L923,159L941,105Z" fill="#bcdeeb" stroke="#bcdeeb" stroke-width="1.51"></path>
  <path d="M921,59L867,112L941,105Z" fill="#b6dcea" stroke="#b6dcea" stroke-width="1.51"></path>
  <path d="M868,243L880,302L942,290Z" fill="#b2d7e4" stroke="#b2d7e4" stroke-width="1.51"></path>
  <path d="M880,302L891,332L942,290Z" fill="#a8d2e1" stroke="#a8d2e1" stroke-width="1.51"></path>
  <path d="M888,34L867,112L921,59Z" fill="#b4dbea" stroke="#b4dbea" stroke-width="1.51"></path>
  <path d="M867,112L879,175L923,159Z" fill="#c2e1ec" stroke="#c2e1ec" stroke-width="1.51"></path>
  <path d="M817,225L868,243L879,175Z" fill="#cae4ed" stroke="#cae4ed" stroke-width="1.51"></path>
  <path d="M868,243L833,271L880,302Z" fill="#b8dae7" stroke="#b8dae7" stroke-width="1.51"></path>
  <path d="M820,365L821,390L883,415Z" fill="#9acbde" stroke="#9acbde" stroke-width="1.51"></path>
  <path d="M883,415L819,488L887,471Z" fill="#89c4db" stroke="#89c4db" stroke-width="1.51"></path>
  <path d="M821,57L867,112L888,34Z" fill="#b8ddeb" stroke="#b8ddeb" stroke-width="1.51"></path>
  <path d="M820,365L883,415L891,332Z" fill="#9bcbde" stroke="#9bcbde" stroke-width="1.51"></path>
  <path d="M880,302L820,365L891,332Z" fill="#a5d0e0" stroke="#a5d0e0" stroke-width="1.51"></path>
  <path d="M821,390L819,488L883,415Z" fill="#92c8dd" stroke="#92c8dd" stroke-width="1.51"></path>
  <path d="M878,-5L825,-1L888,34Z" fill="#a7d4e6" stroke="#a7d4e6" stroke-width="1.51"></path>
  <path d="M825,-1L821,57L888,34Z" fill="#b0dae9" stroke="#b0dae9" stroke-width="1.51"></path>
  <path d="M872,-59L825,-1L878,-5Z" fill="#9dcee3" stroke="#9dcee3" stroke-width="1.51"></path>
  <path d="M867,112L798,166L879,175Z" fill="#c7e4ee" stroke="#c7e4ee" stroke-width="1.51"></path>
  <path d="M833,271L820,365L880,302Z" fill="#aed5e3" stroke="#aed5e3" stroke-width="1.51"></path>
  <path d="M798,166L817,225L879,175Z" fill="#cfe7ef" stroke="#cfe7ef" stroke-width="1.51"></path>
  <path d="M801,114L798,166L867,112Z" fill="#c7e4ee" stroke="#c7e4ee" stroke-width="1.51"></path>
  <path d="M774,461L658,461L819,488Z" fill="#96cadf" stroke="#96cadf" stroke-width="1.51"></path>
  <path d="M820,-93L825,-1L872,-59Z" fill="#95cae0" stroke="#95cae0" stroke-width="1.51"></path>
  <path d="M821,57L801,114L867,112Z" fill="#c0e1ed" stroke="#c0e1ed" stroke-width="1.51"></path>
  <path d="M817,225L833,271L868,243Z" fill="#c2e0ea" stroke="#c2e0ea" stroke-width="1.51"></path>
  <path d="M461,-91L511,-76L644,-79Z" fill="#9dcfe4" stroke="#9dcfe4" stroke-width="1.51"></path>
  <path d="M779,342L820,365L833,271Z" fill="#add5e3" stroke="#add5e3" stroke-width="1.51"></path>
  <path d="M700,448L658,461L774,461Z" fill="#9dcee1" stroke="#9dcee1" stroke-width="1.51"></path>
  <path d="M774,461L819,488L821,390Z" fill="#94c8de" stroke="#94c8de" stroke-width="1.51"></path>
  <path d="M778,104L801,114L821,57Z" fill="#c4e3ee" stroke="#c4e3ee" stroke-width="1.51"></path>
  <path d="M820,-93L775,-91L825,-1Z" fill="#96cae0" stroke="#96cae0" stroke-width="1.51"></path>
  <path d="M775,-91L754,9L825,-1Z" fill="#a4d2e5" stroke="#a4d2e5" stroke-width="1.51"></path>
  <path d="M782,56L821,57L825,-1Z" fill="#b7deec" stroke="#b7deec" stroke-width="1.51"></path>
  <path d="M817,225L771,281L833,271Z" fill="#c3e0eb" stroke="#c3e0eb" stroke-width="1.51"></path>
  <path d="M771,281L779,342L833,271Z" fill="#b8dbe7" stroke="#b8dbe7" stroke-width="1.51"></path>
  <path d="M740,426L774,461L821,390Z" fill="#9bccdf" stroke="#9bccdf" stroke-width="1.51"></path>
  <path d="M782,56L778,104L821,57Z" fill="#c1e2ee" stroke="#c1e2ee" stroke-width="1.51"></path>
  <path d="M754,9L782,56L825,-1Z" fill="#b4dceb" stroke="#b4dceb" stroke-width="1.51"></path>
  <path d="M747,248L771,281L817,225Z" fill="#c8e3ec" stroke="#c8e3ec" stroke-width="1.51"></path>
  <path d="M820,365L779,342L821,390Z" fill="#a3d0e0" stroke="#a3d0e0" stroke-width="1.51"></path>
  <path d="M779,342L740,426L821,390Z" fill="#a3d0e0" stroke="#a3d0e0" stroke-width="1.51"></path>
  <path d="M798,166L747,248L817,225Z" fill="#d3e9f0" stroke="#d3e9f0" stroke-width="1.51"></path>
  <path d="M717,-52L754,9L775,-91Z" fill="#a3d2e5" stroke="#a3d2e5" stroke-width="1.51"></path>
  <path d="M600,453L509,473L658,461Z" fill="#a2d0e3" stroke="#a2d0e3" stroke-width="1.51"></path>
  <path d="M758,157L747,248L798,166Z" fill="#d8ecf2" stroke="#d8ecf2" stroke-width="1.51"></path>
  <path d="M758,157L798,166L801,114Z" fill="#cee8f0" stroke="#cee8f0" stroke-width="1.51"></path>
  <path d="M778,104L758,157L801,114Z" fill="#cbe7f0" stroke="#cbe7f0" stroke-width="1.51"></path>
  <path d="M511,-76L582,-67L644,-79Z" fill="#a2d2e5" stroke="#a2d2e5" stroke-width="1.51"></path>
  <path d="M703,222L747,248L758,157Z" fill="#daedf3" stroke="#daedf3" stroke-width="1.51"></path>
  <path d="M644,-79L717,-52L775,-91Z" fill="#9ecee3" stroke="#9ecee3" stroke-width="1.51"></path>
  <path d="M706,36L703,128L778,104Z" fill="#cce8f2" stroke="#cce8f2" stroke-width="1.51"></path>
  <path d="M688,358L740,426L779,342Z" fill="#aad3e3" stroke="#aad3e3" stroke-width="1.51"></path>
  <path d="M771,281L719,269L779,342Z" fill="#bddde8" stroke="#bddde8" stroke-width="1.51"></path>
  <path d="M719,269L688,358L779,342Z" fill="#b8dbe7" stroke="#b8dbe7" stroke-width="1.51"></path>
  <path d="M706,36L778,104L782,56Z" fill="#c5e5f0" stroke="#c5e5f0" stroke-width="1.51"></path>
  <path d="M754,9L706,36L782,56Z" fill="#bde1ee" stroke="#bde1ee" stroke-width="1.51"></path>
  <path d="M703,128L758,157L778,104Z" fill="#d0e9f2" stroke="#d0e9f2" stroke-width="1.51"></path>
  <path d="M703,128L714,152L758,157Z" fill="#d5ecf3" stroke="#d5ecf3" stroke-width="1.51"></path>
  <path d="M714,152L703,222L758,157Z" fill="#dbeef4" stroke="#dbeef4" stroke-width="1.51"></path>
  <path d="M740,426L700,448L774,461Z" fill="#9ccde0" stroke="#9ccde0" stroke-width="1.51"></path>
  <path d="M747,248L719,269L771,281Z" fill="#c8e3ec" stroke="#c8e3ec" stroke-width="1.51"></path>
  <path d="M688,358L678,401L740,426Z" fill="#aad4e4" stroke="#aad4e4" stroke-width="1.51"></path>
  <path d="M717,-52L690,-23L754,9Z" fill="#aed7e9" stroke="#aed7e9" stroke-width="1.51"></path>
  <path d="M690,-23L706,36L754,9Z" fill="#b8deec" stroke="#b8deec" stroke-width="1.51"></path>
  <path d="M703,222L719,269L747,248Z" fill="#d0e8ef" stroke="#d0e8ef" stroke-width="1.51"></path>
  <path d="M645,310L688,358L719,269Z" fill="#c1dfea" stroke="#c1dfea" stroke-width="1.51"></path>
  <path d="M678,401L700,448L740,426Z" fill="#a4d1e2" stroke="#a4d1e2" stroke-width="1.51"></path>
  <path d="M634,59L703,128L706,36Z" fill="#cfeaf3" stroke="#cfeaf3" stroke-width="1.51"></path>
  <path d="M650,158L703,222L714,152Z" fill="#def0f5" stroke="#def0f5" stroke-width="1.51"></path>
  <path d="M703,222L625,228L719,269Z" fill="#d7ebf1" stroke="#d7ebf1" stroke-width="1.51"></path>
  <path d="M625,228L645,310L719,269Z" fill="#d1e8ef" stroke="#d1e8ef" stroke-width="1.51"></path>
  <path d="M644,-79L690,-23L717,-52Z" fill="#a9d4e7" stroke="#a9d4e7" stroke-width="1.51"></path>
  <path d="M634,59L621,108L703,128Z" fill="#d6edf5" stroke="#d6edf5" stroke-width="1.51"></path>
  <path d="M703,128L650,158L714,152Z" fill="#daeff5" stroke="#daeff5" stroke-width="1.51"></path>
  <path d="M678,401L655,417L700,448Z" fill="#a8d3e4" stroke="#a8d3e4" stroke-width="1.51"></path>
  <path d="M650,158L625,228L703,222Z" fill="#e5f3f7" stroke="#e5f3f7" stroke-width="1.51"></path>
  <path d="M690,-23L641,-8L706,36Z" fill="#bbdfed" stroke="#bbdfed" stroke-width="1.51"></path>
  <path d="M641,-8L634,59L706,36Z" fill="#c7e5f1" stroke="#c7e5f1" stroke-width="1.51"></path>
  <path d="M621,108L650,158L703,128Z" fill="#dbeff6" stroke="#dbeff6" stroke-width="1.51"></path>
  <path d="M655,417L658,461L700,448Z" fill="#a6d2e3" stroke="#a6d2e3" stroke-width="1.51"></path>
  <path d="M618,341L678,401L688,358Z" fill="#b5d9e6" stroke="#b5d9e6" stroke-width="1.51"></path>
  <path d="M645,310L618,341L688,358Z" fill="#bedee9" stroke="#bedee9" stroke-width="1.51"></path>
  <path d="M644,-79L641,-8L690,-23Z" fill="#b1d9e9" stroke="#b1d9e9" stroke-width="1.51"></path>
  <path d="M618,341L655,417L678,401Z" fill="#b3d8e6" stroke="#b3d8e6" stroke-width="1.51"></path>
  <path d="M230,-88L349,-69L461,-91Z" fill="#8fc9e2" stroke="#8fc9e2" stroke-width="1.51"></path>
  <path d="M599,41L634,59L641,-8Z" fill="#c9e7f2" stroke="#c9e7f2" stroke-width="1.51"></path>
  <path d="M591,-25L641,-8L644,-79Z" fill="#b2d9ea" stroke="#b2d9ea" stroke-width="1.51"></path>
  <path d="M625,228L602,226L645,310Z" fill="#d7ebf2" stroke="#d7ebf2" stroke-width="1.51"></path>
  <path d="M602,226L625,228L650,158Z" fill="#e6f4f7" stroke="#e6f4f7" stroke-width="1.51"></path>
  <path d="M618,341L570,402L655,417Z" fill="#b2d8e6" stroke="#b2d8e6" stroke-width="1.51"></path>
  <path d="M655,417L600,453L658,461Z" fill="#a9d3e4" stroke="#a9d3e4" stroke-width="1.51"></path>
  <path d="M602,226L559,306L645,310Z" fill="#cee6ef" stroke="#cee6ef" stroke-width="1.51"></path>
  <path d="M568,155L602,226L650,158Z" fill="#e3f2f7" stroke="#e3f2f7" stroke-width="1.51"></path>
  <path d="M570,402L600,453L655,417Z" fill="#abd4e5" stroke="#abd4e5" stroke-width="1.51"></path>
  <path d="M582,-67L591,-25L644,-79Z" fill="#aad5e7" stroke="#aad5e7" stroke-width="1.51"></path>
  <path d="M621,108L568,155L650,158Z" fill="#ddf0f7" stroke="#ddf0f7" stroke-width="1.51"></path>
  <path d="M559,306L618,341L645,310Z" fill="#c2e0eb" stroke="#c2e0eb" stroke-width="1.51"></path>
  <path d="M591,-25L599,41L641,-8Z" fill="#bee1ef" stroke="#bee1ef" stroke-width="1.51"></path>
  <path d="M567,360L570,402L618,341Z" fill="#b4d9e7" stroke="#b4d9e7" stroke-width="1.51"></path>
  <path d="M599,41L621,108L634,59Z" fill="#d2ecf5" stroke="#d2ecf5" stroke-width="1.51"></path>
  <path d="M599,41L534,92L621,108Z" fill="#d1ebf5" stroke="#d1ebf5" stroke-width="1.51"></path>
  <path d="M534,92L562,128L621,108Z" fill="#d5edf6" stroke="#d5edf6" stroke-width="1.51"></path>
  <path d="M562,128L568,155L621,108Z" fill="#daeff6" stroke="#daeff6" stroke-width="1.51"></path>
  <path d="M559,306L567,360L618,341Z" fill="#bcdde9" stroke="#bcdde9" stroke-width="1.51"></path>
  <path d="M500,228L515,294L559,306Z" fill="#cae5ef" stroke="#cae5ef" stroke-width="1.51"></path>
  <path d="M523,56L534,92L599,41Z" fill="#cce9f4" stroke="#cce9f4" stroke-width="1.51"></path>
  <path d="M591,-25L533,3L599,41Z" fill="#bde0ef" stroke="#bde0ef" stroke-width="1.51"></path>
  <path d="M500,228L559,306L602,226Z" fill="#d3e9f1" stroke="#d3e9f1" stroke-width="1.51"></path>
  <path d="M568,155L527,169L602,226Z" fill="#e1f2f7" stroke="#e1f2f7" stroke-width="1.51"></path>
  <path d="M527,169L500,228L602,226Z" fill="#e0f1f6" stroke="#e0f1f6" stroke-width="1.51"></path>
  <path d="M570,402L534,407L600,453Z" fill="#a9d4e5" stroke="#a9d4e5" stroke-width="1.51"></path>
  <path d="M534,407L509,473L600,453Z" fill="#a2d1e3" stroke="#a2d1e3" stroke-width="1.51"></path>
  <path d="M533,3L523,56L599,41Z" fill="#c5e5f2" stroke="#c5e5f2" stroke-width="1.51"></path>
  <path d="M582,-67L533,3L591,-25Z" fill="#b1d9eb" stroke="#b1d9eb" stroke-width="1.51"></path>
  <path d="M511,-76L533,3L582,-67Z" fill="#a9d6e8" stroke="#a9d6e8" stroke-width="1.51"></path>
  <path d="M559,306L509,360L567,360Z" fill="#b7dbe8" stroke="#b7dbe8" stroke-width="1.51"></path>
  <path d="M509,360L534,407L567,360Z" fill="#afd7e6" stroke="#afd7e6" stroke-width="1.51"></path>
  <path d="M567,360L534,407L570,402Z" fill="#aed7e5" stroke="#aed7e5" stroke-width="1.51"></path>
  <path d="M562,128L527,169L568,155Z" fill="#dbeff6" stroke="#dbeff6" stroke-width="1.51"></path>
  <path d="M515,294L509,360L559,306Z" fill="#bddeea" stroke="#bddeea" stroke-width="1.51"></path>
  <path d="M534,92L527,169L562,128Z" fill="#d6eef6" stroke="#d6eef6" stroke-width="1.51"></path>
  <path d="M349,-69L379,-67L461,-91Z" fill="#95cce3" stroke="#95cce3" stroke-width="1.51"></path>
  <path d="M438,464L397,488L509,473Z" fill="#95cce1" stroke="#95cce1" stroke-width="1.51"></path>
  <path d="M463,88L450,161L527,169Z" fill="#d5ecf5" stroke="#d5ecf5" stroke-width="1.51"></path>
  <path d="M511,-76L455,10L533,3Z" fill="#afd9eb" stroke="#afd9eb" stroke-width="1.51"></path>
  <path d="M471,54L523,56L533,3Z" fill="#c3e5f2" stroke="#c3e5f2" stroke-width="1.51"></path>
  <path d="M455,10L471,54L533,3Z" fill="#bce1f0" stroke="#bce1f0" stroke-width="1.51"></path>
  <path d="M509,360L457,410L534,407Z" fill="#aad5e5" stroke="#aad5e5" stroke-width="1.51"></path>
  <path d="M457,410L509,473L534,407Z" fill="#a2d1e3" stroke="#a2d1e3" stroke-width="1.51"></path>
  <path d="M463,88L527,169L534,92Z" fill="#d2ecf5" stroke="#d2ecf5" stroke-width="1.51"></path>
  <path d="M523,56L463,88L534,92Z" fill="#cce9f4" stroke="#cce9f4" stroke-width="1.51"></path>
  <path d="M464,305L460,339L509,360Z" fill="#b5dae8" stroke="#b5dae8" stroke-width="1.51"></path>
  <path d="M464,305L509,360L515,294Z" fill="#bbdde9" stroke="#bbdde9" stroke-width="1.51"></path>
  <path d="M471,54L463,88L523,56Z" fill="#c8e8f4" stroke="#c8e8f4" stroke-width="1.51"></path>
  <path d="M450,161L500,228L527,169Z" fill="#ddf0f6" stroke="#ddf0f6" stroke-width="1.51"></path>
  <path d="M461,-91L455,10L511,-76Z" fill="#a3d3e6" stroke="#a3d3e6" stroke-width="1.51"></path>
  <path d="M500,228L464,305L515,294Z" fill="#c8e4ee" stroke="#c8e4ee" stroke-width="1.51"></path>
  <path d="M450,161L453,225L500,228Z" fill="#dceff6" stroke="#dceff6" stroke-width="1.51"></path>
  <path d="M453,225L464,305L500,228Z" fill="#cee8f1" stroke="#cee8f1" stroke-width="1.51"></path>
  <path d="M457,410L438,464L509,473Z" fill="#9ccee3" stroke="#9ccee3" stroke-width="1.51"></path>
  <path d="M460,339L457,410L509,360Z" fill="#acd6e6" stroke="#acd6e6" stroke-width="1.51"></path>
  <path d="M408,-18L455,10L461,-91Z" fill="#a7d5e9" stroke="#a7d5e9" stroke-width="1.51"></path>
  <path d="M204,463L99,466L268,479Z" fill="#7dc1dc" stroke="#7dc1dc" stroke-width="1.51"></path>
  <path d="M450,161L413,187L453,225Z" fill="#daeff6" stroke="#daeff6" stroke-width="1.51"></path>
  <path d="M388,364L457,410L460,339Z" fill="#a9d5e5" stroke="#a9d5e5" stroke-width="1.51"></path>
  <path d="M379,-67L408,-18L461,-91Z" fill="#9cd0e5" stroke="#9cd0e5" stroke-width="1.51"></path>
  <path d="M385,121L450,161L463,88Z" fill="#ceeaf4" stroke="#ceeaf4" stroke-width="1.51"></path>
  <path d="M453,225L402,241L464,305Z" fill="#cae6f0" stroke="#cae6f0" stroke-width="1.51"></path>
  <path d="M402,241L400,308L464,305Z" fill="#c0e1ed" stroke="#c0e1ed" stroke-width="1.51"></path>
  <path d="M398,57L463,88L471,54Z" fill="#c6e7f3" stroke="#c6e7f3" stroke-width="1.51"></path>
  <path d="M455,10L398,57L471,54Z" fill="#c0e3f2" stroke="#c0e3f2" stroke-width="1.51"></path>
  <path d="M400,308L460,339L464,305Z" fill="#b8dce9" stroke="#b8dce9" stroke-width="1.51"></path>
  <path d="M398,57L385,121L463,88Z" fill="#c8e7f4" stroke="#c8e7f4" stroke-width="1.51"></path>
  <path d="M378,419L438,464L457,410Z" fill="#9ccfe3" stroke="#9ccfe3" stroke-width="1.51"></path>
  <path d="M400,308L388,364L460,339Z" fill="#b0d8e7" stroke="#b0d8e7" stroke-width="1.51"></path>
  <path d="M388,364L378,419L457,410Z" fill="#a2d2e4" stroke="#a2d2e4" stroke-width="1.51"></path>
  <path d="M408,-18L398,57L455,10Z" fill="#b6deef" stroke="#b6deef" stroke-width="1.51"></path>
  <path d="M413,187L402,241L453,225Z" fill="#d5ecf4" stroke="#d5ecf4" stroke-width="1.51"></path>
  <path d="M385,121L413,187L450,161Z" fill="#d3ecf5" stroke="#d3ecf5" stroke-width="1.51"></path>
  <path d="M378,419L397,488L438,464Z" fill="#96cce2" stroke="#96cce2" stroke-width="1.51"></path>
  <path d="M378,419L348,431L397,488Z" fill="#96cce2" stroke="#96cce2" stroke-width="1.51"></path>
  <path d="M331,-28L333,64L398,57Z" fill="#b7e0ef" stroke="#b7e0ef" stroke-width="1.51"></path>
  <path d="M357,115L385,121L398,57Z" fill="#c7e7f3" stroke="#c7e7f3" stroke-width="1.51"></path>
  <path d="M344,290L400,308L402,241Z" fill="#bfe1ed" stroke="#bfe1ed" stroke-width="1.51"></path>
  <path d="M331,-28L398,57L408,-18Z" fill="#afdbed" stroke="#afdbed" stroke-width="1.51"></path>
  <path d="M335,225L402,241L413,187Z" fill="#d3ebf4" stroke="#d3ebf4" stroke-width="1.51"></path>
  <path d="M351,167L335,225L413,187Z" fill="#d6edf6" stroke="#d6edf6" stroke-width="1.51"></path>
  <path d="M385,121L351,167L413,187Z" fill="#d1ebf5" stroke="#d1ebf5" stroke-width="1.51"></path>
  <path d="M379,-67L331,-28L408,-18Z" fill="#a0d3e7" stroke="#a0d3e7" stroke-width="1.51"></path>
  <path d="M333,64L357,115L398,57Z" fill="#c3e6f2" stroke="#c3e6f2" stroke-width="1.51"></path>
  <path d="M331,342L388,364L400,308Z" fill="#add7e7" stroke="#add7e7" stroke-width="1.51"></path>
  <path d="M344,290L331,342L400,308Z" fill="#b4dbe9" stroke="#b4dbe9" stroke-width="1.51"></path>
  <path d="M335,225L344,290L402,241Z" fill="#c7e5f0" stroke="#c7e5f0" stroke-width="1.51"></path>
  <path d="M348,431L321,480L397,488Z" fill="#90cae1" stroke="#90cae1" stroke-width="1.51"></path>
  <path d="M331,342L348,431L378,419Z" fill="#9ed0e4" stroke="#9ed0e4" stroke-width="1.51"></path>
  <path d="M349,-69L331,-28L379,-67Z" fill="#99cfe5" stroke="#99cfe5" stroke-width="1.51"></path>
  <path d="M357,115L351,167L385,121Z" fill="#cce9f4" stroke="#cce9f4" stroke-width="1.51"></path>
  <path d="M331,342L378,419L388,364Z" fill="#a4d2e4" stroke="#a4d2e4" stroke-width="1.51"></path>
  <path d="M331,-28L295,31L333,64Z" fill="#b1ddee" stroke="#b1ddee" stroke-width="1.51"></path>
  <path d="M230,-88L258,-64L349,-69Z" fill="#8dcae2" stroke="#8dcae2" stroke-width="1.51"></path>
  <path d="M289,4L295,31L331,-28Z" fill="#a9d9ec" stroke="#a9d9ec" stroke-width="1.51"></path>
  <path d="M331,342L262,410L348,431Z" fill="#9cd0e3" stroke="#9cd0e3" stroke-width="1.51"></path>
  <path d="M296,164L335,225L351,167Z" fill="#d1ebf5" stroke="#d1ebf5" stroke-width="1.51"></path>
  <path d="M333,64L263,93L357,115Z" fill="#c2e5f3" stroke="#c2e5f3" stroke-width="1.51"></path>
  <path d="M263,93L296,164L357,115Z" fill="#c6e7f3" stroke="#c6e7f3" stroke-width="1.51"></path>
  <path d="M296,164L351,167L357,115Z" fill="#cceaf4" stroke="#cceaf4" stroke-width="1.51"></path>
  <path d="M335,225L265,267L344,290Z" fill="#c1e3ee" stroke="#c1e3ee" stroke-width="1.51"></path>
  <path d="M265,348L262,410L331,342Z" fill="#a0d1e4" stroke="#a0d1e4" stroke-width="1.51"></path>
  <path d="M296,164L280,211L335,225Z" fill="#d2ecf5" stroke="#d2ecf5" stroke-width="1.51"></path>
  <path d="M258,-64L331,-28L349,-69Z" fill="#96cee5" stroke="#96cee5" stroke-width="1.51"></path>
  <path d="M262,410L321,480L348,431Z" fill="#92cbe1" stroke="#92cbe1" stroke-width="1.51"></path>
  <path d="M265,267L265,348L331,342Z" fill="#add8e8" stroke="#add8e8" stroke-width="1.51"></path>
  <path d="M265,267L331,342L344,290Z" fill="#b5dcea" stroke="#b5dcea" stroke-width="1.51"></path>
  <path d="M262,410L268,479L321,480Z" fill="#8dc9e0" stroke="#8dc9e0" stroke-width="1.51"></path>
  <path d="M280,211L265,267L335,225Z" fill="#c8e7f2" stroke="#c8e7f2" stroke-width="1.51"></path>
  <path d="M295,31L263,93L333,64Z" fill="#bbe3f2" stroke="#bbe3f2" stroke-width="1.51"></path>
  <path d="M258,-64L289,4L331,-28Z" fill="#9ed2e8" stroke="#9ed2e8" stroke-width="1.51"></path>
  <path d="M258,-64L222,2L289,4Z" fill="#9ed3e8" stroke="#9ed3e8" stroke-width="1.51"></path>
  <path d="M289,4L240,28L295,31Z" fill="#aedced" stroke="#aedced" stroke-width="1.51"></path>
  <path d="M240,28L263,93L295,31Z" fill="#b7e1f1" stroke="#b7e1f1" stroke-width="1.51"></path>
  <path d="M235,155L280,211L296,164Z" fill="#cde9f4" stroke="#cde9f4" stroke-width="1.51"></path>
  <path d="M263,93L235,155L296,164Z" fill="#c6e7f3" stroke="#c6e7f3" stroke-width="1.51"></path>
  <path d="M205,327L265,348L265,267Z" fill="#aad7e7" stroke="#aad7e7" stroke-width="1.51"></path>
  <path d="M262,410L227,420L268,479Z" fill="#8ec9e1" stroke="#8ec9e1" stroke-width="1.51"></path>
  <path d="M226,250L265,267L280,211Z" fill="#c2e4f0" stroke="#c2e4f0" stroke-width="1.51"></path>
  <path d="M222,2L240,28L289,4Z" fill="#a8d8ec" stroke="#a8d8ec" stroke-width="1.51"></path>
  <path d="M219,115L235,155L263,93Z" fill="#c0e3f1" stroke="#c0e3f1" stroke-width="1.51"></path>
  <path d="M235,155L226,250L280,211Z" fill="#cce8f3" stroke="#cce8f3" stroke-width="1.51"></path>
  <path d="M240,28L219,115L263,93Z" fill="#b9e1f1" stroke="#b9e1f1" stroke-width="1.51"></path>
  <path d="M227,420L262,410L265,348Z" fill="#97cde2" stroke="#97cde2" stroke-width="1.51"></path>
  <path d="M205,327L227,420L265,348Z" fill="#9acee2" stroke="#9acee2" stroke-width="1.51"></path>
  <path d="M207,267L205,327L265,267Z" fill="#b0dae9" stroke="#b0dae9" stroke-width="1.51"></path>
  <path d="M227,420L204,463L268,479Z" fill="#87c6df" stroke="#87c6df" stroke-width="1.51"></path>
  <path d="M226,250L207,267L265,267Z" fill="#b9dfed" stroke="#b9dfed" stroke-width="1.51"></path>
  <path d="M205,327L172,352L227,420Z" fill="#96cce1" stroke="#96cce1" stroke-width="1.51"></path>
  <path d="M168,65L219,115L240,28Z" fill="#b3deef" stroke="#b3deef" stroke-width="1.51"></path>
  <path d="M230,-88L222,2L258,-64Z" fill="#90cce3" stroke="#90cce3" stroke-width="1.51"></path>
  <path d="M166,-60L222,2L230,-88Z" fill="#8cc9e2" stroke="#8cc9e2" stroke-width="1.51"></path>
  <path d="M151,450L99,466L204,463Z" fill="#79bfdb" stroke="#79bfdb" stroke-width="1.51"></path>
  <path d="M108,-84L166,-60L230,-88Z" fill="#7cc1dd" stroke="#7cc1dd" stroke-width="1.51"></path>
  <path d="M154,236L226,250L235,155Z" fill="#c4e4f0" stroke="#c4e4f0" stroke-width="1.51"></path>
  <path d="M140,186L154,236L235,155Z" fill="#c3e3f0" stroke="#c3e3f0" stroke-width="1.51"></path>
  <path d="M222,2L168,65L240,28Z" fill="#a9d9ed" stroke="#a9d9ed" stroke-width="1.51"></path>
  <path d="M219,115L140,186L235,155Z" fill="#c0e3f1" stroke="#c0e3f1" stroke-width="1.51"></path>
  <path d="M178,281L205,327L207,267Z" fill="#abd7e7" stroke="#abd7e7" stroke-width="1.51"></path>
  <path d="M154,236L207,267L226,250Z" fill="#b7ddec" stroke="#b7ddec" stroke-width="1.51"></path>
  <path d="M172,352L147,423L227,420Z" fill="#8cc7de" stroke="#8cc7de" stroke-width="1.51"></path>
  <path d="M166,-60L143,-16L222,2Z" fill="#91cbe4" stroke="#91cbe4" stroke-width="1.51"></path>
  <path d="M147,423L204,463L227,420Z" fill="#85c5de" stroke="#85c5de" stroke-width="1.51"></path>
  <path d="M168,65L155,87L219,115Z" fill="#b2ddee" stroke="#b2ddee" stroke-width="1.51"></path>
  <path d="M155,87L140,186L219,115Z" fill="#b8dfef" stroke="#b8dfef" stroke-width="1.51"></path>
  <path d="M143,-16L168,65L222,2Z" fill="#a0d3e9" stroke="#a0d3e9" stroke-width="1.51"></path>
  <path d="M147,423L151,450L204,463Z" fill="#7fc2dc" stroke="#7fc2dc" stroke-width="1.51"></path>
  <path d="M154,236L178,281L207,267Z" fill="#b1daea" stroke="#b1daea" stroke-width="1.51"></path>
  <path d="M178,281L172,352L205,327Z" fill="#a0d1e3" stroke="#a0d1e3" stroke-width="1.51"></path>
  <path d="M89,117L140,186L155,87Z" fill="#b2dced" stroke="#b2dced" stroke-width="1.51"></path>
  <path d="M143,-16L114,29L168,65Z" fill="#9ed3e8" stroke="#9ed3e8" stroke-width="1.51"></path>
  <path d="M108,351L147,423L172,352Z" fill="#8bc6dd" stroke="#8bc6dd" stroke-width="1.51"></path>
  <path d="M112,296L108,351L172,352Z" fill="#95cae0" stroke="#95cae0" stroke-width="1.51"></path>
  <path d="M112,296L172,352L178,281Z" fill="#9fd1e4" stroke="#9fd1e4" stroke-width="1.51"></path>
  <path d="M154,236L112,296L178,281Z" fill="#abd6e8" stroke="#abd6e8" stroke-width="1.51"></path>
  <path d="M114,29L155,87L168,65Z" fill="#a9d8eb" stroke="#a9d8eb" stroke-width="1.51"></path>
  <path d="M108,-84L143,-16L166,-60Z" fill="#81c3de" stroke="#81c3de" stroke-width="1.51"></path>
  <path d="M89,117L77,155L140,186Z" fill="#b2dbec" stroke="#b2dbec" stroke-width="1.51"></path>
  <path d="M108,351L79,389L147,423Z" fill="#84c3db" stroke="#84c3db" stroke-width="1.51"></path>
  <path d="M140,186L109,216L154,236Z" fill="#bbdfed" stroke="#bbdfed" stroke-width="1.51"></path>
  <path d="M109,216L112,296L154,236Z" fill="#aed8e9" stroke="#aed8e9" stroke-width="1.51"></path>
  <path d="M114,29L89,117L155,87Z" fill="#a8d8ea" stroke="#a8d8ea" stroke-width="1.51"></path>
  <path d="M98,-5L114,29L143,-16Z" fill="#92cce4" stroke="#92cce4" stroke-width="1.51"></path>
  <path d="M108,-84L98,-5L143,-16Z" fill="#84c5e0" stroke="#84c5e0" stroke-width="1.51"></path>
  <path d="M147,423L99,466L151,450Z" fill="#7abfda" stroke="#7abfda" stroke-width="1.51"></path>
  <path d="M79,389L99,466L147,423Z" fill="#7bbfda" stroke="#7bbfda" stroke-width="1.51"></path>
  <path d="M-17,453L-70,456L25,462Z" fill="#5eb2d3" stroke="#5eb2d3" stroke-width="1.51"></path>
  <path d="M79,389L61,432L99,466Z" fill="#76bcd8" stroke="#76bcd8" stroke-width="1.51"></path>
  <path d="M77,155L109,216L140,186Z" fill="#b9deed" stroke="#b9deed" stroke-width="1.51"></path>
  <path d="M38,38L45,110L89,117Z" fill="#a1d3e8" stroke="#a1d3e8" stroke-width="1.51"></path>
  <path d="M51,-19L98,-5L108,-84Z" fill="#7fc2de" stroke="#7fc2de" stroke-width="1.51"></path>
  <path d="M47,-87L51,-19L108,-84Z" fill="#71bcda" stroke="#71bcda" stroke-width="1.51"></path>
  <path d="M23,223L38,275L109,216Z" fill="#a8d4e7" stroke="#a8d4e7" stroke-width="1.51"></path>
  <path d="M40,336L108,351L112,296Z" fill="#90c8df" stroke="#90c8df" stroke-width="1.51"></path>
  <path d="M109,216L38,275L112,296Z" fill="#a5d3e6" stroke="#a5d3e6" stroke-width="1.51"></path>
  <path d="M98,-5L38,38L114,29Z" fill="#94cde5" stroke="#94cde5" stroke-width="1.51"></path>
  <path d="M38,38L89,117L114,29Z" fill="#a0d4e8" stroke="#a0d4e8" stroke-width="1.51"></path>
  <path d="M38,275L40,336L112,296Z" fill="#95cae0" stroke="#95cae0" stroke-width="1.51"></path>
  <path d="M77,155L23,223L109,216Z" fill="#b6dceb" stroke="#b6dceb" stroke-width="1.51"></path>
  <path d="M40,336L79,389L108,351Z" fill="#85c3db" stroke="#85c3db" stroke-width="1.51"></path>
  <path d="M18,177L23,223L77,155Z" fill="#afd8e9" stroke="#afd8e9" stroke-width="1.51"></path>
  <path d="M51,-19L38,38L98,-5Z" fill="#8bc8e1" stroke="#8bc8e1" stroke-width="1.51"></path>
  <path d="M61,432L25,462L99,466Z" fill="#6db9d6" stroke="#6db9d6" stroke-width="1.51"></path>
  <path d="M45,110L77,155L89,117Z" fill="#aad7e9" stroke="#aad7e9" stroke-width="1.51"></path>
  <path d="M2,422L61,432L79,389Z" fill="#75bcd7" stroke="#75bcd7" stroke-width="1.51"></path>
  <path d="M40,336L2,422L79,389Z" fill="#7abfd8" stroke="#7abfd8" stroke-width="1.51"></path>
  <path d="M45,110L18,177L77,155Z" fill="#aad6e9" stroke="#aad6e9" stroke-width="1.51"></path>
  <path d="M-10,354L2,422L40,336Z" fill="#78bdd8" stroke="#78bdd8" stroke-width="1.51"></path>
  <path d="M38,38L-6,94L45,110Z" fill="#9bd0e6" stroke="#9bd0e6" stroke-width="1.51"></path>
  <path d="M47,-87L-19,-80L51,-19Z" fill="#6bb9d8" stroke="#6bb9d8" stroke-width="1.51"></path>
  <path d="M2,422L25,462L61,432Z" fill="#6cb8d6" stroke="#6cb8d6" stroke-width="1.51"></path>
  <path d="M38,275L-32,310L40,336Z" fill="#8cc6dd" stroke="#8cc6dd" stroke-width="1.51"></path>
  <path d="M-6,94L18,177L45,110Z" fill="#a3d3e7" stroke="#a3d3e7" stroke-width="1.51"></path>
  <path d="M-26,-15L38,38L51,-19Z" fill="#83c5df" stroke="#83c5df" stroke-width="1.51"></path>
  <path d="M-19,-80L-26,-15L51,-19Z" fill="#71bcda" stroke="#71bcda" stroke-width="1.51"></path>
  <path d="M-26,-15L-25,40L38,38Z" fill="#87c7e0" stroke="#87c7e0" stroke-width="1.51"></path>
  <path d="M23,223L-38,235L38,275Z" fill="#a0d0e4" stroke="#a0d0e4" stroke-width="1.51"></path>
  <path d="M-25,40L-6,94L38,38Z" fill="#93cde4" stroke="#93cde4" stroke-width="1.51"></path>
  <path d="M-32,310L-10,354L40,336Z" fill="#81c0da" stroke="#81c0da" stroke-width="1.51"></path>
  <path d="M-38,235L-32,310L38,275Z" fill="#94cae0" stroke="#94cae0" stroke-width="1.51"></path>
  <path d="M-6,94L-38,190L18,177Z" fill="#a4d3e7" stroke="#a4d3e7" stroke-width="1.51"></path>
  <path d="M18,177L-38,190L23,223Z" fill="#acd7e8" stroke="#acd7e8" stroke-width="1.51"></path>
  <path d="M2,422L-17,453L25,462Z" fill="#66b5d4" stroke="#66b5d4" stroke-width="1.51"></path>
  <path d="M-38,190L-38,235L23,223Z" fill="#a5d3e6" stroke="#a5d3e6" stroke-width="1.51"></path>
  <path d="M-77,122L-38,190L-6,94Z" fill="#9ccfe5" stroke="#9ccfe5" stroke-width="1.51"></path>
  <path d="M-38,235L-72,273L-32,310Z" fill="#8fc7de" stroke="#8fc7de" stroke-width="1.51"></path>
  <path d="M-70,456L-17,453L2,422Z" fill="#61b3d3" stroke="#61b3d3" stroke-width="1.51"></path>
  <path d="M-100,413L-70,456L2,422Z" fill="#5fb2d2" stroke="#5fb2d2" stroke-width="1.51"></path>
  <path d="M-10,354L-71,347L2,422Z" fill="#72b9d6" stroke="#72b9d6" stroke-width="1.51"></path>
  <path d="M-71,347L-100,413L2,422Z" fill="#69b6d4" stroke="#69b6d4" stroke-width="1.51"></path>
  <path d="M-77,122L-82,170L-38,190Z" fill="#9dcfe4" stroke="#9dcfe4" stroke-width="1.51"></path>
  <path d="M-59,-22L-26,-15L-19,-80Z" fill="#6bb9d8" stroke="#6bb9d8" stroke-width="1.51"></path>
  <path d="M-72,-69L-59,-22L-19,-80Z" fill="#61b4d5" stroke="#61b4d5" stroke-width="1.51"></path>
  <path d="M-25,40L-77,122L-6,94Z" fill="#93cce3" stroke="#93cce3" stroke-width="1.51"></path>
  <path d="M-32,310L-71,347L-10,354Z" fill="#7abdd8" stroke="#7abdd8" stroke-width="1.51"></path>
  <path d="M-26,-15L-59,-22L-25,40Z" fill="#7bc0dc" stroke="#7bc0dc" stroke-width="1.51"></path>
  <path d="M-100,33L-77,122L-25,40Z" fill="#8bc8e1" stroke="#8bc8e1" stroke-width="1.51"></path>
  <path d="M-59,-22L-100,33L-25,40Z" fill="#7dc1dd" stroke="#7dc1dd" stroke-width="1.51"></path>
  <path d="M-86,245L-38,235L-38,190Z" fill="#9ecee3" stroke="#9ecee3" stroke-width="1.51"></path>
  <path d="M-72,273L-71,347L-32,310Z" fill="#81c0d9" stroke="#81c0d9" stroke-width="1.51"></path>
  <path d="M-86,245L-72,273L-38,235Z" fill="#94c9df" stroke="#94c9df" stroke-width="1.51"></path>
  <path d="M-82,170L-86,245L-38,190Z" fill="#a3d1e5" stroke="#a3d1e5" stroke-width="1.51"></path>
  <path d="M-72,-69L-100,33L-59,-22Z" fill="#6cb9d8" stroke="#6cb9d8" stroke-width="1.51"></path>
  <path d="M-72,273L-86,245L-71,347Z" fill="#86c2db" stroke="#86c2db" stroke-width="1.51"></path>
  <path d="M-86,245L-100,413L-71,347Z" fill="#74bad5" stroke="#74bad5" stroke-width="1.51"></path>
  <path d="M-100,33L-82,170L-77,122Z" fill="#91cae1" stroke="#91cae1" stroke-width="1.51"></path>
  <path d="M-100,33L-86,245L-82,170Z" fill="#97cce2" stroke="#97cce2" stroke-width="1.51"></path>
  <path d="M-100,33L-100,413L-86,245Z" fill="#96cae0" stroke="#96cae0" stroke-width="1.51"></path>
</svg>
