<svg width="259" height="51" viewBox="0 0 259 51" xmlns="http://www.w3.org/2000/svg">
  <g fill="none" fill-rule="evenodd">
    <path d="M156.25 37.567c.167.02.322.032.467.032.22 0 .328-.104.328-.31 0-.224-.172-.358-.514-.4-.82-.124-1.37-.318-1.65-.58-.28-.262-.458-.74-.53-1.43l-.046-1.118.015-.66V22.44c0-.474.097-.71.294-.71.084 0 .156.033.22.095l.154.173 13.133 15.145.344.408c.082.085.203.132.358.143.238.01.384-.113.436-.37.052-.256.078-.976.078-2.16V21.998l.03-1.037v-1.696c0-1.005.103-1.692.305-2.058.204-.367.62-.63 1.255-.785.22-.062.32-.162.31-.3-.02-.218-.166-.328-.434-.328-.176 0-.43.03-.762.094-.386.063-.9.095-1.543.095-1.205 0-2.165-.037-2.882-.113-.3-.03-.52-.044-.654-.044-.303 0-.454.098-.454.293 0 .204.15.33.453.383 1.068.177 1.808.452 2.218.824.41.372.668 1.002.77 1.893l.188 3.614-.015 2.122v7.777c-.01.187-.066.286-.17.298-.063.01-.21-.116-.437-.378L153.18 16.28c-.26-.305-.518-.457-.778-.457-.135 0-.326.006-.576.016l-.25.016-1.043-.033-.638-.016c-.115-.01-.198-.015-.25-.015-.23 0-.342.097-.342.292 0 .193.14.31.42.352 1.08.147 1.906.742 2.477 1.785.57 1.044.857 2.47.857 4.285v10.69c0 1.134-.153 1.954-.46 2.462-.306.51-.896.915-1.768 1.22-.302.1-.448.23-.437.383.02.194.166.29.436.29.113 0 .305-.018.576-.055.363-.048.748-.072 1.152-.072l.747-.03 1.59.08c.79.04 1.24.073 1.356.094M217.223 35.398c-.99.85-2.2 1.273-3.63 1.273-1.406 0-2.712-.44-3.913-1.322-1.2-.882-1.99-1.975-2.36-3.278-.15-.504-.32-.76-.51-.772-.21-.01-.317.14-.317.456 0 .4.135 1.068.406 2.01.237.87.367 1.347.387 1.43.126.588.22.95.28 1.093.064.14.188.274.375.4.446.304 1.15.57 2.11.802.96.23 1.84.344 2.64.344 2.213 0 4.026-.622 5.438-1.867 1.413-1.246 2.12-2.847 2.12-4.805 0-2.888-1.92-4.967-5.757-6.233-1.97-.662-3.208-1.118-3.71-1.37-.504-.25-.968-.65-1.393-1.195-.488-.64-.73-1.4-.73-2.28 0-.997.374-1.827 1.124-2.493.752-.666 1.686-1 2.803-1 1.408 0 2.685.37 3.828 1.105 1.145.735 1.904 1.67 2.275 2.806.17.504.34.757.508.757.223 0 .334-.163.334-.487 0-.084-.026-.3-.078-.645l-.25-1.618c-.134-.88-.202-1.41-.202-1.587 0-.523-.13-.78-.39-.77-.083 0-.14.02-.17.063l-.218.19c-.125.103-.25.156-.374.156-.094 0-.187-.02-.28-.063l-1.076-.457c-.77-.324-1.708-.487-2.82-.487-1.972 0-3.585.534-4.836 1.602-1.252 1.067-1.877 2.45-1.877 4.145 0 1.517.48 2.752 1.44 3.704.958.953 2.59 1.822 4.892 2.607 2.23.754 3.58 1.337 4.046 1.745.912.797 1.37 1.775 1.37 2.94 0 1.216-.497 2.25-1.485 3.098M244.375 37.363c1.297 0 2.94.094 4.922.283.51.04.913.062 1.215.062 1.392 0 2.544-.563 3.458-1.69.758-.94 1.137-1.75 1.137-2.428 0-.282-.096-.417-.287-.406-.117.01-.234.104-.35.283-1.163 1.853-3.782 2.78-7.857 2.78-1.285 0-2.086-.11-2.402-.33-.317-.22-.475-.777-.475-1.67v-5.79l-.014-.52c0-.314.086-.523.257-.63.17-.103.51-.156 1.018-.156h3.436c.892 0 1.524.127 1.896.378.374.25.622.728.748 1.43l.092.44c.043.23.175.346.4.346.2 0 .302-.132.302-.393 0-.093-.01-.244-.03-.453-.064-.627-.095-1.26-.095-1.896 0-.836.046-1.76.138-2.774.013-.155.02-.27.02-.344 0-.27-.103-.412-.304-.423-.212-.012-.344.114-.398.376-.135.69-.286 1.13-.453 1.32-.165.188-.53.34-1.09.456-.633.125-1.495.188-2.586.188h-2.4c-.446 0-.713-.05-.802-.15-.088-.1-.133-.39-.133-.875v-6.338c0-.558.094-.918.28-1.08.187-.165.602-.245 1.245-.245h2.44c1.608 0 2.712.078 3.312.236.603.157 1.002.47 1.198.942.125.304.188.623.188.958v.41c0 .324.1.48.302.47.178-.01.296-.09.348-.242.054-.152.107-.53.16-1.135l.062-.923c.052-.69.093-1.106.125-1.253.03-.145.046-.266.046-.36 0-.302-.17-.453-.513-.453-.136 0-.342.022-.623.063-.136.02-.51.043-1.122.063l-2.212.11c-.977.042-2.098.063-3.364.063-2.09 0-3.875-.085-5.36-.252-.436-.053-.784-.08-1.043-.08-.47 0-.7.144-.7.432 0 .195.15.292.45.292.945 0 1.58.26 1.91.78.326.518.49 1.528.49 3.028v13.296l-.016 1.022c0 1.26-.374 1.993-1.122 2.203l-.592.175c-.27.07-.406.194-.406.368 0 .226.167.338.5.338.145 0 .415-.036.81-.11.747-.124 2.03-.187 3.848-.187M147.96 16.12c-.023-.218-.168-.328-.438-.328-.176 0-.432.03-.763.094-.386.063-.9.095-1.543.095-1.206 0-2.166-.038-2.883-.114-.3-.028-.518-.043-.654-.043-.302 0-.45.098-.45.292 0 .205.148.332.45.384 1.07.177 1.81.452 2.22.824.41.372.667 1.003.77 1.893l.19 3.613-.017 2.122v7.777c-.01.187-.068.286-.172.297-.06.01-.206-.116-.434-.377l-14.332-16.37c-.26-.305-.52-.457-.78-.457-.135 0-.327.006-.575.016l-.252.015-1.043-.032-.638-.015c-.115-.01-.198-.016-.25-.016-.23 0-.343.097-.343.29 0 .196.14.314.422.354 1.08.147 1.906.742 2.476 1.785.57 1.044.856 2.47.856 4.285v10.69c0 1.134-.152 1.954-.46 2.463-.305.508-.894.914-1.766 1.217-.302.103-.447.23-.437.384.02.194.166.29.437.29.114 0 .306-.018.575-.056.364-.048.748-.07 1.153-.07l.748-.03 1.588.08c.79.04 1.24.07 1.356.093.166.02.322.032.468.032.218 0 .326-.104.326-.31 0-.224-.17-.357-.514-.4-.82-.124-1.37-.318-1.65-.58-.28-.262-.457-.74-.53-1.432l-.047-1.116.016-.66V22.438c0-.474.1-.71.297-.71.082 0 .155.033.218.095l.156.172 13.133 15.146.342.408c.083.086.203.133.36.142.236.01.382-.112.435-.37.053-.255.078-.974.078-2.158V21.997l.03-1.037v-1.696c0-1.005.103-1.692.305-2.06.202-.365.62-.627 1.253-.783.218-.062.323-.162.313-.3M224.128 34.578c0 1.26-.373 1.993-1.12 2.203l-.593.175c-.27.07-.405.195-.405.368 0 .226.166.338.5.338.145 0 .414-.036.81-.11.747-.125 2.028-.187 3.846-.187 1.298 0 2.94.093 4.924.283.508.04.913.062 1.215.062 1.39 0 2.543-.563 3.456-1.69.76-.94 1.14-1.75 1.14-2.428 0-.28-.096-.417-.29-.406-.115.01-.232.105-.35.283-1.16 1.854-3.78 2.78-7.854 2.78-1.287 0-2.088-.11-2.403-.33-.317-.22-.475-.777-.475-1.668v-5.792l-.017-.52c0-.315.087-.525.258-.63.17-.105.51-.156 1.02-.156h3.435c.89 0 1.523.125 1.896.375.37.252.62.73.745 1.43l.094.44c.04.23.173.347.397.347.202 0 .302-.13.302-.393 0-.092-.01-.244-.03-.453-.064-.628-.095-1.258-.095-1.896 0-.835.046-1.76.14-2.774.01-.156.016-.272.016-.344 0-.27-.1-.413-.302-.424-.213-.01-.345.116-.398.378-.136.69-.286 1.132-.45 1.32-.17.19-.532.34-1.09.455-.636.127-1.498.19-2.59.19h-2.397c-.447 0-.715-.05-.803-.15-.09-.1-.132-.39-.132-.875v-6.338c0-.558.093-.918.28-1.08.186-.164.6-.246 1.244-.246h2.44c1.607 0 2.712.08 3.313.238.6.156 1 .47 1.197.942.125.304.188.623.188.958v.41c0 .325.1.48.3.47.18-.01.298-.09.35-.242.053-.15.106-.53.16-1.136l.062-.923c.052-.69.094-1.106.125-1.253.03-.146.045-.265.045-.36 0-.302-.17-.453-.513-.453-.136 0-.344.022-.624.063-.135.02-.51.042-1.122.063l-2.212.11c-.976.042-2.098.063-3.365.063-2.088 0-3.874-.085-5.36-.252-.435-.053-.782-.08-1.043-.08-.467 0-.7.144-.7.432 0 .195.15.292.45.292.946 0 1.582.26 1.91.78.327.518.49 1.528.49 3.028v13.296l-.016 1.022zM119.74 15.996c-.977.042-2.098.063-3.366.063-2.087 0-3.874-.085-5.36-.252-.434-.052-.783-.08-1.043-.08-.466 0-.7.144-.7.432 0 .195.15.292.453.292.945 0 1.58.26 1.908.78.327.518.492 1.528.492 3.028v13.296l-.015 1.022c0 1.26-.375 1.993-1.123 2.203l-.592.175c-.27.07-.404.194-.404.368 0 .226.165.338.498.338.145 0 .415-.036.81-.11.747-.124 2.03-.187 3.847-.187 1.3 0 2.94.094 4.924.283.508.04.913.062 1.215.062 1.392 0 2.544-.563 3.457-1.69.758-.94 1.137-1.75 1.137-2.428 0-.28-.096-.417-.288-.406-.117.01-.235.105-.352.283-1.16 1.853-3.78 2.78-7.855 2.78-1.286 0-2.088-.11-2.404-.33-.318-.22-.475-.777-.475-1.668v-5.792l-.016-.52c0-.315.084-.524.256-.63.17-.104.51-.157 1.018-.157h3.436c.89 0 1.522.127 1.896.377.373.252.622.73.746 1.43l.094.44c.042.23.175.347.397.347.202 0 .304-.132.304-.393 0-.093-.01-.244-.032-.453-.06-.627-.093-1.258-.093-1.896 0-.836.047-1.76.138-2.774.012-.155.017-.27.017-.344 0-.27-.1-.412-.302-.423-.213-.012-.345.114-.4.376-.133.69-.284 1.13-.45 1.32-.167.188-.53.34-1.09.456-.635.125-1.497.188-2.586.188h-2.4c-.447 0-.715-.05-.803-.15-.088-.1-.132-.39-.132-.875v-6.338c0-.558.094-.92.28-1.08.186-.164.6-.245 1.244-.245h2.44c1.607 0 2.71.078 3.312.236.6.156 1 .47 1.198.942.123.304.186.623.186.958v.41c0 .324.1.48.302.47.18-.01.296-.09.35-.242.052-.152.105-.53.158-1.135l.063-.923c.05-.69.093-1.106.123-1.253.032-.146.047-.266.047-.36 0-.303-.17-.453-.514-.453-.135 0-.343.022-.623.063-.135.02-.51.043-1.122.063l-2.21.11zM198.95 24.928c-1.97-.66-3.208-1.116-3.71-1.367-.503-.25-.968-.65-1.393-1.196-.487-.638-.73-1.4-.73-2.28 0-.995.374-1.826 1.124-2.492.753-.665 1.686-1 2.805-1 1.407 0 2.684.37 3.828 1.105 1.144.736 1.903 1.67 2.275 2.807.17.503.34.756.507.756.223 0 .335-.163.335-.488 0-.083-.026-.3-.078-.644l-.25-1.618c-.135-.88-.2-1.408-.2-1.587 0-.523-.132-.78-.392-.77-.084 0-.14.022-.172.063l-.216.19c-.126.104-.25.156-.375.156-.094 0-.187-.02-.28-.063l-1.076-.457c-.768-.324-1.706-.487-2.818-.487-1.973 0-3.585.534-4.837 1.602-1.25 1.067-1.876 2.448-1.876 4.145 0 1.516.477 2.75 1.437 3.705.96.952 2.59 1.82 4.893 2.606 2.23.755 3.578 1.336 4.044 1.745.913.796 1.37 1.776 1.37 2.94 0 1.216-.495 2.25-1.484 3.098-.99.85-2.2 1.273-3.627 1.273-1.41 0-2.714-.44-3.916-1.322-1.2-.882-1.987-1.975-2.36-3.278-.15-.504-.32-.76-.51-.772-.21-.01-.317.14-.317.456 0 .398.135 1.068.406 2.01l.39 1.43c.124.588.217.95.28 1.093.062.14.187.274.373.4.446.304 1.15.57 2.11.802.96.23 1.84.344 2.64.344 2.213 0 4.025-.622 5.437-1.867 1.413-1.247 2.12-2.848 2.12-4.806 0-2.886-1.92-4.964-5.757-6.232M108.106 17.28c0-.617-.06-.986-.18-1.112-.12-.124-.464-.187-1.036-.187H90.114c-.353 0-.585.076-.694.228-.11.15-.164.466-.164.947 0 .49-.077 1.11-.234 1.863-.123.586-.186.987-.186 1.206 0 .27.093.412.28.423.187.01.327-.188.42-.598.21-.943.502-1.584.88-1.925.38-.34.99-.51 1.83-.51h4.13c.393 0 .645.052.755.157.11.105.165.346.165.724l.015.41v15.593c0 .88-.14 1.492-.42 1.833-.28.342-.82.564-1.62.668-.343.043-.515.145-.515.31 0 .223.155.336.468.336.104 0 .454-.03 1.046-.095.3-.03.67-.045 1.108-.045l1.217-.016 1.14.015c.738 0 1.208.015 1.405.046.385.065.64.096.764.096.293 0 .437-.113.437-.34 0-.173-.18-.292-.544-.35-1.308-.233-1.99-.962-2.04-2.188l-.015-.615v-15.42c0-.494.06-.804.18-.93.12-.125.406-.188.864-.188h4.378c.872 0 1.458.112 1.76.337.3.226.52.71.655 1.454.06.335.186.497.373.486.228-.02.338-.186.327-.5-.01-.157-.043-.412-.093-.767-.052-.282-.078-.73-.078-1.345M188.507 36.018c.758-.94 1.138-1.75 1.138-2.427 0-.28-.097-.417-.29-.406-.115.01-.233.105-.35.282-1.16 1.854-3.78 2.78-7.855 2.78-1.286 0-2.087-.11-2.403-.33-.317-.22-.475-.776-.475-1.667v-5.793l-.015-.52c0-.314.085-.523.256-.63.172-.104.51-.156 1.018-.156h3.437c.89 0 1.524.127 1.897.377.373.252.62.73.746 1.43l.093.44c.042.23.175.346.398.346.202 0 .304-.13.304-.392 0-.092-.01-.244-.03-.453-.063-.628-.095-1.258-.095-1.896 0-.835.045-1.76.138-2.773.01-.156.018-.272.018-.344 0-.272-.102-.414-.303-.425-.214-.01-.345.116-.4.378-.135.69-.285 1.13-.45 1.32-.167.188-.53.34-1.09.455-.635.127-1.496.19-2.588.19h-2.398c-.447 0-.715-.05-.802-.15-.088-.1-.133-.39-.133-.875v-6.338c0-.558.093-.918.28-1.08.186-.164.6-.246 1.244-.246h2.442c1.606 0 2.71.08 3.312.238.602.156 1 .47 1.197.942.124.304.187.623.187.958v.41c0 .324.1.48.302.47.18-.01.296-.09.35-.242.052-.152.105-.53.158-1.136l.063-.923c.05-.69.093-1.106.124-1.253.03-.146.048-.266.048-.36 0-.303-.17-.453-.515-.453-.134 0-.342.022-.622.063-.135.022-.51.042-1.12.063l-2.213.11c-.976.042-2.1.063-3.366.063-2.086 0-3.872-.085-5.358-.253-.435-.05-.783-.078-1.042-.078-.47 0-.702.142-.702.43 0 .195.15.292.452.292.945 0 1.58.26 1.907.78.328.518.492 1.528.492 3.028v13.295l-.017 1.023c0 1.26-.374 1.993-1.12 2.203l-.593.174c-.27.072-.405.196-.405.37 0 .225.165.337.498.337.145 0 .416-.036.81-.11.748-.125 2.03-.187 3.85-.187 1.296 0 2.937.093 4.92.283.51.04.914.062 1.215.062 1.392 0 2.545-.563 3.46-1.69M160.173 1.26c.036.017.125.046.494.117.245.045.44.147.58.304.146.162.312.456.497.87l3.948 9.23c.128.294.25.43.388.43.132 0 .25-.133.37-.42l3.873-9.147.21-.51c.185-.447.46-.742.813-.876.17-.057.203-.155.203-.228 0-.127-.08-.2-.218-.2l-.663.008-.548.008h-.32c-.075 0-.3-.01-.692-.03-.116-.006-.192-.01-.23-.01-.254 0-.314.112-.32.206-.005.128.14.213.48.278.282.057.398.12.445.163.064.058.096.166.096.32 0 .493-.367 1.626-1.096 3.367l-1.71 4.092-.122.29c-.164.363-.224.41-.23.412 0 0-.05 0-.14-.215l-2.993-6.933c-.214-.5-.322-.862-.322-1.077 0-.118.02-.2.064-.243.03-.034.124-.092.378-.187.162-.063.195-.158.195-.227 0-.077-.034-.207-.27-.207-.045 0-.115.006-.225.016-.23.02-.39.032-.494.032l-.52.006-.74-.006c-.433 0-.695-.006-.782-.017-.12-.01-.19-.016-.23-.016-.243 0-.28.137-.28.218 0 .085.037.15.11.183M109.676 11.794l.58-.015.578.007c.39 0 .65.01.77.03.352.055.55.066.644-.037.04-.044.056-.102.05-.172-.007-.116-.11-.187-.305-.212-.42-.046-.708-.17-.85-.368-.15-.203-.225-.582-.225-1.126V2.306c0-.25.054-.475.158-.666.1-.186.22-.29.364-.32l.318-.07c.195-.04.237-.142.237-.22 0-.065-.026-.215-.25-.215-.054 0-.148.01-.295.032-.22.03-.612.047-1.162.047-.38 0-.745-.02-1.083-.056-.256-.027-.427-.04-.536-.04-.214 0-.253.12-.257.19-.005.087.038.2.274.247.35.08.593.228.72.437.132.215.198.592.198 1.12v2.687c0 .12-.023.2-.066.23-.03.02-.122.053-.403.053h-4.596c-.413 0-.507-.048-.53-.07-.02-.02-.07-.108-.07-.49V2.39c0-.375.056-.643.168-.796.11-.153.334-.274.666-.36.17-.043.257-.123.257-.236 0-.083-.036-.222-.287-.222-.08 0-.19.01-.334.03-.318.042-.664.063-1.03.063-.54 0-1.017-.024-1.417-.07-.21-.027-.37-.042-.473-.05h-.02c-.222 0-.247.153-.247.217 0 .088.05.2.278.23.425.065.722.196.884.388.16.192.242.512.242.952v6.756c0 .725-.04 1.238-.123 1.525-.077.273-.215.43-.422.477l-.388.095c-.207.046-.25.158-.25.244 0 .062.025.207.256.207.06 0 .222-.01.497-.033.19-.018.35-.026.486-.026l.514-.017.655.006c.474 0 .785.012.925.035.192.024.32.036.39.036.11 0 .187-.024.236-.075.037-.038.054-.09.05-.15-.003-.1-.068-.23-.35-.258-.447-.05-.755-.18-.916-.386-.162-.206-.244-.58-.244-1.107V6.98c0-.295.054-.385.087-.412.034-.028.146-.076.514-.076h4.59c.355 0 .417.04.425.047.005.004.05.054.05.386v2.886l-.008.308c0 .776-.25 1.195-.765 1.284-.204.03-.31.11-.318.235-.002.064.014.116.05.154.04.042.1.064.182.064h.017c.035 0 .172-.01.543-.04.157-.016.278-.024.37-.024M114.26 1.26c.448 0 .75.122.902.36.156.25.236.748.236 1.482V9.75l-.01.512c0 .603-.168.944-.515 1.042l-.294.086c-.206.054-.25.163-.25.244 0 .086.042.23.312.23.076 0 .213-.017.414-.055.37-.062 1.013-.094 1.914-.094.642 0 1.468.047 2.457.142.252.02.458.03.612.03.71 0 1.308-.29 1.776-.867.392-.485.582-.895.582-1.252 0-.23-.122-.266-.196-.266h-.015c-.08.008-.15.064-.22.17-.568.904-1.872 1.362-3.878 1.362-.782 0-1.066-.083-1.167-.153-.14-.098-.21-.36-.21-.783V7.2l-.008-.26c0-.132.033-.22.098-.26.05-.033.176-.07.477-.07h1.718c.43 0 .74.06.914.178.17.115.288.342.348.676l.046.22c.027.143.118.222.26.222.063 0 .212-.025.212-.258 0-.05-.005-.125-.015-.233-.03-.307-.048-.624-.048-.942 0-.415.024-.88.07-1.384.006-.08.008-.14.008-.176 0-.228-.13-.27-.21-.274h-.015c-.09 0-.207.04-.247.24-.08.413-.158.57-.21.63-.05.057-.18.14-.512.207-.31.062-.74.094-1.28.094h-1.2c-.292 0-.347-.045-.355-.054-.012-.013-.05-.08-.05-.396V2.19c0-.32.064-.445.118-.493.056-.048.203-.107.583-.107h1.22c.794 0 1.347.04 1.64.116.284.075.466.217.56.435.057.144.087.298.087.457V2.8c0 .26.126.3.216.3.145-.01.204-.095.228-.164.03-.082.057-.273.083-.584l.032-.46c.025-.343.045-.55.06-.62.017-.075.024-.14.024-.192 0-.108-.04-.29-.317-.29-.07 0-.175.01-.322.034-.045.006-.178.018-.555.03l-1.105.055c-.477.02-1.043.03-1.68.03-1.035 0-1.934-.042-2.672-.125-.22-.027-.397-.04-.528-.04-.34 0-.412.15-.412.277 0 .078.037.208.287.208M154.96 1.275c.462.075.767.22.905.43.14.215.21.646.21 1.28V9.72c0 .65-.053 1.082-.16 1.278-.107.19-.348.318-.72.382-.196.032-.295.112-.295.24 0 .082.036.22.273.22.096 0 .22-.006.376-.022l.915-.055 1.13.018c.387 0 .66.012.816.034.123.018.224.027.306.027.265 0 .303-.152.303-.245 0-.172-.254-.228-.444-.254-.315-.044-.55-.12-.694-.224-.142-.103-.264-.283-.362-.538-.086-.23-.13-.71-.13-1.435v-5.89c0-1.074.18-1.688.538-1.823l.403-.157c.162-.055.244-.146.244-.267 0-.077-.035-.208-.27-.208-.032 0-.098.003-.2.01l-.52.044c-.275.017-.605.025-.987.025-.622 0-1.128-.023-1.504-.07-.19-.022-.314-.004-.38.068-.04.04-.057.094-.054.16.005.123.107.203.3.24M141.94 1.252c.518.07.92.36 1.192.86.28.51.42 1.222.42 2.113v5.347c0 .55-.073.954-.22 1.197-.144.24-.43.435-.85.582-.18.06-.268.147-.26.257.01.075.054.2.28.2.06 0 .156-.01.295-.03.18-.022.37-.035.57-.035l.37-.014.794.04c.148.008.593.032.673.048.086.01.165.015.242.015.144 0 .226-.078.226-.215 0-.102-.054-.23-.31-.26-.394-.062-.66-.154-.792-.276-.13-.12-.212-.348-.246-.673l-.023-.555.007-.332v-5.33c0-.184.033-.293.087-.293.026 0 .046.01.064.027l6.642 7.657.175.207c.052.054.125.084.22.09l.015.002c.14 0 .235-.083.266-.236.027-.134.04-.49.04-1.092v-6.58l.015-.52v-.85c0-.49.05-.825.146-1 .092-.165.29-.288.59-.362.175-.05.206-.144.2-.214-.008-.083-.055-.22-.28-.22-.092 0-.224.016-.39.047-.188.03-.437.046-.763.046-.596 0-1.08-.018-1.434-.055-.156-.016-.264-.023-.335-.023-.25 0-.287.13-.287.208 0 .094.05.215.277.253.52.086.885.22 1.08.397.193.176.316.48.365.904l.094 1.803-.008 1.062v3.883c-.002.04-.012.09-.02.092-.005 0-.046-.018-.177-.168l-7.166-8.185c-.142-.166-.288-.25-.437-.25-.067 0-.164.003-.29.01l-.12.006-.837-.023c-.06-.006-.104-.008-.13-.008-.21 0-.234.145-.234.207 0 .09.046.206.264.238zM128.868 1.347c.444.065.74.198.883.395.146.2.22.58.22 1.124l.015.446v3.99c0 1.1.188 2.006.56 2.693.332.6.863 1.082 1.577 1.43.712.35 1.52.526 2.41.526.764 0 1.492-.147 2.163-.44.674-.293 1.2-.692 1.564-1.187.57-.777.86-1.9.86-3.335v-3.89c0-.643.045-1.085.135-1.31.087-.22.283-.392.583-.517.134-.055.2-.136.2-.24 0-.126-.076-.2-.208-.2-.053 0-.176.01-.348.025-.132.014-.49.022-1.066.022-.27 0-.504-.015-.697-.046-.226-.037-.39-.057-.505-.062h-.017c-.13 0-.203.08-.203.222 0 .092.048.207.28.23.426.04.73.202.905.48.18.283.27.752.27 1.39v4.067c0 1.354-.303 2.378-.902 3.047-.6.666-1.518 1.003-2.73 1.003-1.356 0-2.334-.403-2.907-1.2-.405-.56-.61-1.52-.61-2.85v-3.96l-.016-.515c0-.495.048-.84.144-1.027.093-.178.28-.3.56-.364.25-.045.3-.16.3-.25 0-.057-.022-.186-.24-.186-.076 0-.21.008-.403.023-.23.022-.37.032-.43.032l-1.193.007c-.106 0-.28-.008-.518-.023-.216-.01-.402-.017-.54-.017-.295 0-.358.135-.358.246 0 .085.046.19.262.224M240.324 11.372c-1.295 0-2.403-.54-3.293-1.61-.892-1.07-1.345-2.406-1.345-3.967 0-1.363.353-2.462 1.048-3.266.695-.8 1.646-1.207 2.827-1.207 1.38 0 2.547.52 3.47 1.545.927 1.026 1.396 2.33 1.396 3.868 0 1.338-.39 2.457-1.162 3.327-.768.87-1.758 1.31-2.94 1.31m-.3.578c1.645 0 3.015-.546 4.07-1.626 1.056-1.08 1.592-2.48 1.592-4.165 0-1.59-.532-2.915-1.58-3.934-1.05-1.02-2.408-1.536-4.043-1.536-.788 0-1.568.15-2.32.447-.752.298-1.383.704-1.875 1.21-.466.482-.842 1.087-1.115 1.8-.275.712-.414 1.44-.414 2.17 0 1.673.53 3.045 1.57 4.078 1.044 1.032 2.43 1.556 4.115 1.556M90.128 3.358c.184 0 .243-.26.263-.347.102-.456.243-.77.423-.93.176-.157.47-.238.873-.238h2.065c.236 0 .312.04.335.06.024.024.064.095.064.32l.007.203v7.797c0 .423-.066.72-.198.877-.128.156-.39.26-.77.312-.206.025-.312.097-.312.215 0 .085.04.23.296.23.054 0 .222-.015.53-.047.146-.016.33-.023.548-.023l.608-.008.57.007c.366 0 .6.007.692.022.2.032.328.048.393.048.244 0 .28-.146.28-.23 0-.123-.11-.203-.323-.238-.628-.112-.946-.45-.97-1.036l-.007-.305V2.337c0-.3.045-.392.072-.42.026-.03.112-.076.388-.076h2.188c.42 0 .705.053.845.156.136.103.238.334.302.69.037.194.117.292.25.292h.003c.085-.007.228-.058.22-.316-.006-.08-.023-.21-.05-.39-.023-.136-.036-.358-.036-.66 0-.437-.06-.553-.108-.6-.046-.05-.154-.113-.562-.113H90.62c-.2 0-.33.046-.397.14-.063.088-.094.254-.094.51 0 .24-.04.55-.117.92-.063.297-.094.5-.094.615 0 .228.124.27.208.273M206.533 11.84c.264 0 .302-.153.302-.245 0-.172-.252-.227-.44-.254-.317-.044-.55-.12-.694-.225-.142-.1-.264-.282-.364-.537-.085-.228-.127-.71-.127-1.435v-5.89c0-1.074.18-1.687.535-1.823l.403-.156c.162-.057.245-.146.245-.268 0-.078-.037-.207-.272-.207-.03 0-.098.002-.2.008l-.52.043c-.273.02-.604.027-.986.027-.623 0-1.13-.022-1.504-.07-.19-.02-.314-.003-.38.068-.04.04-.057.093-.054.158.008.125.108.206.3.24.464.077.768.222.906.432.14.214.212.645.212 1.28v6.734c0 .65-.055 1.082-.164 1.278-.104.19-.347.318-.72.383-.194.032-.292.112-.292.238 0 .084.035.223.27.223.098 0 .223-.006.38-.022l.913-.055 1.13.017c.39 0 .664.01.82.034.118.018.22.027.303.027M219.08 1.23c.26 0 .524.074.79.223.264.15.47.345.616.58l2.438 3.92c.178.283.292.502.335.652.044.15.066.393.066.722V9.67l-.007.34c0 .546-.057.903-.166 1.062-.105.155-.37.264-.787.324-.255.038-.31.16-.31.253 0 .056.024.19.24.19.05 0 .15-.01.306-.033.125-.018.375-.026.766-.026l.603-.016.618.03c.256.016.44.032.565.047.224.028.355.04.413.04.292 0 .335-.153.335-.245 0-.09-.052-.2-.297-.224-.557-.054-.745-.165-.806-.25-.062-.084-.135-.34-.135-1.08V6.793c0-.22.096-.472.285-.743l2.585-3.88c.298-.422.675-.71 1.122-.858.158-.05.237-.13.237-.243 0-.06-.023-.202-.234-.202-.014 0-.028 0-.042.002-.078.005-.217.018-.416.04-.147.015-.486.023-1.008.023-.57 0-.936-.012-1.086-.035-.203-.03-.34-.044-.422-.044-.2 0-.236.12-.24.19-.005.085.03.197.233.246.62.15.933.385.933.7 0 .13-.092.43-.533 1.136l-.38.61-1.203 1.84c-.04.057-.077.085-.113.085-.023 0-.057-.03-.09-.08l-1.738-2.752-.22-.38c-.27-.443-.328-.638-.328-.722 0-.223.157-.38.478-.476.185-.056.224-.155.224-.228 0-.08-.038-.215-.287-.215-.05 0-.185.01-.42.035-.21.024-.684.035-1.453.035-.363 0-.716-.02-1.05-.06-.137-.017-.273-.026-.404-.026-.263 0-.303.148-.303.235 0 .076.038.204.288.204M247.367 1.253c.3.025.508.068.626.127.112.057.218.17.317.338.154.257.233.632.233 1.117v7.09c0 .5-.058.854-.17 1.054-.11.19-.325.324-.64.394-.19.043-.29.122-.29.237 0 .075.035.2.267.2h.026l.35-.02.05-.004c.22-.02.395-.03.526-.03l.6-.008.54.008c.332 0 .587.01.757.034.203.024.364.035.482.035.116 0 .197-.026.246-.08.038-.042.054-.097.05-.16-.006-.097-.068-.213-.335-.213-.353 0-.627-.115-.834-.35-.208-.235-.312-.556-.312-.953V7.14c0-.21.012-.363.036-.46.02-.083.15-.12.255-.132.182-.027.585-.04 1.197-.04.665 0 1.174.044 1.514.13.156.04.268.104.33.19.067.092.132.274.192.542.064.292.16.433.296.433.062 0 .205-.024.205-.25 0-.05-.005-.126-.014-.227-.023-.16-.033-.54-.033-1.158 0-.224.003-.38.008-.476l.048-.775c.007-.118-.014-.2-.062-.252-.033-.038-.08-.056-.135-.056-.082 0-.187.04-.22.24-.055.33-.184.567-.384.7-.208.136-.545.206-1.007.206l-.917.015-.25.01-.67-.017c-.24 0-.366-.053-.382-.15v-.206l-.006-.146V2.156c0-.288.06-.466.177-.53.09-.047.344-.106 1.05-.106.436 0 .806.013 1.095.04l.917.093c.415.037.576.1.64.15.06.046.15.166.23.48.04.16.067.324.083.484.016.22.13.253.196.253.123 0 .27-.073.27-.425 0-.564.042-1.02.13-1.357.027-.117.04-.207.04-.274 0-.155-.084-.244-.232-.244-.077 0-.167.012-.27.032-.132.027-.433.05-.895.07l-1.083.055c-.273.016-.892.023-1.89.023-1.094 0-1.882-.023-2.337-.07-.266-.026-.423-.04-.49-.04-.156 0-.26.032-.32.1-.04.043-.058.1-.052.166.003.066.04.18.25.197M173.203 1.26c.447 0 .752.122.903.36.157.25.235.747.235 1.482V9.75l-.006.512c0 .603-.17.944-.518 1.042l-.293.086c-.205.054-.25.163-.25.244 0 .086.042.23.312.23.078 0 .213-.017.415-.055.37-.062 1.012-.094 1.914-.094.642 0 1.468.047 2.456.142.253.02.46.03.612.03.712 0 1.31-.29 1.778-.868.392-.486.583-.896.583-1.252 0-.23-.124-.266-.197-.266h-.015c-.077.008-.152.065-.22.17-.567.904-1.87 1.362-3.877 1.362-.78 0-1.065-.083-1.167-.153-.14-.098-.21-.362-.21-.783V7.2l-.007-.26c0-.132.03-.22.098-.26.05-.033.175-.07.476-.07h1.718c.43 0 .738.06.914.178.17.115.287.342.347.676l.046.22c.026.143.118.222.26.222.063 0 .212-.025.212-.258 0-.05-.005-.126-.016-.233-.03-.317-.047-.633-.047-.942 0-.41.023-.875.07-1.382.005-.08.008-.14.008-.176 0-.228-.133-.27-.21-.274h-.017c-.088 0-.204.04-.246.238-.08.416-.16.573-.21.63-.05.06-.18.14-.512.21-.31.06-.74.093-1.28.093h-1.2c-.292 0-.348-.045-.356-.054-.012-.013-.05-.08-.05-.396V2.19c0-.32.065-.445.118-.493.056-.048.203-.107.582-.107h1.22c.795 0 1.347.04 1.643.116.278.073.465.22.555.435.058.144.088.298.088.457V2.8c0 .26.126.3.216.3.145-.01.205-.095.228-.164.03-.08.056-.272.083-.584l.033-.46c.026-.35.047-.552.06-.62.018-.076.025-.14.025-.192 0-.108-.04-.29-.317-.29-.07 0-.175.01-.32.034-.047.006-.18.018-.555.03L178.21.91c-.48.02-1.044.03-1.682.03-1.034 0-1.934-.042-2.672-.125-.22-.027-.396-.04-.528-.04-.34 0-.413.15-.413.277 0 .078.038.208.288.208M186.158 1.457c.802 0 1.47.242 1.988.72.513.478.775 1.094.775 1.835 0 .636-.19 1.143-.565 1.508-.377.365-.903.55-1.565.55h-.883c-.29 0-.383-.05-.413-.08-.03-.03-.08-.126-.08-.426V2.362l-.007-.258c0-.247.052-.42.154-.508.107-.092.307-.14.598-.14m-3.236-.15l.365.056c.537.09.798.517.798 1.308l.015.818v5.65c0 .872-.064 1.462-.19 1.756-.122.284-.375.46-.772.534-.202.04-.244.138-.244.214 0 .068.024.224.255.224.08 0 .22-.01.426-.033.246-.026.46-.038.633-.038l.402-.01.75.01c.45 0 .772.012.98.034.247.023.396.036.468.036.136 0 .226-.028.276-.084.033-.036.048-.085.043-.136-.01-.13-.124-.21-.345-.235-.453-.044-.79-.153-1.005-.325-.155-.122-.253-.26-.293-.412-.043-.16-.064-.466-.064-.91l-.008-.315v-2.46c0-.07.01-.158.054-.193l.148-.027h1.037c.258 0 .44.095.555.292l2.05 3.158c.385.59.772 1.023 1.15 1.286.38.266.815.4 1.29.4.29 0 .553-.033.785-.097.26-.074.384-.16.392-.27.004-.06-.017-.097-.036-.117-.03-.04-.082-.058-.153-.064l-.25-.015c-.538-.033-1.14-.54-1.792-1.5l-2.36-3.514c1.26-.652 1.896-1.58 1.896-2.76 0-.913-.312-1.612-.934-2.075-.616-.458-1.538-.69-2.74-.69-.313 0-.674.01-1.102.04-.57.035-.98.054-1.22.054-.273 0-.506-.01-.688-.025-.322-.02-.506-.03-.55-.03-.283 0-.326.14-.326.22 0 .127.102.21.302.247M208.13 3.358c.184 0 .243-.26.263-.347.1-.456.242-.77.42-.93.178-.157.472-.238.875-.238h2.064c.237 0 .313.04.336.06.022.024.063.095.063.32l.01.203v7.797c0 .423-.068.718-.198.877-.128.156-.388.26-.77.312-.206.025-.31.097-.31.215 0 .085.037.23.294.23.054 0 .222-.015.53-.047.147-.016.33-.023.55-.023l.605-.008.573.007c.365 0 .598.007.692.022.198.032.327.048.392.048.244 0 .28-.146.28-.23 0-.123-.11-.203-.324-.238-.627-.112-.945-.45-.97-1.036l-.007-.305V2.337c0-.3.045-.392.072-.42.027-.03.113-.076.39-.076h2.188c.42 0 .703.053.843.156.136.103.238.334.303.69.035.194.115.292.25.292.087-.007.23-.058.222-.316-.006-.077-.02-.2-.047-.39-.027-.135-.04-.35-.04-.66 0-.433-.056-.548-.106-.6-.046-.05-.156-.113-.563-.113h-8.388c-.2 0-.33.046-.397.14-.062.087-.093.254-.093.51 0 .24-.04.55-.116.92-.064.3-.095.5-.095.615 0 .228.125.27.21.273M194.34 10.583c.063.306.11.483.142.558.036.082.106.16.21.227.227.156.59.294 1.074.41.483.115.932.174 1.335.174 1.118 0 2.045-.318 2.76-.948.716-.633 1.08-1.456 1.08-2.45 0-1.466-.983-2.534-2.92-3.174-.98-.328-1.602-.557-1.848-.68-.242-.12-.47-.317-.675-.58-.234-.307-.353-.678-.353-1.102 0-.477.183-.88.543-1.2.363-.322.82-.485 1.36-.485.69 0 1.322.184 1.88.543.558.358.933.82 1.115 1.37.095.288.195.42.31.42.087 0 .23-.04.23-.304 0-.046-.013-.147-.04-.332l-.125-.81c-.067-.436-.1-.7-.1-.783 0-.297-.084-.448-.257-.448-.06 0-.106.02-.126.047l-.108.093c-.092.077-.177.08-.263.038l-.54-.228c-.39-.164-.87-.247-1.43-.247-.998 0-1.826.274-2.46.815-.637.543-.96 1.256-.96 2.118 0 .773.248 1.41.737 1.897.484.48 1.315.924 2.47 1.317 1.102.374 1.776.664 2.003.862.44.383.663.862.663 1.422 0 .586-.243 1.092-.72 1.502-.482.413-1.08.623-1.775.623-.687 0-1.333-.22-1.92-.65-.587-.43-.976-.972-1.158-1.607-.085-.287-.182-.422-.323-.43-.08 0-.21.038-.21.29 0 .204.068.547.204 1.02.12.437.183.674.195.713M250.096 43.417c0-.18.037-.3.108-.364.075-.065.22-.098.43-.098.588 0 1.08.177 1.457.527.378.35.57.8.57 1.344 0 .465-.14.836-.415 1.1-.274.267-.658.403-1.144.403h-.65c-.217 0-.278-.04-.294-.056-.017-.016-.054-.08-.054-.303v-2.363l-.006-.19zm5.485 6.867c-.026-.03-.067-.047-.123-.05l-.184-.013c-.393-.025-.833-.394-1.31-1.1l-1.734-2.58c.924-.484 1.392-1.172 1.392-2.044 0-.68-.235-1.2-.698-1.546-.457-.34-1.14-.514-2.033-.514-.228 0-.495.01-.813.03-.422.027-.725.04-.9.04-.2 0-.37-.006-.507-.017-.24-.017-.375-.024-.407-.024-.223 0-.257.113-.257.18 0 .102.08.17.237.198l.27.04c.386.064.574.376.574.95l.01.604v4.17c0 .645-.044 1.078-.137 1.294-.087.204-.27.33-.56.385-.16.03-.192.11-.192.173 0 .054.02.18.204.18.058 0 .155-.006.317-.024.18-.018.337-.027.466-.027l.297-.008.553.007c.325 0 .57.008.725.025.18.018.29.026.345.026.106 0 .177-.02.218-.067.018-.02.04-.057.033-.11-.004-.107-.095-.17-.267-.19-.333-.032-.58-.112-.735-.237-.11-.086-.18-.187-.21-.296-.032-.116-.047-.34-.047-.67l-.006-2.047c0-.064.01-.108.032-.127l.102-.02H251c.186 0 .315.068.398.21l1.512 2.332c.287.438.574.758.854.954.283.198.608.298.964.298.215 0 .41-.026.584-.073.136-.04.293-.1.3-.214.003-.05-.015-.08-.03-.1zM150.01 45.82c-.72-.242-1.18-.412-1.36-.503-.178-.087-.344-.23-.494-.424-.17-.224-.258-.495-.258-.804 0-.348.134-.643.395-.874.266-.235.6-.354.995-.354.506 0 .97.134 1.38.397.41.263.683.6.815 1.003.076.223.15.322.246.322.054 0 .184-.025.184-.243 0-.02-.004-.07-.03-.246l-.092-.598c-.06-.398-.075-.533-.075-.576 0-.23-.067-.346-.204-.346-.052 0-.09.016-.103.038l-.08.068c-.064.054-.116.054-.18.026l-.395-.168c-.29-.123-.648-.184-1.066-.184-.74 0-1.355.203-1.826.606-.474.403-.715.935-.715 1.577 0 .574.184 1.05.548 1.41.36.358.976.686 1.83.977.813.275 1.308.488 1.474.634.32.28.484.63.484 1.04 0 .426-.177.796-.526 1.096-.353.302-.79.456-1.3.456-.504 0-.978-.16-1.41-.478-.43-.315-.715-.71-.848-1.176-.04-.14-.11-.323-.255-.33-.05 0-.17.022-.17.23 0 .154.05.402.15.76.09.32.136.495.144.523.05.224.084.36.108.416.028.063.082.12.16.174.172.116.44.22.8.306.357.085.69.13.99.13.828 0 1.517-.238 2.046-.707.534-.47.805-1.084.805-1.82 0-1.092-.73-1.886-2.17-2.36M183.018 42.443c-.07 0-.168.01-.29.035-.14.023-.33.034-.562.034-.44 0-.796-.014-1.06-.042-.112-.01-.192-.016-.246-.016-.205 0-.228.118-.228.17 0 .062.028.17.22.202.38.064.644.162.788.29.138.127.228.347.263.655l.07 1.333-.006 3.652c0 .023-.004.036-.007.044-.017-.013-.05-.044-.11-.113l-5.29-6.043c-.112-.128-.22-.19-.336-.19-.05 0-.12 0-.216.007l-.086.006-.617-.017c-.046-.005-.078-.007-.098-.007-.117 0-.187.062-.187.17 0 .06.026.164.207.19.382.052.666.258.87.628.205.375.31.898.31 1.552v3.948c0 .405-.056.7-.163.877-.105.174-.313.317-.62.423-.14.05-.21.117-.203.21.008.06.047.16.224.16.044 0 .114-.006.22-.022.13-.017.27-.026.42-.026l.273-.01.585.03c.358.018.465.03.496.033.07.01.127.013.18.013.114 0 .183-.066.183-.176 0-.08-.043-.185-.243-.21-.288-.042-.483-.11-.576-.197-.092-.087-.15-.252-.175-.485l-.017-.41.005-4.183c0-.135.025-.198.05-.198.012 0 .025.004.034.013l4.904 5.655.132.155c.04.04.097.065.17.07h.015c.11 0 .185-.066.21-.186.022-.1.032-.357.032-.81v-4.86l.01-.385v-.625c0-.36.035-.605.104-.73.066-.12.207-.208.426-.262.14-.04.165-.116.16-.175-.007-.066-.045-.177-.222-.177zM173.715 48.864h-.002c-.064.006-.12.048-.177.133-.415.663-1.373 1-2.85 1-.572 0-.778-.062-.85-.113-.07-.047-.15-.183-.15-.565v-2.14l-.005-.19c0-.094.023-.154.066-.18.03-.02.115-.05.343-.05h1.27c.314 0 .538.044.663.13.124.082.21.245.252.488l.033.16c.023.116.096.18.208.18.052 0 .172-.02.172-.208 0-.036-.003-.092-.01-.173-.023-.226-.035-.46-.035-.694 0-.31.017-.652.05-1.02.005-.06.008-.105.008-.133 0-.187-.118-.213-.18-.218-.06 0-.167.025-.2.19-.06.302-.116.416-.153.458-.035.042-.13.1-.368.148-.23.046-.548.07-.945.07h-.885c-.215 0-.25-.033-.25-.035-.004-.005-.034-.044-.034-.28V43.48c0-.23.046-.32.084-.35.03-.03.128-.077.418-.077h.9c.586 0 .993.03 1.21.086.204.052.334.154.4.31.042.104.063.215.063.33v.152c0 .204.105.236.178.236.09-.007.156-.053.184-.133.02-.062.04-.208.062-.435l.023-.34c.018-.25.034-.402.044-.455.014-.06.02-.107.02-.145 0-.146-.092-.23-.252-.23-.052 0-.133.01-.24.024-.03.007-.127.014-.406.022l-.817.042c-.358.015-.775.023-1.24.023-.77 0-1.432-.03-1.97-.09-.164-.02-.296-.032-.395-.032-.278 0-.32.14-.32.222 0 .05.024.17.23.17.323 0 .543.087.652.26.114.18.172.544.172 1.084v4.908l-.007.38c0 .436-.12.683-.37.753l-.216.062c-.16.044-.195.13-.195.198s.032.186.247.186c.057 0 .158-.013.31-.04.27-.047.745-.07 1.41-.07.476 0 1.085.035 1.812.106.193.016.34.022.454.022.53 0 .976-.218 1.324-.647.288-.355.433-.67.433-.934 0-.19-.11-.212-.17-.212M165.812 50.222c-.233-.034-.402-.09-.506-.163-.102-.075-.19-.207-.262-.39-.063-.168-.095-.523-.095-1.056v-4.35c0-.783.13-1.232.386-1.33l.295-.115c.16-.056.194-.147.194-.214 0-.05-.022-.17-.217-.17l-.15.006-.383.033c-.2.012-.444.02-.727.02-.46 0-.835-.018-1.11-.052-.148-.018-.24-.002-.293.055-.023.022-.047.064-.044.13.003.068.048.158.235.193.338.057.558.16.657.31.103.157.155.47.155.936v4.974c0 .478-.04.795-.118.937-.077.135-.253.228-.522.274-.19.03-.23.122-.23.192 0 .054.02.18.217.18.074 0 .17-.004.28-.016l.674-.04.833.013c.287 0 .488.007.6.024.09.012.168.02.23.02.215 0 .238-.14.238-.2 0-.14-.193-.182-.338-.202M161.332 48.296c-.06.003-.136.05-.28.348-.21.428-.59.8-1.133 1.102-.545.304-1.107.46-1.668.46-.964 0-1.762-.38-2.375-1.13-.615-.75-.927-1.735-.927-2.923 0-1.03.28-1.85.83-2.44.55-.592 1.312-.89 2.27-.89 1.198 0 2.162.626 2.865 1.865.108.194.182.273.266.273h.002c.058-.004.105-.036.138-.1l.018-.058c.003-.01.003-.018.003-.025l-.2-1.54c-.01-.066-.037-.273-.183-.273-.033 0-.084.013-.212.107-.023.02-.037.027-.043.03l-.078-.026-.317-.16c-.684-.37-1.445-.558-2.26-.558-1.194 0-2.2.408-2.99 1.215-.79.807-1.19 1.833-1.19 3.05 0 1.217.387 2.213 1.152 2.96.762.746 1.78 1.125 3.026 1.125 1.074 0 2.07-.29 2.96-.864.183-.117.28-.233.298-.35l.18-.952.006-.07c0-.16-.11-.172-.158-.172M192.334 48.296h-.003c-.06.003-.134.05-.28.348-.207.43-.588.8-1.13 1.102-.545.304-1.106.46-1.67.46-.962 0-1.76-.38-2.373-1.13-.615-.75-.927-1.733-.927-2.923 0-1.03.28-1.85.83-2.44.55-.592 1.312-.89 2.27-.89 1.198 0 2.163.626 2.865 1.865.107.194.18.273.265.273h.002c.058-.004.104-.036.138-.1l.018-.058c.002-.01.003-.018 0-.025l-.2-1.54c-.01-.066-.036-.273-.182-.273-.032 0-.083.013-.21.107-.024.02-.038.027-.045.03l-.076-.026-.318-.16c-.685-.37-1.445-.558-2.26-.558-1.193 0-2.197.408-2.99 1.215-.79.806-1.19 1.833-1.19 3.05 0 1.217.39 2.213 1.152 2.96.764.746 1.782 1.125 3.028 1.125 1.073 0 2.07-.29 2.96-.864.184-.118.282-.235.298-.35l.18-.952.006-.07c0-.158-.108-.172-.156-.172M220.748 48.864h-.002c-.062.006-.12.05-.177.133-.415.663-1.374 1-2.85 1-.572 0-.778-.062-.85-.113-.07-.047-.15-.183-.15-.565v-2.14l-.006-.19c0-.094.023-.154.064-.18.038-.023.128-.05.346-.05h1.268c.315 0 .54.044.666.13.123.082.207.245.25.488l.034.16c.02.116.095.18.207.18.052 0 .172-.02.172-.208 0-.036-.004-.092-.01-.173-.024-.23-.035-.466-.035-.694 0-.31.016-.652.05-1.027.005-.057.008-.098.008-.126 0-.187-.12-.213-.183-.218-.06 0-.164.025-.2.19-.057.303-.114.416-.152.458-.035.042-.128.1-.368.148-.23.046-.546.07-.942.07h-.886c-.215 0-.25-.034-.25-.035-.004-.005-.034-.044-.034-.28V43.48c0-.23.045-.32.084-.35.03-.03.128-.077.417-.077h.902c.586 0 .992.03 1.208.086.205.052.336.154.402.31.042.104.064.215.064.33v.152c0 .204.103.236.175.236.093-.007.157-.053.184-.13.022-.062.04-.196.064-.438l.022-.34c.02-.256.034-.405.044-.453.014-.058.02-.107.02-.147 0-.146-.092-.23-.252-.23-.053 0-.13.01-.24.024-.03.007-.128.014-.407.022l-.816.042c-.36.015-.776.023-1.24.023-.77 0-1.433-.03-1.972-.09-.163-.02-.295-.032-.393-.032-.28 0-.32.14-.32.222 0 .05.022.17.228.17.325 0 .545.087.653.26.114.18.17.544.17 1.084v4.908l-.004.38c0 .436-.122.683-.37.753l-.217.062c-.16.043-.196.13-.196.198s.03.186.245.186c.058 0 .16-.013.31-.04.27-.047.745-.07 1.41-.07.476 0 1.086.035 1.812.106.193.016.342.022.454.022.532 0 .978-.218 1.324-.647.29-.356.435-.67.435-.934 0-.19-.11-.212-.172-.212M199.97 48.864c-.064.006-.12.048-.176.133-.416.663-1.375 1-2.85 1-.573 0-.78-.062-.852-.113-.067-.047-.15-.183-.15-.565v-2.14l-.004-.19c0-.094.022-.154.065-.18.03-.02.115-.05.344-.05h1.27c.314 0 .538.044.665.13.122.082.206.245.25.488l.033.16c.02.116.095.18.208.18.052 0 .173-.02.173-.208 0-.036-.004-.094-.012-.173-.023-.23-.034-.462-.034-.694 0-.307.017-.65.052-1.02.004-.06.007-.105.007-.133 0-.187-.122-.213-.185-.218-.06 0-.164.025-.198.19-.06.304-.115.416-.152.458-.036.042-.13.1-.37.148-.228.046-.545.07-.942.07h-.886c-.216 0-.25-.034-.25-.035-.003-.004-.034-.044-.034-.28V43.48c0-.23.045-.32.083-.35.032-.03.13-.077.42-.077h.9c.586 0 .99.03 1.208.086.204.052.335.154.4.31.043.104.064.215.064.33v.152c0 .204.105.236.176.236.09-.007.156-.053.185-.133.012-.038.032-.124.062-.435l.022-.34c.023-.31.038-.418.044-.453.012-.058.02-.107.02-.147 0-.146-.092-.23-.252-.23-.054 0-.132.01-.24.024-.032.007-.13.014-.408.022l-.815.042c-.36.015-.776.023-1.24.023-.77 0-1.433-.03-1.972-.09-.16-.02-.293-.032-.392-.032-.278 0-.32.14-.32.222 0 .05.022.17.23.17.323 0 .543.087.65.26.116.18.173.544.173 1.084v4.908l-.005.38c0 .436-.12.683-.37.753l-.217.062c-.16.044-.195.13-.195.198s.032.186.245.186c.058 0 .16-.013.31-.04.27-.047.746-.07 1.41-.07.477 0 1.086.035 1.813.106.194.016.342.022.455.022.53 0 .975-.218 1.323-.647.29-.355.435-.67.435-.934 0-.19-.11-.212-.172-.212M213.11 48.296c-.06.003-.137.05-.282.348-.21.428-.59.8-1.132 1.102-.544.304-1.107.46-1.67.46-.962 0-1.76-.38-2.372-1.13-.616-.75-.928-1.733-.928-2.923 0-1.03.28-1.85.83-2.44.55-.592 1.313-.89 2.27-.89 1.2 0 2.163.626 2.865 1.865.11.194.184.273.266.273h.002c.06-.004.105-.036.14-.1l.016-.058c.003-.01.003-.018.002-.025l-.2-1.54c-.01-.066-.037-.273-.183-.273-.033 0-.083.013-.21.107-.024.02-.038.027-.045.03l-.077-.026-.317-.16c-.685-.37-1.445-.558-2.26-.558-1.194 0-2.198.408-2.99 1.215-.79.807-1.19 1.833-1.19 3.05 0 1.217.388 2.213 1.153 2.96.763.746 1.78 1.125 3.027 1.125 1.073 0 2.07-.29 2.96-.864.183-.118.28-.233.298-.35l.18-.952.006-.07c0-.158-.107-.172-.155-.172M99.738 50.262c-.307-.032-.514-.12-.62-.265-.105-.147-.16-.424-.16-.822v-5.61c0-.18.04-.344.114-.482.072-.134.156-.208.26-.228l.234-.052c.154-.033.186-.116.186-.18 0-.053-.02-.175-.2-.175-.04 0-.113.007-.22.025-.16.02-.448.033-.854.033-.28 0-.55-.013-.8-.04-.19-.02-.317-.03-.398-.03-.176 0-.2.11-.205.155-.003.072.03.165.216.2.255.058.43.165.522.317.095.156.144.43.144.816v1.985c0 .083-.016.14-.04.158-.018.01-.08.037-.29.037h-3.394c-.315 0-.37-.04-.38-.047-.008-.007-.047-.06-.047-.352v-2.076c0-.274.04-.468.12-.58.08-.108.242-.196.484-.258.132-.034.2-.1.2-.19 0-.055-.02-.18-.227-.18-.06 0-.14.007-.25.022-.235.03-.49.046-.758.046-.398 0-.75-.017-1.045-.052-.148-.017-.268-.03-.35-.034h-.016c-.177 0-.197.122-.197.175 0 .07.038.16.22.186.308.047.523.142.64.28.117.14.175.373.175.694v4.988c0 .535-.03.913-.09 1.123-.055.195-.152.306-.3.34l-.286.07c-.164.037-.198.127-.198.197 0 .05.02.168.205.168.06 0 .233-.014.368-.026.142-.013.263-.018.36-.018l.378-.015.483.006c.353 0 .582.01.683.027.142.018.236.026.29.026.086 0 .148-.02.185-.06.022-.022.046-.063.043-.124-.003-.082-.053-.183-.273-.207-.326-.037-.55-.13-.665-.28-.118-.148-.177-.42-.177-.807v-2.13c0-.218.04-.276.057-.29.02-.016.096-.053.37-.053h3.39c.254 0 .3.028.302.03.003.005.032.045.032.274v2.13l-.005.23c0 .562-.18.868-.55.932-.16.024-.244.086-.25.186 0 .053.012.097.042.128.032.033.082.052.147.052h.01c.028 0 .136-.01.403-.03.112-.01.204-.017.272-.017l.43-.013.425.006c.287 0 .477.007.565.02.265.045.416.05.49-.03.033-.036.046-.083.04-.138-.003-.096-.084-.153-.237-.173zM113.907 46.768c0 .068-.124.082-.227.082h-1.734l-.16-.006c-.2 0-.2-.065-.2-.088 0-.01.004-.05.068-.19l1.122-2.512c.02-.04.032-.06.04-.07.014.01.048.04.087.15l.948 2.413.03.105c.022.072.027.1.027.116m3.155 3.466c-.35-.064-.583-.15-.693-.254-.113-.107-.258-.393-.435-.853l-2.6-6.703c-.05-.137-.124-.207-.212-.207-.133 0-.2.16-.224.21l-2.957 6.624-.166.382c-.082.172-.187.342-.315.502-.152.19-.237.248-.28.26l-.214.064c-.09.028-.14.094-.14.184 0 .05.02.17.216.17.008 0 .035 0 .326-.034.062-.004.147-.006.253-.006.24 0 .454.004.634.012l.55.032c.09.006.155.007.2.007.088 0 .15-.02.185-.058.025-.026.038-.063.036-.103-.004-.07-.046-.156-.227-.194-.25-.055-.42-.12-.502-.193-.077-.07-.115-.187-.115-.35 0-.18.083-.466.25-.847l.377-.854c.145-.33.22-.417.254-.44.033-.022.14-.058.495-.058h2.082c.287 0 .347.032.355.037.012.01.063.06.17.34l.286.77c.23.602.347 1.006.347 1.203 0 .195-.076.303-.24.335l-.178.04c-.16.033-.192.116-.192.18 0 .056.02.18.21.18.044 0 .105-.006.19-.022.13-.023.463-.035.99-.035.505 0 .862.01 1.06.03.113.007.187.012.223.012.185 0 .218-.097.222-.156.003-.074-.032-.17-.223-.206M141.208 50.262c-.306-.032-.514-.12-.62-.265-.105-.148-.16-.424-.16-.822v-5.61c0-.18.04-.344.113-.482.075-.134.158-.208.26-.228l.235-.052c.155-.033.188-.117.188-.18 0-.11-.075-.175-.2-.175-.04 0-.115.007-.22.025-.162.02-.45.033-.855.033-.28 0-.55-.013-.8-.04-.19-.02-.316-.03-.397-.03-.176 0-.2.11-.204.155-.004.072.03.165.215.2.255.058.43.165.523.317.095.156.142.43.142.816v1.985c0 .113-.025.148-.04.158-.017.01-.077.037-.288.037h-3.395c-.315 0-.373-.04-.38-.047-.007-.007-.047-.06-.047-.352v-2.076c0-.274.04-.468.12-.58.08-.108.242-.196.484-.258.133-.034.2-.098.2-.19 0-.055-.022-.18-.228-.18-.058 0-.137.007-.25.022-.234.03-.49.046-.757.046-.398 0-.75-.017-1.044-.052-.148-.017-.27-.03-.35-.034h-.016c-.177 0-.197.122-.197.175 0 .07.038.16.218.186.31.047.525.142.642.28.116.14.175.373.175.694v4.988c0 .535-.03.913-.09 1.123-.055.195-.153.306-.3.34l-.286.07c-.164.037-.198.127-.198.197 0 .05.02.168.205.168.06 0 .232-.014.368-.026.143-.013.262-.018.36-.018l.377-.015.484.006c.353 0 .583.01.684.027.14.018.236.026.29.026.085 0 .147-.02.184-.06.02-.022.046-.063.043-.124-.002-.082-.053-.183-.272-.207-.327-.037-.55-.13-.666-.28-.118-.148-.177-.42-.177-.807v-2.13c0-.218.04-.276.058-.29.02-.016.094-.053.37-.053h3.388c.257 0 .3.028.303.03.004.005.032.045.032.274v2.13l-.004.23c0 .562-.18.868-.552.932-.16.024-.242.086-.247.186-.002.053.012.097.04.128.034.033.083.052.15.052h.01c.028 0 .132-.008.402-.03.114-.01.203-.017.272-.017l.43-.013.426.006c.288 0 .477.007.565.02.265.045.415.052.49-.03.032-.035.047-.083.042-.14-.006-.094-.086-.15-.24-.17zM246.537 48.864h-.003c-.06.006-.12.05-.176.133-.415.663-1.373 1-2.848 1-.574 0-.78-.062-.852-.113-.07-.047-.15-.183-.15-.565v-2.14l-.005-.19c0-.094.022-.154.064-.18.038-.023.13-.05.345-.05h1.27c.314 0 .538.044.664.13.124.082.208.245.25.488l.034.16c.022.116.095.18.207.18.053 0 .174-.02.174-.208 0-.036-.002-.092-.01-.173-.024-.23-.034-.462-.034-.694 0-.313.017-.656.05-1.03.005-.055.007-.095.007-.123 0-.187-.12-.213-.182-.218-.06 0-.164.025-.198.19-.06.302-.115.416-.152.458-.035.042-.13.1-.37.148-.227.046-.544.07-.942.07h-.885c-.216 0-.25-.034-.25-.035-.005-.005-.034-.044-.034-.28V43.48c0-.23.044-.32.082-.35.03-.03.13-.077.42-.077h.9c.585 0 .99.03 1.208.086.203.052.335.154.4.31.043.104.064.215.064.33v.152c0 .204.104.236.175.236.09-.007.156-.053.185-.133.012-.038.033-.124.06-.435l.024-.34c.018-.256.033-.404.044-.455.012-.06.02-.107.02-.145 0-.146-.093-.23-.254-.23-.053 0-.133.01-.24.024-.03.007-.128.014-.406.022l-.816.042c-.36.015-.776.023-1.24.023-.77 0-1.432-.03-1.972-.09-.162-.02-.295-.032-.393-.032-.278 0-.32.14-.32.222 0 .05.022.17.23.17.323 0 .544.087.652.26.114.18.172.544.172 1.084v4.908l-.007.38c0 .436-.12.683-.37.753l-.216.062c-.162.043-.196.13-.196.198s.032.186.245.186c.058 0 .16-.013.31-.04.27-.047.746-.07 1.41-.07.477 0 1.087.035 1.813.106.193.016.342.022.454.022.53 0 .977-.218 1.323-.647.29-.355.435-.67.435-.934 0-.19-.11-.212-.17-.212M238.962 43.053c0-.323-.044-.412-.083-.452-.04-.04-.125-.088-.43-.088h-6.193c-.152 0-.253.036-.305.11-.05.068-.073.19-.073.385 0 .177-.03.405-.085.674-.048.224-.07.374-.07.462 0 .187.112.214.17.217.147 0 .193-.203.21-.27.073-.334.176-.562.305-.678.13-.115.342-.173.635-.173h1.525c.18 0 .225.03.236.04.01.01.04.053.04.225l.007 5.907c0 .31-.047.523-.14.636-.093.113-.282.19-.56.227-.16.02-.243.077-.243.174 0 .055.024.186.235.186.04 0 .157-.012.39-.036.11-.01.246-.017.406-.017l.448-.006.422.006c.268 0 .44.007.51.016.15.023.243.036.29.036.202 0 .224-.13.224-.188 0-.098-.085-.163-.252-.19-.455-.082-.685-.327-.703-.75l-.008-5.918c0-.224.036-.284.05-.3.015-.015.07-.05.275-.05h1.616c.308 0 .514.037.614.112.098.072.17.24.218.498.035.19.123.23.202.23h.002c.054-.006.183-.04.175-.25-.004-.06-.015-.156-.036-.29-.02-.1-.028-.265-.028-.487M107.65 48.864h-.002c-.064.006-.12.048-.177.133-.413.663-1.372 1-2.847 1-.574 0-.78-.062-.853-.113-.068-.047-.15-.183-.15-.565v-2.14l-.003-.19c0-.094.02-.154.064-.18.03-.02.116-.05.345-.05h1.27c.314 0 .54.044.665.13.122.082.206.245.25.488l.033.16c.022.116.095.18.208.18.053 0 .174-.02.174-.208 0-.036-.003-.094-.01-.173-.024-.227-.036-.462-.036-.694 0-.31.018-.652.05-1.02.006-.06.008-.105.008-.133 0-.187-.12-.213-.183-.218-.06 0-.164.025-.198.19-.06.304-.115.418-.152.458-.035.042-.13.1-.37.148-.228.046-.546.07-.942.07h-.885c-.215 0-.25-.033-.25-.035-.004-.005-.034-.044-.034-.28V43.48c0-.23.046-.32.084-.35.032-.03.13-.077.42-.077h.9c.587 0 .992.03 1.21.086.203.052.333.154.398.31.043.104.065.215.065.33v.152c0 .204.103.236.175.236.092-.007.157-.053.185-.13.012-.04.034-.127.062-.438l.022-.34c.023-.31.037-.418.045-.453.012-.06.018-.107.018-.147 0-.146-.09-.23-.25-.23-.054 0-.133.01-.24.024-.033.007-.13.014-.41.022l-.815.042c-.358.015-.774.023-1.24.023-.77 0-1.432-.03-1.97-.09-.164-.02-.295-.032-.394-.032-.278 0-.32.14-.32.222 0 .05.023.17.23.17.323 0 .543.087.65.26.115.18.173.544.173 1.084v4.908l-.006.38c0 .436-.12.683-.37.753l-.218.062c-.162.043-.196.13-.196.198s.032.186.246.186c.058 0 .16-.013.31-.04.27-.047.746-.07 1.41-.07.477 0 1.087.035 1.813.106.192.016.34.022.453.022.53 0 .975-.218 1.325-.647.286-.355.433-.67.433-.934 0-.19-.11-.212-.17-.212M230.052 42.443c-.07 0-.166.01-.292.035-.138.023-.328.034-.56.034-.44 0-.796-.014-1.058-.042-.113-.01-.196-.016-.25-.016-.204 0-.226.118-.226.17 0 .062.028.17.218.202.382.064.646.162.79.29.138.127.227.35.264.655l.068 1.333-.006 3.652c0 .023-.004.036-.006.044-.017-.013-.05-.044-.11-.113l-5.29-6.043c-.11-.126-.223-.19-.336-.19-.05 0-.12 0-.216.007l-.087.006-.617-.017c-.045-.005-.078-.007-.098-.007-.118 0-.187.062-.187.17 0 .06.027.164.208.19.383.052.667.258.87.628.205.374.308.898.308 1.552v3.948c0 .405-.054.7-.16.877-.105.174-.313.317-.62.423-.14.05-.208.117-.202.207.005.06.044.164.222.164.043 0 .112-.006.22-.022.13-.017.27-.026.42-.026l.27-.01.587.03c.358.018.466.03.497.033.068.01.128.013.18.013.114 0 .18-.066.18-.176 0-.08-.04-.185-.24-.21-.29-.042-.484-.11-.577-.197-.093-.086-.15-.25-.176-.485l-.02-.41.007-4.183c0-.135.025-.198.048-.198.015 0 .026.004.034.013l4.905 5.655.13.155c.04.04.1.065.173.07h.013c.113 0 .188-.066.212-.186.02-.1.03-.365.03-.81v-4.86l.01-.385v-.625c0-.36.036-.605.105-.73.067-.12.21-.208.427-.262.14-.04.164-.116.16-.175-.006-.053-.037-.177-.222-.177zM124.56 48.928c-.08 0-.15.062-.217.19-.137.266-.465.484-.975.65-.52.17-1.14.256-1.85.256-.616 0-.778-.07-.822-.11-.042-.042-.113-.196-.113-.782l-.007-5.25c0-.582.156-.902.47-.98l.203-.047c.176-.043.213-.145.213-.225 0-.044-.02-.146-.2-.146-.02 0-.102.003-.25.01-.285.02-.606.03-.954.03-.324 0-.617-.01-.874-.036-.154-.015-.278-.022-.368-.022-.223 0-.257.12-.257.193 0 .048.026.14.19.172l.26.052c.383.08.57.354.57.84v5.192l-.005.27c0 .358-.044.615-.13.762-.082.142-.25.25-.498.328-.166.05-.2.133-.2.195 0 .04.013.166.192.166h.015c.084-.006.194-.017.327-.036.314-.047.71-.07 1.178-.07.403 0 .79.014 1.152.04l.622.047c.17.013.31.02.43.02.758 0 1.314-.222 1.655-.656.24-.313.37-.606.386-.872.003-.06-.01-.107-.04-.138-.018-.02-.05-.042-.106-.042zM131.746 43.053c0-.323-.044-.413-.083-.452-.06-.06-.19-.088-.427-.088h-6.195c-.15 0-.25.036-.304.11-.05.068-.072.19-.072.385 0 .176-.028.404-.086.674-.047.225-.07.374-.07.462 0 .187.113.214.17.217.15 0 .195-.203.21-.27.074-.334.178-.562.306-.678.128-.115.342-.173.636-.173h1.524c.18 0 .226.03.237.04.01.01.042.053.042.225l.005 5.907c0 .308-.046.523-.14.636-.093.113-.28.19-.56.227-.16.02-.243.077-.243.174 0 .055.023.186.235.186.037 0 .155-.012.39-.036.11-.01.245-.017.405-.017l.448-.006.422.006c.267 0 .438.007.51.016.15.023.242.036.29.036.2 0 .223-.13.223-.188 0-.098-.084-.163-.252-.19-.454-.082-.685-.327-.703-.75l-.006-5.918c0-.224.035-.284.05-.3.014-.015.07-.05.274-.05h1.618c.307 0 .513.037.613.112.1.072.173.24.22.498.034.19.123.23.202.23h.002c.068-.007.18-.047.176-.25-.004-.057-.015-.146-.036-.29-.018-.1-.028-.263-.028-.487" fill="#231F20" />
    <path d="M73.14 18.2h-9.162v32.32H50.252V.913H87.25c-.768.775-.487 1.936-1.532 3.446-1.362 1.828-2.695.974-3.8 2.317-1.018 1.242-.573 2.54-1.532 3.83-1.36 1.83-3.45 1.16-4.95 3.092-1.215 1.545-1.146 3.057-2.297 4.602M30.894 1.01c-.765.772-.554 2.004-1.598 3.51-1.357 1.828-2.69.978-3.792 2.32-1.018 1.238-.575 2.537-1.53 3.824-1.36 1.83-3.41 1.156-4.94 3.09-1.222 1.54-1.15 3.05-2.297 4.595h17.92v16.14h-14.86c-1.227 0-2.218.135-3.06-.772-.646-.696-.768-1.363-.765-2.315l.055-30.394H.047L0 36.034c-.005 4.08 2.643 8.07 4.177 9.58 1.91 1.93 5.84 5.02 10.3 5.02h20.91l12.596-14.6.077-35.026H30.894" fill="#F6931D" />
    <path fill="#231F20" d="M256.973 48.966v.202h-.566v1.49h-.23v-1.49h-.564v-.202M257.176 48.966h.326l.482 1.43.48-1.43h.322v1.692h-.216v-.998c0-.035 0-.093.002-.172l.002-.257-.48 1.428h-.224l-.483-1.427v.053c0 .042 0 .105.002.19 0 .085.003.147.003.187v.998h-.217v-1.692z" />
  </g>
</svg>
