<?xml version="1.0" encoding="UTF-8" standalone="no"?>
<svg width="70px" height="70px" viewBox="0 0 70 70" version="1.1" xmlns="http://www.w3.org/2000/svg" xmlns:xlink="http://www.w3.org/1999/xlink">
    <!-- Generator: Sketch 42 (36781) - http://www.bohemiancoding.com/sketch -->
    <title>Fill 1</title>
    <desc>Created with Sketch.</desc>
    <defs></defs>
    <g id="Symbols" stroke="none" stroke-width="1" fill="none" fill-rule="evenodd" opacity="0.192397388">
        <g id="Current-wait-times" transform="translate(-170.000000, -36.000000)" fill="#000000">
            <g id="Fill-1">
                <path d="M222.802471,52.0415985 L223.958401,53.1975288 L221.634279,55.5224693 L220.478348,54.366539 L222.802471,52.0415985 Z M221.634279,86.4783482 L223.958401,88.8032886 L222.802471,89.9592189 L220.478348,87.635096 L221.634279,86.4783482 Z M188.365721,86.4783482 L189.521652,87.635096 L187.196711,89.9592189 L186.040781,88.8032886 L188.365721,86.4783482 Z M188.365721,55.5224693 L186.040781,53.1975288 L187.196711,52.0415985 L189.521652,54.366539 L188.365721,55.5224693 Z M179.005466,71.8174896 L184.433596,71.8174896 L184.433596,70.1825104 L179.005466,70.1825104 L179.005466,71.8174896 Z M204.18251,96.9945345 L205.81749,96.9945345 L205.81749,90.1464241 L204.18251,90.1464241 L204.18251,96.9945345 Z M224.146424,71.8174896 L230.994534,71.8174896 L230.994534,70.1825104 L224.146424,70.1825104 L224.146424,71.8174896 Z M202.956276,44.3310366 L207.043724,44.3310366 L207.043724,73.043724 L186.909773,73.043724 L186.909773,68.956276 L202.956276,68.956276 L202.956276,44.3310366 Z M205,101.912552 C187.954524,101.912552 174.087448,88.0454758 174.087448,71 C174.087448,53.9553417 187.954524,40.087448 205,40.087448 C222.045476,40.087448 235.912552,53.9553417 235.912552,71 C235.912552,88.0454758 222.045476,101.912552 205,101.912552 L205,101.912552 Z M205,36 C185.700705,36 170,51.7007054 170,71 C170,90.2992946 185.700705,106 205,106 C224.299295,106 240,90.2992946 240,71 C240,51.7007054 224.299295,36 205,36 L205,36 Z"></path>
            </g>
        </g>
    </g>
</svg>